STARTFONT 2.1
COMMENT
COMMENT Converted from OpenType font "Ubuntu-Th.otf" by "otf2bdf 3.0".
COMMENT
FONT -FreeType-Ubuntu Thin-Medium-R-Normal--17-120-100-100-P-82-ISO10646-1
SIZE 12 100 100
FONTBOUNDINGBOX 22 20 -2 -3
STARTPROPERTIES 19
FOUNDRY "FreeType"
FAMILY_NAME "Ubuntu Thin"
WEIGHT_NAME "Medium"
SLANT "R"
SETWIDTH_NAME "Normal"
ADD_STYLE_NAME ""
PIXEL_SIZE 17
POINT_SIZE 120
RESOLUTION_X 100
RESOLUTION_Y 100
SPACING "P"
AVERAGE_WIDTH 82
CHARSET_REGISTRY "ISO10646"
CHARSET_ENCODING "1"
FONT_ASCENT 15
FONT_DESCENT 3
COPYRIGHT "Copyright 2015 Canonical Ltd.  Licensed under the Ubuntu Font Licence 1.0"
_OTF_FONTFILE "Ubuntu-Th.otf"
_OTF_PSNAME "Ubuntu-Thin"
ENDPROPERTIES
CHARS 1195
STARTCHAR 0000
ENCODING 0
SWIDTH 0 0
DWIDTH 0 0
BBX 0 0 0 0
BITMAP
ENDCHAR
STARTCHAR 0008
ENCODING 8
SWIDTH 0 0
DWIDTH 0 0
BBX 0 0 0 0
BITMAP
ENDCHAR
STARTCHAR 0009
ENCODING 9
SWIDTH 240 0
DWIDTH 4 0
BBX 0 0 0 0
BITMAP
ENDCHAR
STARTCHAR 000D
ENCODING 13
SWIDTH 240 0
DWIDTH 4 0
BBX 0 0 0 0
BITMAP
ENDCHAR
STARTCHAR 001D
ENCODING 29
SWIDTH 0 0
DWIDTH 0 0
BBX 0 0 0 0
BITMAP
ENDCHAR
STARTCHAR 0020
ENCODING 32
SWIDTH 240 0
DWIDTH 4 0
BBX 0 0 0 0
BITMAP
ENDCHAR
STARTCHAR 0021
ENCODING 33
SWIDTH 300 0
DWIDTH 5 0
BBX 1 12 2 0
BITMAP
80
80
80
80
80
80
80
80
00
00
00
80
ENDCHAR
STARTCHAR 0022
ENCODING 34
SWIDTH 360 0
DWIDTH 6 0
BBX 3 4 1 9
BITMAP
80
A0
A0
80
ENDCHAR
STARTCHAR 0023
ENCODING 35
SWIDTH 660 0
DWIDTH 11 0
BBX 9 12 1 0
BITMAP
1100
2100
2200
2200
FF00
2200
4200
4400
FF80
4400
4400
4400
ENDCHAR
STARTCHAR 0024
ENCODING 36
SWIDTH 540 0
DWIDTH 9 0
BBX 7 15 1 -2
BITMAP
10
10
3C
40
80
80
60
18
04
02
02
04
78
10
10
ENDCHAR
STARTCHAR 0025
ENCODING 37
SWIDTH 840 0
DWIDTH 14 0
BBX 12 12 1 0
BITMAP
7040
8880
8900
8900
8A00
7200
0440
09A0
0910
1110
1120
21E0
ENDCHAR
STARTCHAR 0026
ENCODING 38
SWIDTH 600 0
DWIDTH 10 0
BBX 9 12 1 0
BITMAP
3800
4400
4400
4400
4400
3800
5000
8900
8500
8300
8300
7C80
ENDCHAR
STARTCHAR 0027
ENCODING 39
SWIDTH 180 0
DWIDTH 3 0
BBX 1 4 1 9
BITMAP
80
80
80
80
ENDCHAR
STARTCHAR 0028
ENCODING 40
SWIDTH 300 0
DWIDTH 5 0
BBX 4 16 1 -3
BITMAP
10
20
40
40
40
80
80
80
80
80
80
40
40
40
20
10
ENDCHAR
STARTCHAR 0029
ENCODING 41
SWIDTH 300 0
DWIDTH 5 0
BBX 3 16 0 -3
BITMAP
80
40
40
20
20
20
20
20
20
20
20
20
20
40
40
80
ENDCHAR
STARTCHAR 002A
ENCODING 42
SWIDTH 480 0
DWIDTH 8 0
BBX 5 5 1 6
BITMAP
20
20
F8
30
50
ENDCHAR
STARTCHAR 002B
ENCODING 43
SWIDTH 540 0
DWIDTH 9 0
BBX 7 8 1 1
BITMAP
10
10
10
10
FE
10
10
10
ENDCHAR
STARTCHAR 002C
ENCODING 44
SWIDTH 240 0
DWIDTH 4 0
BBX 1 3 1 -2
BITMAP
80
80
80
ENDCHAR
STARTCHAR 002D
ENCODING 45
SWIDTH 300 0
DWIDTH 5 0
BBX 3 1 1 4
BITMAP
E0
ENDCHAR
STARTCHAR 002E
ENCODING 46
SWIDTH 240 0
DWIDTH 4 0
BBX 1 1 1 0
BITMAP
80
ENDCHAR
STARTCHAR 002F
ENCODING 47
SWIDTH 360 0
DWIDTH 6 0
BBX 6 16 0 -3
BITMAP
04
08
08
08
10
10
10
20
20
20
40
40
80
80
80
80
ENDCHAR
STARTCHAR 0030
ENCODING 48
SWIDTH 540 0
DWIDTH 9 0
BBX 7 12 1 0
BITMAP
38
44
82
82
82
82
82
82
82
82
44
3C
ENDCHAR
STARTCHAR 0031
ENCODING 49
SWIDTH 540 0
DWIDTH 9 0
BBX 4 12 2 0
BITMAP
10
30
50
90
10
10
10
10
10
10
10
10
ENDCHAR
STARTCHAR 0032
ENCODING 50
SWIDTH 540 0
DWIDTH 9 0
BBX 7 12 1 0
BITMAP
38
C4
04
04
04
04
08
10
20
40
80
7E
ENDCHAR
STARTCHAR 0033
ENCODING 51
SWIDTH 540 0
DWIDTH 9 0
BBX 7 12 1 0
BITMAP
38
44
04
04
04
08
14
02
02
02
02
FC
ENDCHAR
STARTCHAR 0034
ENCODING 52
SWIDTH 540 0
DWIDTH 9 0
BBX 7 12 1 0
BITMAP
04
0C
14
24
24
44
84
84
FE
04
04
04
ENDCHAR
STARTCHAR 0035
ENCODING 53
SWIDTH 540 0
DWIDTH 9 0
BBX 7 12 1 0
BITMAP
3E
40
40
40
40
70
0C
02
02
02
02
FC
ENDCHAR
STARTCHAR 0036
ENCODING 54
SWIDTH 540 0
DWIDTH 9 0
BBX 6 12 2 0
BITMAP
04
38
40
80
80
F8
84
84
84
84
84
78
ENDCHAR
STARTCHAR 0037
ENCODING 55
SWIDTH 540 0
DWIDTH 9 0
BBX 7 12 1 0
BITMAP
FE
02
04
08
08
10
10
10
20
20
20
20
ENDCHAR
STARTCHAR 0038
ENCODING 56
SWIDTH 540 0
DWIDTH 9 0
BBX 7 12 1 0
BITMAP
38
44
82
82
42
24
58
86
82
82
82
7C
ENDCHAR
STARTCHAR 0039
ENCODING 57
SWIDTH 540 0
DWIDTH 9 0
BBX 7 12 1 0
BITMAP
38
44
82
82
82
82
46
3A
04
04
08
70
ENDCHAR
STARTCHAR 003A
ENCODING 58
SWIDTH 240 0
DWIDTH 4 0
BBX 1 8 1 0
BITMAP
80
00
00
00
00
00
00
80
ENDCHAR
STARTCHAR 003B
ENCODING 59
SWIDTH 240 0
DWIDTH 4 0
BBX 1 10 1 -2
BITMAP
80
00
00
00
00
00
00
80
80
80
ENDCHAR
STARTCHAR 003C
ENCODING 60
SWIDTH 540 0
DWIDTH 9 0
BBX 7 7 1 1
BITMAP
02
1C
60
80
70
0C
02
ENDCHAR
STARTCHAR 003D
ENCODING 61
SWIDTH 540 0
DWIDTH 9 0
BBX 7 4 1 3
BITMAP
FE
00
00
FE
ENDCHAR
STARTCHAR 003E
ENCODING 62
SWIDTH 540 0
DWIDTH 9 0
BBX 7 7 1 1
BITMAP
C0
30
0C
02
0C
70
80
ENDCHAR
STARTCHAR 003F
ENCODING 63
SWIDTH 360 0
DWIDTH 6 0
BBX 4 12 1 0
BITMAP
E0
10
10
10
10
20
40
40
40
00
00
40
ENDCHAR
STARTCHAR 0040
ENCODING 64
SWIDTH 960 0
DWIDTH 16 0
BBX 13 14 1 -2
BITMAP
0780
1860
2010
4010
8788
8888
9088
9088
8888
8888
47F0
4000
2000
1F80
ENDCHAR
STARTCHAR 0041
ENCODING 65
SWIDTH 600 0
DWIDTH 10 0
BBX 10 11 0 1
BITMAP
0C00
0C00
1200
1200
2100
2100
2100
3F80
4080
8080
8040
ENDCHAR
STARTCHAR 0042
ENCODING 66
SWIDTH 600 0
DWIDTH 10 0
BBX 7 12 2 0
BITMAP
F0
8C
82
82
82
84
FC
82
82
82
82
FC
ENDCHAR
STARTCHAR 0043
ENCODING 67
SWIDTH 600 0
DWIDTH 10 0
BBX 8 12 1 0
BITMAP
0E
31
40
80
80
80
80
80
80
40
40
3F
ENDCHAR
STARTCHAR 0044
ENCODING 68
SWIDTH 720 0
DWIDTH 12 0
BBX 8 12 2 0
BITMAP
F0
8C
82
81
81
81
81
81
81
81
82
FC
ENDCHAR
STARTCHAR 0045
ENCODING 69
SWIDTH 540 0
DWIDTH 9 0
BBX 6 12 2 0
BITMAP
FC
80
80
80
80
80
F8
80
80
80
80
FC
ENDCHAR
STARTCHAR 0046
ENCODING 70
SWIDTH 480 0
DWIDTH 8 0
BBX 6 12 2 0
BITMAP
FC
80
80
80
80
80
F8
80
80
80
80
80
ENDCHAR
STARTCHAR 0047
ENCODING 71
SWIDTH 660 0
DWIDTH 11 0
BBX 9 12 1 0
BITMAP
0E00
3100
4000
8000
8000
8000
8000
8080
8080
4080
4080
3F80
ENDCHAR
STARTCHAR 0048
ENCODING 72
SWIDTH 660 0
DWIDTH 11 0
BBX 8 12 2 0
BITMAP
01
81
81
81
81
81
FF
81
81
81
81
81
ENDCHAR
STARTCHAR 0049
ENCODING 73
SWIDTH 240 0
DWIDTH 4 0
BBX 1 11 1 1
BITMAP
80
80
80
80
80
80
80
80
80
80
80
ENDCHAR
STARTCHAR 004A
ENCODING 74
SWIDTH 480 0
DWIDTH 8 0
BBX 6 11 0 1
BITMAP
04
04
04
04
04
04
04
04
04
04
F8
ENDCHAR
STARTCHAR 004B
ENCODING 75
SWIDTH 540 0
DWIDTH 9 0
BBX 7 12 2 0
BITMAP
02
84
88
90
A0
C0
C0
A0
90
88
84
82
ENDCHAR
STARTCHAR 004C
ENCODING 76
SWIDTH 480 0
DWIDTH 8 0
BBX 6 11 2 1
BITMAP
80
80
80
80
80
80
80
80
80
80
FC
ENDCHAR
STARTCHAR 004D
ENCODING 77
SWIDTH 840 0
DWIDTH 14 0
BBX 12 12 1 0
BITMAP
4000
4020
A060
A060
9090
9090
8910
8910
8610
8610
8010
8010
ENDCHAR
STARTCHAR 004E
ENCODING 78
SWIDTH 720 0
DWIDTH 12 0
BBX 8 12 2 0
BITMAP
01
81
C1
A1
A1
91
89
89
85
83
81
81
ENDCHAR
STARTCHAR 004F
ENCODING 79
SWIDTH 780 0
DWIDTH 13 0
BBX 11 12 1 0
BITMAP
0E00
3180
4040
8040
8040
8020
8020
8040
8040
4040
4080
3F00
ENDCHAR
STARTCHAR 0050
ENCODING 80
SWIDTH 600 0
DWIDTH 10 0
BBX 7 12 2 0
BITMAP
F0
8C
82
82
82
82
8C
F0
80
80
80
80
ENDCHAR
STARTCHAR 0051
ENCODING 81
SWIDTH 780 0
DWIDTH 13 0
BBX 11 15 1 -3
BITMAP
0E00
3180
4040
8040
8040
8020
8020
8040
8040
4040
4080
3300
0C00
0200
01C0
ENDCHAR
STARTCHAR 0052
ENCODING 82
SWIDTH 600 0
DWIDTH 10 0
BBX 7 12 2 0
BITMAP
F0
8C
82
82
82
84
88
F8
88
84
82
82
ENDCHAR
STARTCHAR 0053
ENCODING 83
SWIDTH 480 0
DWIDTH 8 0
BBX 7 12 1 0
BITMAP
38
C4
80
80
80
60
18
04
02
02
04
F8
ENDCHAR
STARTCHAR 0054
ENCODING 84
SWIDTH 540 0
DWIDTH 9 0
BBX 9 12 0 0
BITMAP
FF80
0800
0800
0800
0800
0800
0800
0800
0800
0800
0800
0800
ENDCHAR
STARTCHAR 0055
ENCODING 85
SWIDTH 660 0
DWIDTH 11 0
BBX 8 12 2 0
BITMAP
01
81
81
81
81
81
81
81
81
82
82
7C
ENDCHAR
STARTCHAR 0056
ENCODING 86
SWIDTH 600 0
DWIDTH 10 0
BBX 10 12 0 0
BITMAP
8040
8040
4080
4080
4100
2100
2100
2200
1200
1200
0C00
0400
ENDCHAR
STARTCHAR 0057
ENCODING 87
SWIDTH 900 0
DWIDTH 15 0
BBX 13 11 1 1
BITMAP
8008
8208
8608
8508
8510
8910
4890
4890
50A0
3060
2020
ENDCHAR
STARTCHAR 0058
ENCODING 88
SWIDTH 600 0
DWIDTH 10 0
BBX 9 12 0 0
BITMAP
0080
4100
2200
2200
1400
0800
0800
1400
2200
2100
4100
8080
ENDCHAR
STARTCHAR 0059
ENCODING 89
SWIDTH 540 0
DWIDTH 9 0
BBX 9 12 0 0
BITMAP
8080
8100
4100
4200
2200
1400
1800
0800
0800
0800
0800
0800
ENDCHAR
STARTCHAR 005A
ENCODING 90
SWIDTH 540 0
DWIDTH 9 0
BBX 7 12 1 0
BITMAP
FE
02
04
08
08
10
20
20
40
80
80
FE
ENDCHAR
STARTCHAR 005B
ENCODING 91
SWIDTH 300 0
DWIDTH 5 0
BBX 2 16 2 -3
BITMAP
C0
80
80
80
80
80
80
80
80
80
80
80
80
80
80
C0
ENDCHAR
STARTCHAR 005C
ENCODING 92
SWIDTH 360 0
DWIDTH 6 0
BBX 6 16 0 -3
BITMAP
80
80
80
80
40
40
20
20
20
10
10
10
08
08
08
04
ENDCHAR
STARTCHAR 005D
ENCODING 93
SWIDTH 300 0
DWIDTH 5 0
BBX 2 16 1 -3
BITMAP
C0
40
40
40
40
40
40
40
40
40
40
40
40
40
40
C0
ENDCHAR
STARTCHAR 005E
ENCODING 94
SWIDTH 540 0
DWIDTH 9 0
BBX 7 5 1 6
BITMAP
30
28
44
44
82
ENDCHAR
STARTCHAR 005F
ENCODING 95
SWIDTH 480 0
DWIDTH 8 0
BBX 8 1 0 -3
BITMAP
FF
ENDCHAR
STARTCHAR 0060
ENCODING 96
SWIDTH 360 0
DWIDTH 6 0
BBX 2 2 2 11
BITMAP
80
40
ENDCHAR
STARTCHAR 0061
ENCODING 97
SWIDTH 480 0
DWIDTH 8 0
BBX 6 9 1 0
BITMAP
70
0C
04
04
7C
84
84
84
7C
ENDCHAR
STARTCHAR 0062
ENCODING 98
SWIDTH 540 0
DWIDTH 9 0
BBX 7 13 1 0
BITMAP
80
80
80
80
B8
C4
82
82
82
82
82
82
FC
ENDCHAR
STARTCHAR 0063
ENCODING 99
SWIDTH 480 0
DWIDTH 8 0
BBX 6 9 1 0
BITMAP
38
40
80
80
80
80
80
80
7C
ENDCHAR
STARTCHAR 0064
ENCODING 100
SWIDTH 540 0
DWIDTH 9 0
BBX 7 13 1 0
BITMAP
02
02
02
02
3A
46
82
82
82
82
82
82
7E
ENDCHAR
STARTCHAR 0065
ENCODING 101
SWIDTH 540 0
DWIDTH 9 0
BBX 7 9 1 0
BITMAP
38
44
82
82
FE
80
80
80
7C
ENDCHAR
STARTCHAR 0066
ENCODING 102
SWIDTH 360 0
DWIDTH 6 0
BBX 5 13 1 0
BITMAP
38
C0
80
80
F8
80
80
80
80
80
80
80
80
ENDCHAR
STARTCHAR 0067
ENCODING 103
SWIDTH 540 0
DWIDTH 9 0
BBX 7 12 1 -3
BITMAP
1C
62
82
82
82
82
82
42
3E
02
04
7C
ENDCHAR
STARTCHAR 0068
ENCODING 104
SWIDTH 540 0
DWIDTH 9 0
BBX 7 13 1 0
BITMAP
80
80
80
80
B8
C4
82
82
82
82
82
82
82
ENDCHAR
STARTCHAR 0069
ENCODING 105
SWIDTH 240 0
DWIDTH 4 0
BBX 1 12 1 0
BITMAP
80
00
00
00
80
80
80
80
80
80
80
80
ENDCHAR
STARTCHAR 006A
ENCODING 106
SWIDTH 240 0
DWIDTH 4 0
BBX 3 15 -1 -3
BITMAP
20
00
00
00
20
20
20
20
20
20
20
20
20
20
C0
ENDCHAR
STARTCHAR 006B
ENCODING 107
SWIDTH 480 0
DWIDTH 8 0
BBX 6 13 1 0
BITMAP
80
80
80
80
84
88
90
A0
C0
A0
90
88
84
ENDCHAR
STARTCHAR 006C
ENCODING 108
SWIDTH 240 0
DWIDTH 4 0
BBX 2 13 1 0
BITMAP
80
80
80
80
80
80
80
80
80
80
80
80
40
ENDCHAR
STARTCHAR 006D
ENCODING 109
SWIDTH 840 0
DWIDTH 14 0
BBX 12 9 1 0
BITMAP
79C0
8620
8420
8410
8410
8410
8410
8410
8410
ENDCHAR
STARTCHAR 006E
ENCODING 110
SWIDTH 540 0
DWIDTH 9 0
BBX 7 9 1 0
BITMAP
38
C4
82
82
82
82
82
82
82
ENDCHAR
STARTCHAR 006F
ENCODING 111
SWIDTH 600 0
DWIDTH 10 0
BBX 8 9 1 0
BITMAP
38
46
82
82
81
81
82
82
7C
ENDCHAR
STARTCHAR 0070
ENCODING 112
SWIDTH 540 0
DWIDTH 9 0
BBX 7 12 1 -3
BITMAP
78
84
82
82
82
82
82
82
EC
90
80
80
ENDCHAR
STARTCHAR 0071
ENCODING 113
SWIDTH 540 0
DWIDTH 9 0
BBX 7 12 1 -3
BITMAP
1C
62
82
82
82
82
82
82
66
1A
02
02
ENDCHAR
STARTCHAR 0072
ENCODING 114
SWIDTH 360 0
DWIDTH 6 0
BBX 5 9 1 0
BITMAP
78
80
80
80
80
80
80
80
80
ENDCHAR
STARTCHAR 0073
ENCODING 115
SWIDTH 420 0
DWIDTH 7 0
BBX 5 9 1 0
BITMAP
70
80
80
80
60
18
08
08
F0
ENDCHAR
STARTCHAR 0074
ENCODING 116
SWIDTH 360 0
DWIDTH 6 0
BBX 5 11 1 0
BITMAP
80
80
F8
80
80
80
80
80
80
80
78
ENDCHAR
STARTCHAR 0075
ENCODING 117
SWIDTH 540 0
DWIDTH 9 0
BBX 7 9 1 0
BITMAP
82
82
82
82
82
82
82
82
7E
ENDCHAR
STARTCHAR 0076
ENCODING 118
SWIDTH 480 0
DWIDTH 8 0
BBX 7 9 0 0
BITMAP
80
82
42
44
44
24
28
28
10
ENDCHAR
STARTCHAR 0077
ENCODING 119
SWIDTH 780 0
DWIDTH 13 0
BBX 12 9 0 0
BITMAP
8200
8210
4610
4610
4520
4920
2920
28C0
1040
ENDCHAR
STARTCHAR 0078
ENCODING 120
SWIDTH 480 0
DWIDTH 8 0
BBX 6 9 1 0
BITMAP
04
88
48
30
20
50
48
88
84
ENDCHAR
STARTCHAR 0079
ENCODING 121
SWIDTH 420 0
DWIDTH 7 0
BBX 7 12 0 -3
BITMAP
82
82
42
44
44
24
28
28
18
10
10
60
ENDCHAR
STARTCHAR 007A
ENCODING 122
SWIDTH 420 0
DWIDTH 7 0
BBX 6 9 1 0
BITMAP
F8
08
10
20
20
40
80
80
FC
ENDCHAR
STARTCHAR 007B
ENCODING 123
SWIDTH 300 0
DWIDTH 5 0
BBX 4 16 1 -3
BITMAP
30
40
40
40
40
40
40
40
80
40
40
40
40
40
40
20
ENDCHAR
STARTCHAR 007C
ENCODING 124
SWIDTH 240 0
DWIDTH 4 0
BBX 1 16 2 -3
BITMAP
80
80
80
80
80
80
80
80
80
80
80
80
80
80
80
80
ENDCHAR
STARTCHAR 007D
ENCODING 125
SWIDTH 300 0
DWIDTH 5 0
BBX 4 16 0 -3
BITMAP
C0
40
20
20
20
20
20
20
10
20
20
20
20
20
20
40
ENDCHAR
STARTCHAR 007E
ENCODING 126
SWIDTH 540 0
DWIDTH 9 0
BBX 7 2 1 4
BITMAP
60
9E
ENDCHAR
STARTCHAR 00A0
ENCODING 160
SWIDTH 240 0
DWIDTH 4 0
BBX 0 0 0 0
BITMAP
ENDCHAR
STARTCHAR 00A1
ENCODING 161
SWIDTH 300 0
DWIDTH 5 0
BBX 1 12 2 -3
BITMAP
80
80
00
00
00
80
80
80
80
80
80
80
ENDCHAR
STARTCHAR 00A2
ENCODING 162
SWIDTH 540 0
DWIDTH 9 0
BBX 6 14 2 -2
BITMAP
10
10
10
6C
80
80
80
80
80
80
40
3C
10
10
ENDCHAR
STARTCHAR 00A3
ENCODING 163
SWIDTH 540 0
DWIDTH 9 0
BBX 8 12 1 0
BITMAP
0E
30
20
20
20
20
FC
20
40
40
40
3F
ENDCHAR
STARTCHAR 00A4
ENCODING 164
SWIDTH 540 0
DWIDTH 9 0
BBX 7 7 1 3
BITMAP
BA
44
82
82
44
64
9A
ENDCHAR
STARTCHAR 00A5
ENCODING 165
SWIDTH 540 0
DWIDTH 9 0
BBX 8 12 1 0
BITMAP
01
82
82
44
28
28
10
7C
10
7E
10
10
ENDCHAR
STARTCHAR 00A6
ENCODING 166
SWIDTH 240 0
DWIDTH 4 0
BBX 1 16 2 -3
BITMAP
80
80
80
80
80
80
00
00
00
00
80
80
80
80
80
80
ENDCHAR
STARTCHAR 00A7
ENCODING 167
SWIDTH 480 0
DWIDTH 8 0
BBX 6 14 1 -2
BITMAP
38
C0
80
40
70
8C
84
84
44
38
08
04
08
F0
ENDCHAR
STARTCHAR 00A8
ENCODING 168
SWIDTH 360 0
DWIDTH 6 0
BBX 4 1 1 11
BITMAP
90
ENDCHAR
STARTCHAR 00A9
ENCODING 169
SWIDTH 840 0
DWIDTH 14 0
BBX 12 12 1 0
BITMAP
0F00
30C0
4040
4F20
9020
9010
9010
9020
8820
4720
2040
1F80
ENDCHAR
STARTCHAR 00AA
ENCODING 170
SWIDTH 360 0
DWIDTH 6 0
BBX 4 6 1 6
BITMAP
60
10
10
F0
90
F0
ENDCHAR
STARTCHAR 00AB
ENCODING 171
SWIDTH 420 0
DWIDTH 7 0
BBX 5 6 1 1
BITMAP
48
50
90
A0
90
48
ENDCHAR
STARTCHAR 00AC
ENCODING 172
SWIDTH 540 0
DWIDTH 9 0
BBX 7 5 1 1
BITMAP
FE
02
02
02
02
ENDCHAR
STARTCHAR 00AD
ENCODING 173
SWIDTH 300 0
DWIDTH 5 0
BBX 3 1 1 4
BITMAP
E0
ENDCHAR
STARTCHAR 00AE
ENCODING 174
SWIDTH 840 0
DWIDTH 14 0
BBX 12 12 1 0
BITMAP
0F00
30C0
4040
4F20
9120
9110
8E10
9220
9120
40A0
2040
1F80
ENDCHAR
STARTCHAR 00AF
ENCODING 175
SWIDTH 360 0
DWIDTH 6 0
BBX 4 1 1 11
BITMAP
F0
ENDCHAR
STARTCHAR 00B0
ENCODING 176
SWIDTH 300 0
DWIDTH 5 0
BBX 3 4 1 9
BITMAP
E0
A0
A0
E0
ENDCHAR
STARTCHAR 00B1
ENCODING 177
SWIDTH 540 0
DWIDTH 9 0
BBX 7 10 1 0
BITMAP
10
10
10
10
FE
10
10
10
00
FE
ENDCHAR
STARTCHAR 00B2
ENCODING 178
SWIDTH 360 0
DWIDTH 6 0
BBX 4 7 1 5
BITMAP
60
90
20
20
40
80
F0
ENDCHAR
STARTCHAR 00B3
ENCODING 179
SWIDTH 360 0
DWIDTH 6 0
BBX 4 7 1 5
BITMAP
E0
20
20
60
10
10
E0
ENDCHAR
STARTCHAR 00B4
ENCODING 180
SWIDTH 360 0
DWIDTH 6 0
BBX 3 3 2 10
BITMAP
20
40
80
ENDCHAR
STARTCHAR 00B5
ENCODING 181
SWIDTH 540 0
DWIDTH 9 0
BBX 6 12 2 -3
BITMAP
04
84
84
84
84
84
84
84
CC
B0
80
80
ENDCHAR
STARTCHAR 00B6
ENCODING 182
SWIDTH 600 0
DWIDTH 10 0
BBX 7 15 1 -3
BITMAP
0E
7A
FA
FA
FA
FA
7A
1A
0A
0A
0A
0A
0A
0A
0A
ENDCHAR
STARTCHAR 00B7
ENCODING 183
SWIDTH 240 0
DWIDTH 4 0
BBX 1 1 1 4
BITMAP
80
ENDCHAR
STARTCHAR 00B8
ENCODING 184
SWIDTH 360 0
DWIDTH 6 0
BBX 2 3 2 -3
BITMAP
80
40
40
ENDCHAR
STARTCHAR 00B9
ENCODING 185
SWIDTH 360 0
DWIDTH 6 0
BBX 2 7 2 5
BITMAP
40
C0
40
40
40
40
40
ENDCHAR
STARTCHAR 00BA
ENCODING 186
SWIDTH 420 0
DWIDTH 7 0
BBX 5 6 1 6
BITMAP
30
C8
88
88
88
F8
ENDCHAR
STARTCHAR 00BB
ENCODING 187
SWIDTH 420 0
DWIDTH 7 0
BBX 5 6 1 1
BITMAP
A0
90
48
48
50
90
ENDCHAR
STARTCHAR 00BC
ENCODING 188
SWIDTH 900 0
DWIDTH 15 0
BBX 11 12 2 0
BITMAP
4080
C100
4100
4200
4200
4400
4820
08E0
10A0
1120
20E0
2020
ENDCHAR
STARTCHAR 00BD
ENCODING 189
SWIDTH 900 0
DWIDTH 15 0
BBX 11 12 2 0
BITMAP
4080
C100
4200
4200
4400
4400
48E0
0820
1020
2040
2080
41C0
ENDCHAR
STARTCHAR 00BE
ENCODING 190
SWIDTH 900 0
DWIDTH 15 0
BBX 12 12 1 0
BITMAP
E000
2040
2080
6100
1100
1200
E210
0430
0450
0890
1070
1010
ENDCHAR
STARTCHAR 00BF
ENCODING 191
SWIDTH 360 0
DWIDTH 6 0
BBX 6 12 0 -3
BITMAP
10
10
00
10
10
10
20
40
80
80
80
7C
ENDCHAR
STARTCHAR 00C0
ENCODING 192
SWIDTH 600 0
DWIDTH 10 0
BBX 10 15 0 0
BITMAP
1000
0800
0000
0000
0C00
0C00
1200
1200
2100
2100
2100
3F80
4080
8080
8040
ENDCHAR
STARTCHAR 00C1
ENCODING 193
SWIDTH 600 0
DWIDTH 10 0
BBX 10 15 0 0
BITMAP
0200
0400
0000
0000
0C00
0C00
1200
1200
2100
2100
2100
3F80
4080
8080
8040
ENDCHAR
STARTCHAR 00C2
ENCODING 194
SWIDTH 600 0
DWIDTH 10 0
BBX 10 15 0 0
BITMAP
0400
1A00
0000
0000
0C00
0C00
1200
1200
2100
2100
2100
3F80
4080
8080
8040
ENDCHAR
STARTCHAR 00C3
ENCODING 195
SWIDTH 600 0
DWIDTH 10 0
BBX 10 14 0 1
BITMAP
1E00
0000
0000
0C00
0C00
1200
1200
2100
2100
2100
3F80
4080
8080
8040
ENDCHAR
STARTCHAR 00C4
ENCODING 196
SWIDTH 600 0
DWIDTH 10 0
BBX 10 14 0 0
BITMAP
1200
0000
0000
0C00
0C00
1200
1200
2100
2100
2100
3F80
4080
8080
8040
ENDCHAR
STARTCHAR 00C5
ENCODING 197
SWIDTH 600 0
DWIDTH 10 0
BBX 10 14 0 0
BITMAP
0C00
1200
0C00
0C00
0C00
1200
1200
2100
2100
2100
3F80
4080
8080
8040
ENDCHAR
STARTCHAR 00C6
ENCODING 198
SWIDTH 900 0
DWIDTH 15 0
BBX 14 12 0 0
BITMAP
01FC
0300
0300
0500
0900
0900
11F8
2100
3F00
4100
4100
80FC
ENDCHAR
STARTCHAR 00C7
ENCODING 199
SWIDTH 600 0
DWIDTH 10 0
BBX 8 15 1 -3
BITMAP
0E
31
40
80
80
80
80
80
80
40
40
31
0E
04
1C
ENDCHAR
STARTCHAR 00C8
ENCODING 200
SWIDTH 540 0
DWIDTH 9 0
BBX 6 15 2 0
BITMAP
40
20
00
FC
80
80
80
80
80
F8
80
80
80
80
FC
ENDCHAR
STARTCHAR 00C9
ENCODING 201
SWIDTH 540 0
DWIDTH 9 0
BBX 6 15 2 0
BITMAP
10
20
00
FC
80
80
80
80
80
F8
80
80
80
80
FC
ENDCHAR
STARTCHAR 00CA
ENCODING 202
SWIDTH 540 0
DWIDTH 9 0
BBX 6 15 2 0
BITMAP
20
50
00
FC
80
80
80
80
80
F8
80
80
80
80
FC
ENDCHAR
STARTCHAR 00CB
ENCODING 203
SWIDTH 540 0
DWIDTH 9 0
BBX 6 14 2 0
BITMAP
48
00
FC
80
80
80
80
80
F8
80
80
80
80
FC
ENDCHAR
STARTCHAR 00CC
ENCODING 204
SWIDTH 240 0
DWIDTH 4 0
BBX 2 15 0 0
BITMAP
80
40
00
00
40
40
40
40
40
40
40
40
40
40
40
ENDCHAR
STARTCHAR 00CD
ENCODING 205
SWIDTH 240 0
DWIDTH 4 0
BBX 3 15 1 0
BITMAP
60
80
00
00
80
80
80
80
80
80
80
80
80
80
80
ENDCHAR
STARTCHAR 00CE
ENCODING 206
SWIDTH 240 0
DWIDTH 4 0
BBX 3 15 0 0
BITMAP
40
A0
00
00
40
40
40
40
40
40
40
40
40
40
40
ENDCHAR
STARTCHAR 00CF
ENCODING 207
SWIDTH 240 0
DWIDTH 4 0
BBX 4 14 0 0
BITMAP
90
00
00
40
40
40
40
40
40
40
40
40
40
40
ENDCHAR
STARTCHAR 00D0
ENCODING 208
SWIDTH 720 0
DWIDTH 12 0
BBX 9 12 1 0
BITMAP
7800
8600
8100
8080
8080
8080
E080
8080
8080
8080
8100
7E00
ENDCHAR
STARTCHAR 00D1
ENCODING 209
SWIDTH 720 0
DWIDTH 12 0
BBX 8 14 2 1
BITMAP
7C
00
01
81
C1
A1
A1
91
89
89
85
83
81
81
ENDCHAR
STARTCHAR 00D2
ENCODING 210
SWIDTH 780 0
DWIDTH 13 0
BBX 11 15 1 0
BITMAP
0800
0400
0000
0E00
3180
4040
8040
8040
8020
8020
8040
8040
4040
4080
3F00
ENDCHAR
STARTCHAR 00D3
ENCODING 211
SWIDTH 780 0
DWIDTH 13 0
BBX 11 15 1 0
BITMAP
0200
0400
0000
0E00
3180
4040
8040
8040
8020
8020
8040
8040
4040
4080
3F00
ENDCHAR
STARTCHAR 00D4
ENCODING 212
SWIDTH 780 0
DWIDTH 13 0
BBX 11 15 1 0
BITMAP
0400
0A00
1000
0E00
3180
4040
8040
8040
8020
8020
8040
8040
4040
4080
3F00
ENDCHAR
STARTCHAR 00D5
ENCODING 213
SWIDTH 780 0
DWIDTH 13 0
BBX 11 14 1 1
BITMAP
1E00
0000
0E00
3180
4040
8040
8040
8020
8020
8040
8040
4040
4080
3F00
ENDCHAR
STARTCHAR 00D6
ENCODING 214
SWIDTH 780 0
DWIDTH 13 0
BBX 11 14 1 0
BITMAP
0A00
0000
0E00
3180
4040
8040
8040
8020
8020
8040
8040
4040
4080
3F00
ENDCHAR
STARTCHAR 00D7
ENCODING 215
SWIDTH 540 0
DWIDTH 9 0
BBX 6 6 2 2
BITMAP
04
88
50
20
50
88
ENDCHAR
STARTCHAR 00D8
ENCODING 216
SWIDTH 780 0
DWIDTH 13 0
BBX 11 13 1 -1
BITMAP
0E40
3180
40C0
8140
8240
8420
8420
8840
9040
6040
6080
5300
0C00
ENDCHAR
STARTCHAR 00D9
ENCODING 217
SWIDTH 660 0
DWIDTH 11 0
BBX 8 15 2 0
BITMAP
20
10
00
01
81
81
81
81
81
81
81
81
82
82
7C
ENDCHAR
STARTCHAR 00DA
ENCODING 218
SWIDTH 660 0
DWIDTH 11 0
BBX 8 15 2 0
BITMAP
08
10
00
01
81
81
81
81
81
81
81
81
82
82
7C
ENDCHAR
STARTCHAR 00DB
ENCODING 219
SWIDTH 660 0
DWIDTH 11 0
BBX 8 15 2 0
BITMAP
10
28
00
01
81
81
81
81
81
81
81
81
82
82
7C
ENDCHAR
STARTCHAR 00DC
ENCODING 220
SWIDTH 660 0
DWIDTH 11 0
BBX 8 14 2 0
BITMAP
28
00
01
81
81
81
81
81
81
81
81
82
82
7C
ENDCHAR
STARTCHAR 00DD
ENCODING 221
SWIDTH 540 0
DWIDTH 9 0
BBX 9 15 0 0
BITMAP
0400
0800
0000
8080
8100
4100
4200
2200
1400
1800
0800
0800
0800
0800
0800
ENDCHAR
STARTCHAR 00DE
ENCODING 222
SWIDTH 600 0
DWIDTH 10 0
BBX 8 12 1 0
BITMAP
80
80
80
FE
81
81
81
81
82
FC
80
80
ENDCHAR
STARTCHAR 00DF
ENCODING 223
SWIDTH 540 0
DWIDTH 9 0
BBX 7 13 2 0
BITMAP
70
88
88
88
88
90
A0
90
8C
82
82
82
BC
ENDCHAR
STARTCHAR 00E0
ENCODING 224
SWIDTH 480 0
DWIDTH 8 0
BBX 6 12 1 1
BITMAP
20
18
00
70
0C
04
04
7C
84
84
84
7C
ENDCHAR
STARTCHAR 00E1
ENCODING 225
SWIDTH 480 0
DWIDTH 8 0
BBX 6 12 1 1
BITMAP
18
20
00
70
0C
04
04
7C
84
84
84
7C
ENDCHAR
STARTCHAR 00E2
ENCODING 226
SWIDTH 480 0
DWIDTH 8 0
BBX 6 12 1 1
BITMAP
30
48
00
70
0C
04
04
7C
84
84
84
7C
ENDCHAR
STARTCHAR 00E3
ENCODING 227
SWIDTH 480 0
DWIDTH 8 0
BBX 6 12 1 0
BITMAP
64
18
00
70
0C
04
04
7C
84
84
84
7C
ENDCHAR
STARTCHAR 00E4
ENCODING 228
SWIDTH 480 0
DWIDTH 8 0
BBX 6 12 1 0
BITMAP
08
00
00
70
0C
04
04
7C
84
84
84
7C
ENDCHAR
STARTCHAR 00E5
ENCODING 229
SWIDTH 480 0
DWIDTH 8 0
BBX 6 13 1 0
BITMAP
10
68
28
10
70
0C
04
04
7C
84
84
84
7C
ENDCHAR
STARTCHAR 00E6
ENCODING 230
SWIDTH 840 0
DWIDTH 14 0
BBX 12 9 1 0
BITMAP
70C0
0B20
0410
0410
7FF0
8400
8400
8200
7DF0
ENDCHAR
STARTCHAR 00E7
ENCODING 231
SWIDTH 480 0
DWIDTH 8 0
BBX 6 12 1 -3
BITMAP
38
40
80
80
80
80
80
80
64
18
08
10
ENDCHAR
STARTCHAR 00E8
ENCODING 232
SWIDTH 540 0
DWIDTH 9 0
BBX 7 12 1 1
BITMAP
20
10
00
38
44
82
82
FE
80
80
80
7C
ENDCHAR
STARTCHAR 00E9
ENCODING 233
SWIDTH 540 0
DWIDTH 9 0
BBX 7 13 1 0
BITMAP
04
08
10
00
38
44
82
82
FE
80
80
80
7C
ENDCHAR
STARTCHAR 00EA
ENCODING 234
SWIDTH 540 0
DWIDTH 9 0
BBX 7 12 1 1
BITMAP
38
48
00
38
44
82
82
FE
80
80
80
7C
ENDCHAR
STARTCHAR 00EB
ENCODING 235
SWIDTH 540 0
DWIDTH 9 0
BBX 7 12 1 0
BITMAP
28
00
00
38
44
82
82
FE
80
80
80
7C
ENDCHAR
STARTCHAR 00EC
ENCODING 236
SWIDTH 240 0
DWIDTH 4 0
BBX 3 13 0 0
BITMAP
80
40
20
00
00
40
40
40
40
40
40
40
40
ENDCHAR
STARTCHAR 00ED
ENCODING 237
SWIDTH 240 0
DWIDTH 4 0
BBX 3 13 1 0
BITMAP
20
40
80
00
00
80
80
80
80
80
80
80
80
ENDCHAR
STARTCHAR 00EE
ENCODING 238
SWIDTH 240 0
DWIDTH 4 0
BBX 4 12 0 1
BITMAP
60
90
00
00
40
40
40
40
40
40
40
40
ENDCHAR
STARTCHAR 00EF
ENCODING 239
SWIDTH 240 0
DWIDTH 4 0
BBX 4 12 0 0
BITMAP
90
00
00
00
40
40
40
40
40
40
40
40
ENDCHAR
STARTCHAR 00F0
ENCODING 240
SWIDTH 540 0
DWIDTH 9 0
BBX 8 13 1 0
BITMAP
10
0B
0C
12
02
3E
C2
82
82
82
82
84
7C
ENDCHAR
STARTCHAR 00F1
ENCODING 241
SWIDTH 540 0
DWIDTH 9 0
BBX 7 12 1 0
BITMAP
30
0C
00
38
C4
82
82
82
82
82
82
82
ENDCHAR
STARTCHAR 00F2
ENCODING 242
SWIDTH 600 0
DWIDTH 10 0
BBX 8 13 1 0
BITMAP
20
10
08
00
38
46
82
82
81
81
82
82
7C
ENDCHAR
STARTCHAR 00F3
ENCODING 243
SWIDTH 600 0
DWIDTH 10 0
BBX 8 13 1 0
BITMAP
04
08
10
00
38
46
82
82
81
81
82
82
7C
ENDCHAR
STARTCHAR 00F4
ENCODING 244
SWIDTH 600 0
DWIDTH 10 0
BBX 8 12 1 1
BITMAP
18
24
00
38
46
82
82
81
81
82
82
7C
ENDCHAR
STARTCHAR 00F5
ENCODING 245
SWIDTH 600 0
DWIDTH 10 0
BBX 8 12 1 0
BITMAP
30
0C
00
38
46
82
82
81
81
82
82
7C
ENDCHAR
STARTCHAR 00F6
ENCODING 246
SWIDTH 600 0
DWIDTH 10 0
BBX 8 12 1 0
BITMAP
20
00
00
38
46
82
82
81
81
82
82
7C
ENDCHAR
STARTCHAR 00F7
ENCODING 247
SWIDTH 540 0
DWIDTH 9 0
BBX 7 7 1 1
BITMAP
10
00
00
FE
00
00
10
ENDCHAR
STARTCHAR 00F8
ENCODING 248
SWIDTH 600 0
DWIDTH 10 0
BBX 8 10 1 -1
BITMAP
38
46
86
8A
91
91
A2
42
A4
18
ENDCHAR
STARTCHAR 00F9
ENCODING 249
SWIDTH 540 0
DWIDTH 9 0
BBX 7 13 1 0
BITMAP
40
20
10
00
82
82
82
82
82
82
82
82
7E
ENDCHAR
STARTCHAR 00FA
ENCODING 250
SWIDTH 540 0
DWIDTH 9 0
BBX 7 13 1 0
BITMAP
04
08
10
00
82
82
82
82
82
82
82
82
7E
ENDCHAR
STARTCHAR 00FB
ENCODING 251
SWIDTH 540 0
DWIDTH 9 0
BBX 7 12 1 1
BITMAP
30
48
00
82
82
82
82
82
82
82
82
7E
ENDCHAR
STARTCHAR 00FC
ENCODING 252
SWIDTH 540 0
DWIDTH 9 0
BBX 7 12 1 0
BITMAP
28
00
00
82
82
82
82
82
82
82
82
7E
ENDCHAR
STARTCHAR 00FD
ENCODING 253
SWIDTH 420 0
DWIDTH 7 0
BBX 7 16 0 -3
BITMAP
04
08
10
00
82
82
42
44
44
24
28
28
18
10
10
60
ENDCHAR
STARTCHAR 00FE
ENCODING 254
SWIDTH 540 0
DWIDTH 9 0
BBX 7 16 1 -3
BITMAP
80
80
80
80
B8
C4
82
82
82
82
82
82
EC
90
80
80
ENDCHAR
STARTCHAR 00FF
ENCODING 255
SWIDTH 420 0
DWIDTH 7 0
BBX 7 15 0 -3
BITMAP
24
00
00
82
82
42
44
44
24
28
28
18
10
10
60
ENDCHAR
STARTCHAR 0100
ENCODING 256
SWIDTH 600 0
DWIDTH 10 0
BBX 10 14 0 0
BITMAP
0E00
0000
0000
0C00
0C00
1200
1200
2100
2100
2100
3F80
4080
8080
8040
ENDCHAR
STARTCHAR 0101
ENCODING 257
SWIDTH 480 0
DWIDTH 8 0
BBX 6 12 1 0
BITMAP
78
00
00
70
0C
04
04
7C
84
84
84
7C
ENDCHAR
STARTCHAR 0102
ENCODING 258
SWIDTH 600 0
DWIDTH 10 0
BBX 10 15 0 0
BITMAP
1200
0C00
0000
0000
0C00
0C00
1200
1200
2100
2100
2100
3F80
4080
8080
8040
ENDCHAR
STARTCHAR 0103
ENCODING 259
SWIDTH 480 0
DWIDTH 8 0
BBX 6 12 1 0
BITMAP
48
30
00
70
0C
04
04
7C
84
84
84
7C
ENDCHAR
STARTCHAR 0104
ENCODING 260
SWIDTH 600 0
DWIDTH 10 0
BBX 10 14 0 -2
BITMAP
0C00
0C00
1200
1200
2100
2100
2100
3F80
4080
8080
8040
0080
0080
00C0
ENDCHAR
STARTCHAR 0105
ENCODING 261
SWIDTH 480 0
DWIDTH 8 0
BBX 6 12 1 -3
BITMAP
70
0C
04
04
7C
84
84
84
44
38
10
08
ENDCHAR
STARTCHAR 0106
ENCODING 262
SWIDTH 600 0
DWIDTH 10 0
BBX 8 15 1 0
BITMAP
02
04
00
0E
31
40
80
80
80
80
80
80
40
40
3F
ENDCHAR
STARTCHAR 0107
ENCODING 263
SWIDTH 480 0
DWIDTH 8 0
BBX 6 13 1 0
BITMAP
04
08
10
00
38
40
80
80
80
80
80
80
7C
ENDCHAR
STARTCHAR 0108
ENCODING 264
SWIDTH 600 0
DWIDTH 10 0
BBX 8 15 1 0
BITMAP
0C
14
00
0E
31
40
80
80
80
80
80
80
40
40
3F
ENDCHAR
STARTCHAR 0109
ENCODING 265
SWIDTH 480 0
DWIDTH 8 0
BBX 6 12 1 1
BITMAP
30
48
00
38
40
80
80
80
80
80
80
7C
ENDCHAR
STARTCHAR 010A
ENCODING 266
SWIDTH 600 0
DWIDTH 10 0
BBX 8 14 1 0
BITMAP
0C
00
0E
31
40
80
80
80
80
80
80
40
40
3F
ENDCHAR
STARTCHAR 010B
ENCODING 267
SWIDTH 480 0
DWIDTH 8 0
BBX 6 12 1 0
BITMAP
10
00
00
38
40
80
80
80
80
80
80
7C
ENDCHAR
STARTCHAR 010C
ENCODING 268
SWIDTH 600 0
DWIDTH 10 0
BBX 8 15 1 0
BITMAP
12
0C
00
0E
31
40
80
80
80
80
80
80
40
40
3F
ENDCHAR
STARTCHAR 010D
ENCODING 269
SWIDTH 480 0
DWIDTH 8 0
BBX 6 12 1 1
BITMAP
28
10
00
38
40
80
80
80
80
80
80
7C
ENDCHAR
STARTCHAR 010E
ENCODING 270
SWIDTH 720 0
DWIDTH 12 0
BBX 8 15 2 0
BITMAP
48
30
10
F0
8C
82
81
81
81
81
81
81
81
82
FC
ENDCHAR
STARTCHAR 010F
ENCODING 271
SWIDTH 660 0
DWIDTH 11 0
BBX 9 13 1 0
BITMAP
0200
0280
0280
0200
3A00
4600
8200
8200
8200
8200
8200
8200
7E00
ENDCHAR
STARTCHAR 0110
ENCODING 272
SWIDTH 720 0
DWIDTH 12 0
BBX 9 12 1 0
BITMAP
7800
8600
8100
8080
8080
8080
E080
8080
8080
8080
8100
7E00
ENDCHAR
STARTCHAR 0111
ENCODING 273
SWIDTH 540 0
DWIDTH 9 0
BBX 8 13 1 0
BITMAP
02
02
0F
02
3A
46
82
82
82
82
82
82
7E
ENDCHAR
STARTCHAR 0112
ENCODING 274
SWIDTH 540 0
DWIDTH 9 0
BBX 6 14 2 0
BITMAP
70
00
FC
80
80
80
80
80
F8
80
80
80
80
FC
ENDCHAR
STARTCHAR 0113
ENCODING 275
SWIDTH 540 0
DWIDTH 9 0
BBX 7 12 1 0
BITMAP
3C
00
00
38
44
82
82
FE
80
80
80
7C
ENDCHAR
STARTCHAR 0114
ENCODING 276
SWIDTH 540 0
DWIDTH 9 0
BBX 6 15 2 0
BITMAP
48
30
00
FC
80
80
80
80
80
F8
80
80
80
80
FC
ENDCHAR
STARTCHAR 0115
ENCODING 277
SWIDTH 540 0
DWIDTH 9 0
BBX 7 12 1 0
BITMAP
28
10
00
38
44
82
82
FE
80
80
80
7C
ENDCHAR
STARTCHAR 0116
ENCODING 278
SWIDTH 540 0
DWIDTH 9 0
BBX 6 14 2 0
BITMAP
20
00
FC
80
80
80
80
80
F8
80
80
80
80
FC
ENDCHAR
STARTCHAR 0117
ENCODING 279
SWIDTH 540 0
DWIDTH 9 0
BBX 7 12 1 0
BITMAP
10
00
00
38
44
82
82
FE
80
80
80
7C
ENDCHAR
STARTCHAR 0118
ENCODING 280
SWIDTH 540 0
DWIDTH 9 0
BBX 6 15 2 -3
BITMAP
FC
80
80
80
80
80
F8
80
80
80
80
FC
04
08
0C
ENDCHAR
STARTCHAR 0119
ENCODING 281
SWIDTH 540 0
DWIDTH 9 0
BBX 7 12 1 -3
BITMAP
38
44
82
82
FE
80
80
80
64
18
08
08
ENDCHAR
STARTCHAR 011A
ENCODING 282
SWIDTH 540 0
DWIDTH 9 0
BBX 6 15 2 0
BITMAP
48
30
00
FC
80
80
80
80
80
F8
80
80
80
80
FC
ENDCHAR
STARTCHAR 011B
ENCODING 283
SWIDTH 540 0
DWIDTH 9 0
BBX 7 12 1 1
BITMAP
28
10
00
38
44
82
82
FE
80
80
80
7C
ENDCHAR
STARTCHAR 011C
ENCODING 284
SWIDTH 660 0
DWIDTH 11 0
BBX 9 15 1 0
BITMAP
0C00
1400
0000
0E00
3100
4000
8000
8000
8000
8000
8080
8080
4080
4080
3F80
ENDCHAR
STARTCHAR 011D
ENCODING 285
SWIDTH 540 0
DWIDTH 9 0
BBX 7 15 1 -2
BITMAP
18
24
00
1C
62
82
82
82
82
82
42
3E
02
04
7C
ENDCHAR
STARTCHAR 011E
ENCODING 286
SWIDTH 660 0
DWIDTH 11 0
BBX 9 15 1 0
BITMAP
1200
0C00
0000
0E00
3100
4000
8000
8000
8000
8000
8080
8080
4080
4080
3F80
ENDCHAR
STARTCHAR 011F
ENCODING 287
SWIDTH 540 0
DWIDTH 9 0
BBX 7 15 1 -3
BITMAP
28
10
00
1C
62
82
82
82
82
82
42
3E
02
04
7C
ENDCHAR
STARTCHAR 0120
ENCODING 288
SWIDTH 660 0
DWIDTH 11 0
BBX 9 14 1 0
BITMAP
0C00
0000
0E00
3100
4000
8000
8000
8000
8000
8080
8080
4080
4080
3F80
ENDCHAR
STARTCHAR 0121
ENCODING 289
SWIDTH 540 0
DWIDTH 9 0
BBX 7 15 1 -3
BITMAP
10
00
00
1C
62
82
82
82
82
82
42
3E
02
04
7C
ENDCHAR
STARTCHAR 0122
ENCODING 290
SWIDTH 660 0
DWIDTH 11 0
BBX 9 15 1 -3
BITMAP
0E00
3100
4000
8000
8000
8000
8000
8080
8080
4080
4080
3180
0E00
0000
0800
ENDCHAR
STARTCHAR 0123
ENCODING 291
SWIDTH 540 0
DWIDTH 9 0
BBX 7 16 1 -3
BITMAP
08
10
10
00
1C
62
82
82
82
82
82
42
3E
02
04
7C
ENDCHAR
STARTCHAR 0124
ENCODING 292
SWIDTH 660 0
DWIDTH 11 0
BBX 8 15 2 0
BITMAP
10
28
04
01
81
81
81
81
81
FF
81
81
81
81
81
ENDCHAR
STARTCHAR 0125
ENCODING 293
SWIDTH 540 0
DWIDTH 9 0
BBX 7 16 1 0
BITMAP
40
A0
00
80
80
80
80
B8
C4
82
82
82
82
82
82
82
ENDCHAR
STARTCHAR 0126
ENCODING 294
SWIDTH 720 0
DWIDTH 12 0
BBX 11 12 0 0
BITMAP
0040
4040
FFE0
4040
4040
4040
7FC0
4040
4040
4040
4040
4040
ENDCHAR
STARTCHAR 0127
ENCODING 295
SWIDTH 540 0
DWIDTH 9 0
BBX 7 13 1 0
BITMAP
80
80
F0
80
B8
C4
82
82
82
82
82
82
82
ENDCHAR
STARTCHAR 0128
ENCODING 296
SWIDTH 240 0
DWIDTH 4 0
BBX 4 14 0 1
BITMAP
F0
00
00
40
40
40
40
40
40
40
40
40
40
40
ENDCHAR
STARTCHAR 0129
ENCODING 297
SWIDTH 240 0
DWIDTH 4 0
BBX 4 12 0 0
BITMAP
C0
30
00
00
40
40
40
40
40
40
40
40
ENDCHAR
STARTCHAR 012A
ENCODING 298
SWIDTH 240 0
DWIDTH 4 0
BBX 3 14 0 0
BITMAP
E0
00
00
40
40
40
40
40
40
40
40
40
40
40
ENDCHAR
STARTCHAR 012B
ENCODING 299
SWIDTH 240 0
DWIDTH 4 0
BBX 4 12 0 0
BITMAP
F0
00
00
00
40
40
40
40
40
40
40
40
ENDCHAR
STARTCHAR 012C
ENCODING 300
SWIDTH 240 0
DWIDTH 4 0
BBX 4 15 0 0
BITMAP
90
60
00
00
40
40
40
40
40
40
40
40
40
40
40
ENDCHAR
STARTCHAR 012D
ENCODING 301
SWIDTH 240 0
DWIDTH 4 0
BBX 4 12 0 0
BITMAP
90
60
00
00
40
40
40
40
40
40
40
40
ENDCHAR
STARTCHAR 012E
ENCODING 302
SWIDTH 240 0
DWIDTH 4 0
BBX 2 14 0 -2
BITMAP
40
40
40
40
40
40
40
40
40
40
40
40
80
C0
ENDCHAR
STARTCHAR 012F
ENCODING 303
SWIDTH 240 0
DWIDTH 4 0
BBX 2 15 0 -3
BITMAP
40
00
00
00
40
40
40
40
40
40
40
40
40
80
C0
ENDCHAR
STARTCHAR 0130
ENCODING 304
SWIDTH 240 0
DWIDTH 4 0
BBX 1 14 1 0
BITMAP
80
00
00
80
80
80
80
80
80
80
80
80
80
80
ENDCHAR
STARTCHAR 0131
ENCODING 305
SWIDTH 240 0
DWIDTH 4 0
BBX 1 8 1 1
BITMAP
80
80
80
80
80
80
80
80
ENDCHAR
STARTCHAR 0132
ENCODING 306
SWIDTH 720 0
DWIDTH 12 0
BBX 8 12 2 0
BITMAP
01
81
81
81
81
81
81
81
81
81
81
BE
ENDCHAR
STARTCHAR 0133
ENCODING 307
SWIDTH 420 0
DWIDTH 7 0
BBX 5 15 1 -3
BITMAP
88
00
00
08
88
88
88
88
88
88
88
88
08
08
30
ENDCHAR
STARTCHAR 0134
ENCODING 308
SWIDTH 480 0
DWIDTH 8 0
BBX 7 15 0 0
BITMAP
06
0A
00
00
04
04
04
04
04
04
04
04
04
04
F8
ENDCHAR
STARTCHAR 0135
ENCODING 309
SWIDTH 240 0
DWIDTH 4 0
BBX 5 15 -1 -2
BITMAP
30
48
00
00
20
20
20
20
20
20
20
20
20
20
C0
ENDCHAR
STARTCHAR 0136
ENCODING 310
SWIDTH 540 0
DWIDTH 9 0
BBX 7 15 2 -3
BITMAP
02
84
88
90
A0
C0
C0
A0
90
88
84
82
00
10
20
ENDCHAR
STARTCHAR 0137
ENCODING 311
SWIDTH 480 0
DWIDTH 8 0
BBX 6 16 1 -3
BITMAP
80
80
80
80
84
88
90
A0
C0
A0
90
88
84
00
10
20
ENDCHAR
STARTCHAR 0138
ENCODING 312
SWIDTH 480 0
DWIDTH 8 0
BBX 5 9 2 0
BITMAP
08
90
A0
C0
80
C0
A0
90
88
ENDCHAR
STARTCHAR 0139
ENCODING 313
SWIDTH 480 0
DWIDTH 8 0
BBX 7 15 1 0
BITMAP
20
40
00
00
80
80
80
80
80
80
80
80
80
80
7E
ENDCHAR
STARTCHAR 013A
ENCODING 314
SWIDTH 240 0
DWIDTH 4 0
BBX 2 15 1 0
BITMAP
40
00
80
80
80
80
80
80
80
80
80
80
80
80
40
ENDCHAR
STARTCHAR 013B
ENCODING 315
SWIDTH 480 0
DWIDTH 8 0
BBX 6 14 2 -2
BITMAP
80
80
80
80
80
80
80
80
80
80
FC
00
20
20
ENDCHAR
STARTCHAR 013C
ENCODING 316
SWIDTH 240 0
DWIDTH 4 0
BBX 2 16 1 -3
BITMAP
80
80
80
80
80
80
80
80
80
80
80
80
40
00
40
80
ENDCHAR
STARTCHAR 013D
ENCODING 317
SWIDTH 480 0
DWIDTH 8 0
BBX 6 12 2 0
BITMAP
20
C0
C0
80
80
80
80
80
80
80
80
FC
ENDCHAR
STARTCHAR 013E
ENCODING 318
SWIDTH 300 0
DWIDTH 5 0
BBX 3 13 1 0
BITMAP
80
A0
A0
80
80
80
80
80
80
80
80
80
40
ENDCHAR
STARTCHAR 013F
ENCODING 319
SWIDTH 480 0
DWIDTH 8 0
BBX 6 11 2 1
BITMAP
80
80
80
80
90
90
80
80
80
80
FC
ENDCHAR
STARTCHAR 0140
ENCODING 320
SWIDTH 240 0
DWIDTH 4 0
BBX 3 13 1 0
BITMAP
80
80
80
80
80
80
A0
A0
80
80
80
80
40
ENDCHAR
STARTCHAR 0141
ENCODING 321
SWIDTH 480 0
DWIDTH 8 0
BBX 8 11 0 1
BITMAP
40
40
40
40
50
60
C0
40
40
40
3F
ENDCHAR
STARTCHAR 0142
ENCODING 322
SWIDTH 240 0
DWIDTH 4 0
BBX 2 13 1 0
BITMAP
80
80
80
80
80
80
C0
80
80
80
80
80
40
ENDCHAR
STARTCHAR 0143
ENCODING 323
SWIDTH 720 0
DWIDTH 12 0
BBX 8 15 2 0
BITMAP
04
18
00
01
81
C1
A1
A1
91
89
89
85
83
81
81
ENDCHAR
STARTCHAR 0144
ENCODING 324
SWIDTH 540 0
DWIDTH 9 0
BBX 7 13 1 0
BITMAP
04
08
10
00
38
C4
82
82
82
82
82
82
82
ENDCHAR
STARTCHAR 0145
ENCODING 325
SWIDTH 720 0
DWIDTH 12 0
BBX 8 15 2 -3
BITMAP
01
81
C1
A1
A1
91
89
89
85
83
81
81
00
00
10
ENDCHAR
STARTCHAR 0146
ENCODING 326
SWIDTH 540 0
DWIDTH 9 0
BBX 7 12 1 -3
BITMAP
38
C4
82
82
82
82
82
82
82
00
10
10
ENDCHAR
STARTCHAR 0147
ENCODING 327
SWIDTH 720 0
DWIDTH 12 0
BBX 8 15 2 0
BITMAP
24
18
00
01
81
C1
A1
A1
91
89
89
85
83
81
81
ENDCHAR
STARTCHAR 0148
ENCODING 328
SWIDTH 540 0
DWIDTH 9 0
BBX 7 13 1 0
BITMAP
04
28
10
00
38
C4
82
82
82
82
82
82
82
ENDCHAR
STARTCHAR 0149
ENCODING 329
SWIDTH 540 0
DWIDTH 9 0
BBX 7 12 1 1
BITMAP
80
80
00
38
C4
82
82
82
82
82
82
82
ENDCHAR
STARTCHAR 014A
ENCODING 330
SWIDTH 720 0
DWIDTH 12 0
BBX 8 15 2 -3
BITMAP
01
81
C1
A1
A1
91
89
89
85
83
81
81
01
01
03
ENDCHAR
STARTCHAR 014B
ENCODING 331
SWIDTH 540 0
DWIDTH 9 0
BBX 7 12 1 -3
BITMAP
38
C4
82
82
82
82
82
82
82
02
02
06
ENDCHAR
STARTCHAR 014C
ENCODING 332
SWIDTH 780 0
DWIDTH 13 0
BBX 11 14 1 0
BITMAP
0E00
0000
0E00
3180
4040
8040
8040
8020
8020
8040
8040
4040
4080
3F00
ENDCHAR
STARTCHAR 014D
ENCODING 333
SWIDTH 600 0
DWIDTH 10 0
BBX 8 12 1 0
BITMAP
3C
00
00
38
46
82
82
81
81
82
82
7C
ENDCHAR
STARTCHAR 014E
ENCODING 334
SWIDTH 780 0
DWIDTH 13 0
BBX 11 14 1 1
BITMAP
0E00
0000
0E00
3180
4040
8040
8040
8020
8020
8040
8040
4040
4080
3F00
ENDCHAR
STARTCHAR 014F
ENCODING 335
SWIDTH 600 0
DWIDTH 10 0
BBX 8 12 1 0
BITMAP
28
10
00
38
46
82
82
81
81
82
82
7C
ENDCHAR
STARTCHAR 0150
ENCODING 336
SWIDTH 780 0
DWIDTH 13 0
BBX 11 15 1 1
BITMAP
0500
0900
0000
0E00
3180
4040
8040
8040
8020
8020
8040
8040
4040
4080
3F00
ENDCHAR
STARTCHAR 0151
ENCODING 337
SWIDTH 600 0
DWIDTH 10 0
BBX 8 13 1 0
BITMAP
08
12
24
00
38
46
82
82
81
81
82
82
7C
ENDCHAR
STARTCHAR 0152
ENCODING 338
SWIDTH 960 0
DWIDTH 16 0
BBX 15 12 1 0
BITMAP
0FFC
3080
4080
8080
8080
8080
80F8
8080
8080
4080
4080
3FFE
ENDCHAR
STARTCHAR 0153
ENCODING 339
SWIDTH 960 0
DWIDTH 16 0
BBX 14 9 1 0
BITMAP
3870
4488
8304
8104
81FC
8100
8100
8300
7CF8
ENDCHAR
STARTCHAR 0154
ENCODING 340
SWIDTH 600 0
DWIDTH 10 0
BBX 7 15 2 0
BITMAP
08
30
00
F0
8C
82
82
82
84
88
F8
88
84
82
82
ENDCHAR
STARTCHAR 0155
ENCODING 341
SWIDTH 360 0
DWIDTH 6 0
BBX 5 13 1 0
BITMAP
08
10
20
00
78
80
80
80
80
80
80
80
80
ENDCHAR
STARTCHAR 0156
ENCODING 342
SWIDTH 600 0
DWIDTH 10 0
BBX 7 15 2 -3
BITMAP
F0
8C
82
82
82
84
88
F8
88
84
82
82
00
10
20
ENDCHAR
STARTCHAR 0157
ENCODING 343
SWIDTH 360 0
DWIDTH 6 0
BBX 5 12 1 -3
BITMAP
78
80
80
80
80
80
80
80
80
00
80
80
ENDCHAR
STARTCHAR 0158
ENCODING 344
SWIDTH 600 0
DWIDTH 10 0
BBX 7 15 2 0
BITMAP
48
30
00
F0
8C
82
82
82
84
88
F8
88
84
82
82
ENDCHAR
STARTCHAR 0159
ENCODING 345
SWIDTH 360 0
DWIDTH 6 0
BBX 5 12 1 1
BITMAP
50
20
00
78
80
80
80
80
80
80
80
80
ENDCHAR
STARTCHAR 015A
ENCODING 346
SWIDTH 480 0
DWIDTH 8 0
BBX 7 15 1 0
BITMAP
08
10
00
38
C4
80
80
80
60
18
04
02
02
04
F8
ENDCHAR
STARTCHAR 015B
ENCODING 347
SWIDTH 420 0
DWIDTH 7 0
BBX 5 12 1 1
BITMAP
30
40
00
70
80
80
80
60
18
08
08
F0
ENDCHAR
STARTCHAR 015C
ENCODING 348
SWIDTH 480 0
DWIDTH 8 0
BBX 7 15 1 0
BITMAP
10
68
00
38
C4
80
80
80
60
18
04
02
02
04
F8
ENDCHAR
STARTCHAR 015D
ENCODING 349
SWIDTH 420 0
DWIDTH 7 0
BBX 5 13 1 0
BITMAP
20
60
90
00
70
80
80
80
60
18
08
08
F0
ENDCHAR
STARTCHAR 015E
ENCODING 350
SWIDTH 480 0
DWIDTH 8 0
BBX 7 15 1 -3
BITMAP
38
C4
80
80
80
60
18
04
02
02
04
C8
30
10
10
ENDCHAR
STARTCHAR 015F
ENCODING 351
SWIDTH 420 0
DWIDTH 7 0
BBX 5 12 1 -3
BITMAP
70
80
80
80
60
18
08
08
90
60
20
20
ENDCHAR
STARTCHAR 0160
ENCODING 352
SWIDTH 480 0
DWIDTH 8 0
BBX 7 15 1 0
BITMAP
48
30
00
38
C4
80
80
80
60
18
04
02
02
04
F8
ENDCHAR
STARTCHAR 0161
ENCODING 353
SWIDTH 420 0
DWIDTH 7 0
BBX 5 12 1 1
BITMAP
50
20
00
70
80
80
80
60
18
08
08
F0
ENDCHAR
STARTCHAR 0162
ENCODING 354
SWIDTH 540 0
DWIDTH 9 0
BBX 9 15 0 -3
BITMAP
FF80
0800
0800
0800
0800
0800
0800
0800
0800
0800
0800
0800
1000
0800
0800
ENDCHAR
STARTCHAR 0163
ENCODING 355
SWIDTH 360 0
DWIDTH 6 0
BBX 5 14 1 -3
BITMAP
80
80
F8
80
80
80
80
80
80
80
48
30
10
70
ENDCHAR
STARTCHAR 0164
ENCODING 356
SWIDTH 540 0
DWIDTH 9 0
BBX 9 15 0 0
BITMAP
2400
1800
0000
FF80
0800
0800
0800
0800
0800
0800
0800
0800
0800
0800
0800
ENDCHAR
STARTCHAR 0165
ENCODING 357
SWIDTH 360 0
DWIDTH 6 0
BBX 5 13 1 0
BITMAP
20
20
80
80
F8
80
80
80
80
80
80
80
78
ENDCHAR
STARTCHAR 0166
ENCODING 358
SWIDTH 540 0
DWIDTH 9 0
BBX 9 12 0 0
BITMAP
FF80
0800
0800
0800
0800
0800
1C00
0800
0800
0800
0800
0800
ENDCHAR
STARTCHAR 0167
ENCODING 359
SWIDTH 360 0
DWIDTH 6 0
BBX 5 11 1 0
BITMAP
80
80
F8
80
80
80
F0
80
80
80
78
ENDCHAR
STARTCHAR 0168
ENCODING 360
SWIDTH 660 0
DWIDTH 11 0
BBX 8 14 2 1
BITMAP
7C
00
01
81
81
81
81
81
81
81
81
82
82
7C
ENDCHAR
STARTCHAR 0169
ENCODING 361
SWIDTH 540 0
DWIDTH 9 0
BBX 7 12 1 0
BITMAP
34
08
00
82
82
82
82
82
82
82
82
7E
ENDCHAR
STARTCHAR 016A
ENCODING 362
SWIDTH 660 0
DWIDTH 11 0
BBX 8 14 2 0
BITMAP
38
00
01
81
81
81
81
81
81
81
81
82
82
7C
ENDCHAR
STARTCHAR 016B
ENCODING 363
SWIDTH 540 0
DWIDTH 9 0
BBX 7 12 1 0
BITMAP
3C
00
00
82
82
82
82
82
82
82
82
7E
ENDCHAR
STARTCHAR 016C
ENCODING 364
SWIDTH 660 0
DWIDTH 11 0
BBX 8 14 2 1
BITMAP
38
00
01
81
81
81
81
81
81
81
81
82
82
7C
ENDCHAR
STARTCHAR 016D
ENCODING 365
SWIDTH 540 0
DWIDTH 9 0
BBX 7 12 1 0
BITMAP
48
30
00
82
82
82
82
82
82
82
82
7E
ENDCHAR
STARTCHAR 016E
ENCODING 366
SWIDTH 660 0
DWIDTH 11 0
BBX 8 15 2 0
BITMAP
38
28
10
01
81
81
81
81
81
81
81
81
82
82
7C
ENDCHAR
STARTCHAR 016F
ENCODING 367
SWIDTH 540 0
DWIDTH 9 0
BBX 7 13 1 0
BITMAP
10
28
28
10
82
82
82
82
82
82
82
82
7E
ENDCHAR
STARTCHAR 0170
ENCODING 368
SWIDTH 660 0
DWIDTH 11 0
BBX 8 15 2 0
BITMAP
12
24
00
01
81
81
81
81
81
81
81
81
82
82
7C
ENDCHAR
STARTCHAR 0171
ENCODING 369
SWIDTH 540 0
DWIDTH 9 0
BBX 7 13 1 0
BITMAP
02
14
28
00
82
82
82
82
82
82
82
82
7E
ENDCHAR
STARTCHAR 0172
ENCODING 370
SWIDTH 660 0
DWIDTH 11 0
BBX 8 15 2 -3
BITMAP
01
81
81
81
81
81
81
81
81
82
82
64
18
10
18
ENDCHAR
STARTCHAR 0173
ENCODING 371
SWIDTH 540 0
DWIDTH 9 0
BBX 7 12 1 -3
BITMAP
82
82
82
82
82
82
82
82
66
1C
08
04
ENDCHAR
STARTCHAR 0174
ENCODING 372
SWIDTH 900 0
DWIDTH 15 0
BBX 13 15 1 0
BITMAP
0200
0500
0000
0000
8008
8208
8608
8508
8510
8910
4890
4890
50A0
3060
2020
ENDCHAR
STARTCHAR 0175
ENCODING 373
SWIDTH 780 0
DWIDTH 13 0
BBX 12 12 0 1
BITMAP
0600
0900
0000
8200
8210
4610
4610
4520
4920
2920
28C0
1040
ENDCHAR
STARTCHAR 0176
ENCODING 374
SWIDTH 540 0
DWIDTH 9 0
BBX 9 15 0 0
BITMAP
0800
1400
0000
8080
8100
4100
4200
2200
1400
1800
0800
0800
0800
0800
0800
ENDCHAR
STARTCHAR 0177
ENCODING 375
SWIDTH 420 0
DWIDTH 7 0
BBX 7 15 0 -2
BITMAP
18
24
00
82
82
42
44
44
24
28
28
18
10
10
60
ENDCHAR
STARTCHAR 0178
ENCODING 376
SWIDTH 540 0
DWIDTH 9 0
BBX 9 14 0 0
BITMAP
1400
0000
8080
8100
4100
4200
2200
1400
1800
0800
0800
0800
0800
0800
ENDCHAR
STARTCHAR 0179
ENCODING 377
SWIDTH 540 0
DWIDTH 9 0
BBX 7 15 1 0
BITMAP
0C
10
00
FE
02
04
08
08
10
20
20
40
80
80
FE
ENDCHAR
STARTCHAR 017A
ENCODING 378
SWIDTH 420 0
DWIDTH 7 0
BBX 6 13 1 0
BITMAP
08
10
20
00
F8
08
10
20
20
40
80
80
FC
ENDCHAR
STARTCHAR 017B
ENCODING 379
SWIDTH 540 0
DWIDTH 9 0
BBX 7 14 1 0
BITMAP
10
00
FE
02
04
08
08
10
20
20
40
80
80
FE
ENDCHAR
STARTCHAR 017C
ENCODING 380
SWIDTH 420 0
DWIDTH 7 0
BBX 6 12 1 0
BITMAP
20
00
00
F8
08
10
20
20
40
80
80
FC
ENDCHAR
STARTCHAR 017D
ENCODING 381
SWIDTH 540 0
DWIDTH 9 0
BBX 7 15 1 0
BITMAP
48
28
10
FE
02
04
08
08
10
20
20
40
80
80
FE
ENDCHAR
STARTCHAR 017E
ENCODING 382
SWIDTH 420 0
DWIDTH 7 0
BBX 6 13 1 0
BITMAP
08
50
20
00
F8
08
10
20
20
40
80
80
FC
ENDCHAR
STARTCHAR 017F
ENCODING 383
SWIDTH 240 0
DWIDTH 4 0
BBX 4 13 1 0
BITMAP
30
C0
80
80
80
80
80
80
80
80
80
80
80
ENDCHAR
STARTCHAR 0180
ENCODING 384
SWIDTH 540 0
DWIDTH 9 0
BBX 7 13 1 0
BITMAP
80
80
F0
80
B8
C4
82
82
82
82
82
82
FC
ENDCHAR
STARTCHAR 0181
ENCODING 385
SWIDTH 660 0
DWIDTH 11 0
BBX 10 12 0 0
BITMAP
1E00
6180
A040
A040
2040
2080
3F80
2040
2040
2040
2040
1F80
ENDCHAR
STARTCHAR 0182
ENCODING 386
SWIDTH 600 0
DWIDTH 10 0
BBX 7 12 2 0
BITMAP
FC
80
80
80
80
F8
86
82
82
82
82
FC
ENDCHAR
STARTCHAR 0183
ENCODING 387
SWIDTH 540 0
DWIDTH 9 0
BBX 6 13 2 0
BITMAP
F8
80
80
80
F0
8C
84
84
84
84
84
84
F8
ENDCHAR
STARTCHAR 0184
ENCODING 388
SWIDTH 540 0
DWIDTH 9 0
BBX 7 13 1 0
BITMAP
80
80
80
80
B8
C6
82
82
82
82
82
82
7C
ENDCHAR
STARTCHAR 0185
ENCODING 389
SWIDTH 600 0
DWIDTH 10 0
BBX 8 11 1 1
BITMAP
80
80
80
80
7C
83
81
81
81
81
7E
ENDCHAR
STARTCHAR 0186
ENCODING 390
SWIDTH 600 0
DWIDTH 10 0
BBX 8 12 1 0
BITMAP
70
8C
02
02
01
01
01
01
02
02
04
F8
ENDCHAR
STARTCHAR 0187
ENCODING 391
SWIDTH 600 0
DWIDTH 10 0
BBX 10 13 1 0
BITMAP
00C0
0F00
3000
4000
8000
8000
8000
8000
8000
8000
4000
4000
3F00
ENDCHAR
STARTCHAR 0188
ENCODING 392
SWIDTH 480 0
DWIDTH 8 0
BBX 8 10 1 0
BITMAP
03
1C
60
80
80
80
80
80
40
3C
ENDCHAR
STARTCHAR 0189
ENCODING 393
SWIDTH 720 0
DWIDTH 12 0
BBX 9 12 1 0
BITMAP
7800
8600
8100
8080
8080
8080
E080
8080
8080
8080
8100
7E00
ENDCHAR
STARTCHAR 018A
ENCODING 394
SWIDTH 780 0
DWIDTH 13 0
BBX 12 12 0 0
BITMAP
1E00
6180
A040
A020
2020
2010
2010
2020
2020
2020
2040
1F80
ENDCHAR
STARTCHAR 018B
ENCODING 395
SWIDTH 600 0
DWIDTH 10 0
BBX 8 12 1 0
BITMAP
7F
01
01
01
01
3F
C1
81
81
81
81
7F
ENDCHAR
STARTCHAR 018C
ENCODING 396
SWIDTH 540 0
DWIDTH 9 0
BBX 7 13 1 0
BITMAP
7E
02
02
02
3A
46
82
82
82
82
82
82
7E
ENDCHAR
STARTCHAR 018D
ENCODING 397
SWIDTH 540 0
DWIDTH 9 0
BBX 7 12 1 -3
BITMAP
38
44
82
82
82
82
82
44
38
04
04
78
ENDCHAR
STARTCHAR 018E
ENCODING 398
SWIDTH 540 0
DWIDTH 9 0
BBX 6 12 1 0
BITMAP
FC
04
04
04
04
04
7C
04
04
04
04
FC
ENDCHAR
STARTCHAR 018F
ENCODING 399
SWIDTH 660 0
DWIDTH 11 0
BBX 9 12 1 0
BITMAP
3C00
4300
0100
0080
0080
0080
FF80
8080
8080
8080
4100
3E00
ENDCHAR
STARTCHAR 0190
ENCODING 400
SWIDTH 540 0
DWIDTH 9 0
BBX 7 12 1 0
BITMAP
1C
60
80
80
40
30
48
80
80
80
80
7E
ENDCHAR
STARTCHAR 0191
ENCODING 401
SWIDTH 480 0
DWIDTH 8 0
BBX 8 15 0 -3
BITMAP
3F
40
40
40
40
40
7E
40
40
40
40
40
40
40
C0
ENDCHAR
STARTCHAR 0192
ENCODING 402
SWIDTH 360 0
DWIDTH 6 0
BBX 6 16 0 -3
BITMAP
1C
60
40
40
3C
40
40
40
40
40
40
40
40
40
40
C0
ENDCHAR
STARTCHAR 0193
ENCODING 403
SWIDTH 600 0
DWIDTH 10 0
BBX 11 13 1 0
BITMAP
0060
0E80
3100
4000
8000
8000
8000
8000
8080
8080
4080
4080
3F80
ENDCHAR
STARTCHAR 0194
ENCODING 404
SWIDTH 600 0
DWIDTH 10 0
BBX 10 15 0 -3
BITMAP
8040
8080
4080
4100
2100
2100
1200
1200
0C00
0800
0C00
1400
1200
1200
0C00
ENDCHAR
STARTCHAR 0195
ENCODING 405
SWIDTH 900 0
DWIDTH 15 0
BBX 12 13 1 0
BITMAP
8000
8000
8000
8000
B800
C410
8410
8210
8210
8210
8210
8210
81E0
ENDCHAR
STARTCHAR 0196
ENCODING 406
SWIDTH 360 0
DWIDTH 6 0
BBX 3 11 2 1
BITMAP
80
80
80
80
80
80
80
80
80
80
E0
ENDCHAR
STARTCHAR 0197
ENCODING 407
SWIDTH 300 0
DWIDTH 5 0
BBX 3 12 1 0
BITMAP
40
40
40
40
40
40
E0
40
40
40
40
40
ENDCHAR
STARTCHAR 0198
ENCODING 408
SWIDTH 600 0
DWIDTH 10 0
BBX 8 12 2 0
BITMAP
03
8C
90
A0
C0
80
C0
A0
90
88
84
82
ENDCHAR
STARTCHAR 0199
ENCODING 409
SWIDTH 480 0
DWIDTH 8 0
BBX 6 13 1 0
BITMAP
60
80
80
80
84
88
90
A0
C0
A0
90
88
84
ENDCHAR
STARTCHAR 019A
ENCODING 410
SWIDTH 240 0
DWIDTH 4 0
BBX 4 12 0 1
BITMAP
40
40
40
40
40
F0
40
40
40
40
40
20
ENDCHAR
STARTCHAR 019B
ENCODING 411
SWIDTH 480 0
DWIDTH 8 0
BBX 7 13 0 0
BITMAP
60
10
1C
30
08
18
28
24
44
44
42
82
82
ENDCHAR
STARTCHAR 019C
ENCODING 412
SWIDTH 960 0
DWIDTH 16 0
BBX 12 11 2 1
BITMAP
8410
8410
8410
8410
8410
8410
8410
8410
8210
8210
7DF0
ENDCHAR
STARTCHAR 019D
ENCODING 413
SWIDTH 720 0
DWIDTH 12 0
BBX 10 15 0 -3
BITMAP
0040
2040
5040
4840
4840
4440
4240
4240
4140
40C0
4040
4040
4000
4000
C000
ENDCHAR
STARTCHAR 019E
ENCODING 414
SWIDTH 540 0
DWIDTH 9 0
BBX 6 12 2 -3
BITMAP
70
88
84
84
84
84
84
84
84
04
04
04
ENDCHAR
STARTCHAR 019F
ENCODING 415
SWIDTH 780 0
DWIDTH 13 0
BBX 11 12 1 0
BITMAP
0E00
3180
4040
8040
8040
8020
FFE0
8040
8040
4040
4080
3F00
ENDCHAR
STARTCHAR 01A0
ENCODING 416
SWIDTH 780 0
DWIDTH 13 0
BBX 11 13 1 0
BITMAP
0040
0E40
31C0
4040
8040
8040
8020
8020
8040
8040
4040
4080
3F00
ENDCHAR
STARTCHAR 01A1
ENCODING 417
SWIDTH 600 0
DWIDTH 10 0
BBX 8 10 1 0
BITMAP
01
39
46
82
82
81
81
82
82
7C
ENDCHAR
STARTCHAR 01A2
ENCODING 418
SWIDTH 960 0
DWIDTH 16 0
BBX 14 12 1 0
BITMAP
0E30
31C8
4084
8044
8044
8044
8044
8044
8044
4044
4084
3F04
ENDCHAR
STARTCHAR 01A3
ENCODING 419
SWIDTH 780 0
DWIDTH 13 0
BBX 10 12 1 -3
BITMAP
3980
4640
8240
8240
8240
8240
8240
8240
6C40
1040
0040
0040
ENDCHAR
STARTCHAR 01A4
ENCODING 420
SWIDTH 660 0
DWIDTH 11 0
BBX 10 12 0 0
BITMAP
1E00
6180
A040
A040
2040
2040
2080
3F00
2000
2000
2000
2000
ENDCHAR
STARTCHAR 01A5
ENCODING 421
SWIDTH 540 0
DWIDTH 9 0
BBX 7 16 1 -3
BITMAP
60
80
80
80
B8
C4
82
82
82
82
82
82
EC
90
80
80
ENDCHAR
STARTCHAR 01A6
ENCODING 422
SWIDTH 600 0
DWIDTH 10 0
BBX 8 14 2 -1
BITMAP
F0
8C
82
82
82
84
88
F8
88
84
82
82
01
01
ENDCHAR
STARTCHAR 01A7
ENCODING 423
SWIDTH 480 0
DWIDTH 8 0
BBX 7 12 1 0
BITMAP
78
04
04
04
04
08
70
80
80
80
80
7E
ENDCHAR
STARTCHAR 01A8
ENCODING 424
SWIDTH 420 0
DWIDTH 7 0
BBX 5 9 1 0
BITMAP
70
08
08
08
30
C0
80
80
F8
ENDCHAR
STARTCHAR 01A9
ENCODING 425
SWIDTH 540 0
DWIDTH 9 0
BBX 7 12 1 0
BITMAP
FE
80
40
20
20
10
10
20
40
40
80
FE
ENDCHAR
STARTCHAR 01AA
ENCODING 426
SWIDTH 300 0
DWIDTH 5 0
BBX 5 16 -1 -3
BITMAP
70
88
88
88
78
08
08
08
08
08
08
08
08
08
08
08
ENDCHAR
STARTCHAR 01AB
ENCODING 427
SWIDTH 360 0
DWIDTH 6 0
BBX 5 14 1 -3
BITMAP
80
80
F8
80
80
80
80
80
80
80
48
38
08
18
ENDCHAR
STARTCHAR 01AC
ENCODING 428
SWIDTH 540 0
DWIDTH 9 0
BBX 9 12 0 0
BITMAP
1F80
6800
8800
8800
0800
0800
0800
0800
0800
0800
0800
0800
ENDCHAR
STARTCHAR 01AD
ENCODING 429
SWIDTH 360 0
DWIDTH 6 0
BBX 5 13 1 0
BITMAP
38
C0
80
80
F8
80
80
80
80
80
80
80
78
ENDCHAR
STARTCHAR 01AE
ENCODING 430
SWIDTH 540 0
DWIDTH 9 0
BBX 9 15 0 -3
BITMAP
FF80
0800
0800
0800
0800
0800
0800
0800
0800
0800
0800
0800
0800
0800
0C00
ENDCHAR
STARTCHAR 01AF
ENCODING 431
SWIDTH 660 0
DWIDTH 11 0
BBX 9 13 2 0
BITMAP
0080
0180
8100
8100
8100
8100
8100
8100
8100
8100
8200
8200
7C00
ENDCHAR
STARTCHAR 01B0
ENCODING 432
SWIDTH 540 0
DWIDTH 9 0
BBX 9 10 1 0
BITMAP
0080
8300
8200
8200
8200
8200
8200
8200
8200
7E00
ENDCHAR
STARTCHAR 01B1
ENCODING 433
SWIDTH 780 0
DWIDTH 13 0
BBX 11 12 1 0
BITMAP
F1E0
2080
4080
4040
8040
8020
8020
8020
8040
4040
4080
3F00
ENDCHAR
STARTCHAR 01B2
ENCODING 434
SWIDTH 660 0
DWIDTH 11 0
BBX 8 12 2 0
BITMAP
0C
82
82
81
81
81
81
81
81
82
82
7C
ENDCHAR
STARTCHAR 01B3
ENCODING 435
SWIDTH 660 0
DWIDTH 11 0
BBX 10 12 0 0
BITMAP
80C0
8100
4200
4200
2400
1400
1800
0800
0800
0800
0800
0800
ENDCHAR
STARTCHAR 01B4
ENCODING 436
SWIDTH 540 0
DWIDTH 9 0
BBX 9 12 0 -3
BITMAP
8180
8200
4200
4400
4400
2400
2800
2800
1800
1000
1000
6000
ENDCHAR
STARTCHAR 01B5
ENCODING 437
SWIDTH 540 0
DWIDTH 9 0
BBX 7 12 1 0
BITMAP
FE
02
04
08
08
10
6C
20
40
80
80
FE
ENDCHAR
STARTCHAR 01B6
ENCODING 438
SWIDTH 420 0
DWIDTH 7 0
BBX 6 9 1 0
BITMAP
F8
08
10
20
F8
40
80
80
FC
ENDCHAR
STARTCHAR 01B7
ENCODING 439
SWIDTH 540 0
DWIDTH 9 0
BBX 7 12 1 0
BITMAP
FE
04
04
08
10
20
1C
02
02
02
02
FC
ENDCHAR
STARTCHAR 01B8
ENCODING 440
SWIDTH 540 0
DWIDTH 9 0
BBX 7 12 1 0
BITMAP
FE
80
40
20
10
08
70
80
80
80
80
7E
ENDCHAR
STARTCHAR 01B9
ENCODING 441
SWIDTH 420 0
DWIDTH 7 0
BBX 6 12 1 -3
BITMAP
FC
80
40
20
20
10
E0
80
80
80
80
7C
ENDCHAR
STARTCHAR 01BA
ENCODING 442
SWIDTH 420 0
DWIDTH 7 0
BBX 6 12 0 -3
BITMAP
FC
04
08
10
20
1C
04
04
04
38
C0
80
ENDCHAR
STARTCHAR 01BB
ENCODING 443
SWIDTH 600 0
DWIDTH 10 0
BBX 7 12 1 0
BITMAP
38
C4
04
04
04
04
7E
10
20
40
80
7E
ENDCHAR
STARTCHAR 01BC
ENCODING 444
SWIDTH 600 0
DWIDTH 10 0
BBX 7 12 1 0
BITMAP
FE
40
40
40
40
70
0C
02
02
02
02
FC
ENDCHAR
STARTCHAR 01BD
ENCODING 445
SWIDTH 480 0
DWIDTH 8 0
BBX 6 9 1 0
BITMAP
FC
40
80
80
78
04
04
04
F8
ENDCHAR
STARTCHAR 01BE
ENCODING 446
SWIDTH 420 0
DWIDTH 7 0
BBX 5 11 1 0
BITMAP
80
80
F0
80
80
80
60
18
08
08
F0
ENDCHAR
STARTCHAR 01BF
ENCODING 447
SWIDTH 540 0
DWIDTH 9 0
BBX 6 12 2 -3
BITMAP
70
88
84
84
84
84
84
88
B0
C0
80
80
ENDCHAR
STARTCHAR 01C0
ENCODING 448
SWIDTH 240 0
DWIDTH 4 0
BBX 1 16 2 -3
BITMAP
80
80
80
80
80
80
80
80
80
80
80
80
80
80
80
80
ENDCHAR
STARTCHAR 01C1
ENCODING 449
SWIDTH 420 0
DWIDTH 7 0
BBX 3 16 2 -3
BITMAP
A0
A0
A0
A0
A0
A0
A0
A0
A0
A0
A0
A0
A0
A0
A0
A0
ENDCHAR
STARTCHAR 01C2
ENCODING 450
SWIDTH 540 0
DWIDTH 9 0
BBX 8 16 1 -3
BITMAP
10
10
10
10
10
10
FF
10
10
FF
10
10
10
10
10
10
ENDCHAR
STARTCHAR 01C3
ENCODING 451
SWIDTH 300 0
DWIDTH 5 0
BBX 1 12 2 0
BITMAP
80
80
80
80
80
80
80
80
00
00
00
80
ENDCHAR
STARTCHAR 01C4
ENCODING 452
SWIDTH 1200 0
DWIDTH 20 0
BBX 18 15 2 0
BITMAP
000900
000600
000000
F03F80
8C0080
820100
810100
810200
810400
810400
810800
811000
811000
822000
FC3FC0
ENDCHAR
STARTCHAR 01C5
ENCODING 453
SWIDTH 1140 0
DWIDTH 19 0
BBX 16 12 2 1
BITMAP
F016
8C0C
8200
813F
8102
8104
8104
8108
8110
8110
8220
FC3F
ENDCHAR
STARTCHAR 01C6
ENCODING 454
SWIDTH 1020 0
DWIDTH 17 0
BBX 15 13 1 0
BITMAP
0200
022C
0210
0200
3A7E
4604
8208
8208
8210
8220
8220
8240
7E7E
ENDCHAR
STARTCHAR 01C7
ENCODING 455
SWIDTH 1020 0
DWIDTH 17 0
BBX 13 11 2 1
BITMAP
8008
8008
8008
8008
8008
8008
8008
8008
8008
8008
FDF0
ENDCHAR
STARTCHAR 01C8
ENCODING 456
SWIDTH 720 0
DWIDTH 12 0
BBX 8 15 2 -3
BITMAP
01
80
80
80
81
81
81
81
81
81
81
FD
01
01
06
ENDCHAR
STARTCHAR 01C9
ENCODING 457
SWIDTH 420 0
DWIDTH 7 0
BBX 5 16 1 -3
BITMAP
80
88
80
80
88
88
88
88
88
88
88
88
48
08
08
30
ENDCHAR
STARTCHAR 01CA
ENCODING 458
SWIDTH 1140 0
DWIDTH 19 0
BBX 16 12 2 0
BITMAP
0101
8101
C101
A101
A101
9101
8901
8901
8501
8301
8101
813E
ENDCHAR
STARTCHAR 01CB
ENCODING 459
SWIDTH 900 0
DWIDTH 15 0
BBX 12 15 2 -3
BITMAP
0110
8100
C100
A110
A110
9110
8910
8910
8510
8310
8110
8110
0010
0020
0060
ENDCHAR
STARTCHAR 01CC
ENCODING 460
SWIDTH 780 0
DWIDTH 13 0
BBX 11 15 1 -3
BITMAP
0020
0000
0000
3800
C440
8240
8240
8240
8240
8240
8240
8240
0040
0040
00C0
ENDCHAR
STARTCHAR 01CD
ENCODING 461
SWIDTH 600 0
DWIDTH 10 0
BBX 10 15 0 0
BITMAP
1200
0C00
0000
0000
0C00
0C00
1200
1200
2100
2100
2100
3F80
4080
8080
8040
ENDCHAR
STARTCHAR 01CE
ENCODING 462
SWIDTH 480 0
DWIDTH 8 0
BBX 6 12 1 1
BITMAP
48
30
00
70
0C
04
04
7C
84
84
84
7C
ENDCHAR
STARTCHAR 01CF
ENCODING 463
SWIDTH 240 0
DWIDTH 4 0
BBX 4 15 0 0
BITMAP
90
60
00
00
40
40
40
40
40
40
40
40
40
40
40
ENDCHAR
STARTCHAR 01D0
ENCODING 464
SWIDTH 240 0
DWIDTH 4 0
BBX 3 12 0 1
BITMAP
A0
40
00
00
40
40
40
40
40
40
40
40
ENDCHAR
STARTCHAR 01D1
ENCODING 465
SWIDTH 780 0
DWIDTH 13 0
BBX 11 15 1 0
BITMAP
1200
0C00
0000
0E00
3180
4040
8040
8040
8020
8020
8040
8040
4040
4080
3F00
ENDCHAR
STARTCHAR 01D2
ENCODING 466
SWIDTH 600 0
DWIDTH 10 0
BBX 8 12 1 1
BITMAP
28
10
00
38
46
82
82
81
81
82
82
7C
ENDCHAR
STARTCHAR 01D3
ENCODING 467
SWIDTH 660 0
DWIDTH 11 0
BBX 8 15 2 0
BITMAP
48
30
00
01
81
81
81
81
81
81
81
81
82
82
7C
ENDCHAR
STARTCHAR 01D4
ENCODING 468
SWIDTH 540 0
DWIDTH 9 0
BBX 7 12 1 1
BITMAP
28
10
00
82
82
82
82
82
82
82
82
7E
ENDCHAR
STARTCHAR 01D5
ENCODING 469
SWIDTH 660 0
DWIDTH 11 0
BBX 8 16 2 0
BITMAP
3C
00
44
00
01
81
81
81
81
81
81
81
81
82
82
7C
ENDCHAR
STARTCHAR 01D6
ENCODING 470
SWIDTH 540 0
DWIDTH 9 0
BBX 7 13 1 0
BITMAP
38
00
44
00
82
82
82
82
82
82
82
82
7E
ENDCHAR
STARTCHAR 01D7
ENCODING 471
SWIDTH 660 0
DWIDTH 11 0
BBX 8 16 2 0
BITMAP
08
10
44
00
01
81
81
81
81
81
81
81
81
82
82
7C
ENDCHAR
STARTCHAR 01D8
ENCODING 472
SWIDTH 540 0
DWIDTH 9 0
BBX 7 14 1 0
BITMAP
08
10
00
44
00
82
82
82
82
82
82
82
82
7E
ENDCHAR
STARTCHAR 01D9
ENCODING 473
SWIDTH 660 0
DWIDTH 11 0
BBX 8 15 2 1
BITMAP
38
44
00
01
81
81
81
81
81
81
81
81
82
82
7C
ENDCHAR
STARTCHAR 01DA
ENCODING 474
SWIDTH 540 0
DWIDTH 9 0
BBX 7 13 1 1
BITMAP
28
10
44
00
82
82
82
82
82
82
82
82
7E
ENDCHAR
STARTCHAR 01DB
ENCODING 475
SWIDTH 660 0
DWIDTH 11 0
BBX 8 16 2 0
BITMAP
20
10
44
00
01
81
81
81
81
81
81
81
81
82
82
7C
ENDCHAR
STARTCHAR 01DC
ENCODING 476
SWIDTH 540 0
DWIDTH 9 0
BBX 7 14 1 0
BITMAP
20
10
00
44
00
82
82
82
82
82
82
82
82
7E
ENDCHAR
STARTCHAR 01DD
ENCODING 477
SWIDTH 540 0
DWIDTH 9 0
BBX 7 9 1 0
BITMAP
78
04
02
02
02
FE
82
84
78
ENDCHAR
STARTCHAR 01DE
ENCODING 478
SWIDTH 600 0
DWIDTH 10 0
BBX 10 16 0 0
BITMAP
1E00
0000
1200
0000
0000
0C00
0C00
1200
1200
2100
2100
2100
3F80
4080
8080
8040
ENDCHAR
STARTCHAR 01DF
ENCODING 479
SWIDTH 480 0
DWIDTH 8 0
BBX 6 13 1 0
BITMAP
38
00
48
00
70
0C
04
04
7C
84
84
84
7C
ENDCHAR
STARTCHAR 01E0
ENCODING 480
SWIDTH 600 0
DWIDTH 10 0
BBX 10 16 0 0
BITMAP
1E00
0000
0400
0000
0000
0C00
0C00
1200
1200
2100
2100
2100
3F80
4080
8080
8040
ENDCHAR
STARTCHAR 01E1
ENCODING 481
SWIDTH 480 0
DWIDTH 8 0
BBX 6 13 1 0
BITMAP
38
00
10
00
70
0C
04
04
7C
84
84
84
7C
ENDCHAR
STARTCHAR 01E2
ENCODING 482
SWIDTH 900 0
DWIDTH 15 0
BBX 14 14 0 0
BITMAP
00E0
0000
01FC
0300
0300
0500
0900
0900
11F8
2100
3F00
4100
4100
80FC
ENDCHAR
STARTCHAR 01E3
ENCODING 483
SWIDTH 840 0
DWIDTH 14 0
BBX 12 12 1 0
BITMAP
0F00
0000
0000
70C0
0B20
0410
0410
7FF0
8400
8400
8200
7DF0
ENDCHAR
STARTCHAR 01E4
ENCODING 484
SWIDTH 660 0
DWIDTH 11 0
BBX 9 12 1 0
BITMAP
0E00
3100
4000
8000
8000
8000
8080
8080
8380
4080
4080
3F80
ENDCHAR
STARTCHAR 01E5
ENCODING 485
SWIDTH 600 0
DWIDTH 10 0
BBX 8 12 1 -3
BITMAP
1C
62
82
82
8F
82
82
42
3E
02
04
7C
ENDCHAR
STARTCHAR 01E6
ENCODING 486
SWIDTH 660 0
DWIDTH 11 0
BBX 9 15 1 0
BITMAP
1200
0C00
0000
0E00
3100
4000
8000
8000
8000
8000
8080
8080
4080
4080
3F80
ENDCHAR
STARTCHAR 01E7
ENCODING 487
SWIDTH 540 0
DWIDTH 9 0
BBX 7 15 1 -2
BITMAP
28
10
00
1C
62
82
82
82
82
82
42
3E
02
04
7C
ENDCHAR
STARTCHAR 01E8
ENCODING 488
SWIDTH 540 0
DWIDTH 9 0
BBX 7 15 2 0
BITMAP
48
30
00
02
84
88
90
A0
C0
C0
A0
90
88
84
82
ENDCHAR
STARTCHAR 01E9
ENCODING 489
SWIDTH 480 0
DWIDTH 8 0
BBX 6 15 1 1
BITMAP
E0
00
80
80
80
80
84
88
90
A0
C0
A0
90
88
84
ENDCHAR
STARTCHAR 01EA
ENCODING 490
SWIDTH 780 0
DWIDTH 13 0
BBX 11 15 1 -3
BITMAP
0E00
3180
4040
8040
8040
8020
8020
8040
8040
4040
4080
3300
0C00
0400
0600
ENDCHAR
STARTCHAR 01EB
ENCODING 491
SWIDTH 600 0
DWIDTH 10 0
BBX 8 12 1 -3
BITMAP
38
46
82
82
81
81
82
82
64
18
10
18
ENDCHAR
STARTCHAR 01EC
ENCODING 492
SWIDTH 780 0
DWIDTH 13 0
BBX 11 17 1 -3
BITMAP
0E00
0000
0E00
3180
4040
8040
8040
8020
8020
8040
8040
4040
4080
3300
0C00
0400
0600
ENDCHAR
STARTCHAR 01ED
ENCODING 493
SWIDTH 600 0
DWIDTH 10 0
BBX 8 15 1 -3
BITMAP
3C
00
00
38
46
82
82
81
81
82
82
64
18
10
18
ENDCHAR
STARTCHAR 01EE
ENCODING 494
SWIDTH 540 0
DWIDTH 9 0
BBX 7 15 1 0
BITMAP
48
30
00
FE
04
04
08
10
20
1C
02
02
02
02
FC
ENDCHAR
STARTCHAR 01EF
ENCODING 495
SWIDTH 420 0
DWIDTH 7 0
BBX 7 15 0 -2
BITMAP
28
10
00
FC
04
08
08
10
20
1C
02
02
02
04
F8
ENDCHAR
STARTCHAR 01F0
ENCODING 496
SWIDTH 240 0
DWIDTH 4 0
BBX 4 15 -1 -2
BITMAP
50
20
00
00
20
20
20
20
20
20
20
20
20
20
C0
ENDCHAR
STARTCHAR 01F1
ENCODING 497
SWIDTH 1200 0
DWIDTH 20 0
BBX 18 12 2 0
BITMAP
F03F80
8C0080
820100
810100
810200
810400
810400
810800
811000
811000
822000
FC3FC0
ENDCHAR
STARTCHAR 01F2
ENCODING 498
SWIDTH 1140 0
DWIDTH 19 0
BBX 16 12 2 0
BITMAP
F000
8C00
8200
813F
8102
8104
8104
8108
8110
8110
8220
FC3F
ENDCHAR
STARTCHAR 01F3
ENCODING 499
SWIDTH 1020 0
DWIDTH 17 0
BBX 15 13 1 0
BITMAP
0200
0200
0200
0200
3A7E
4604
8204
8208
8210
8220
8220
8240
7E7E
ENDCHAR
STARTCHAR 01F4
ENCODING 500
SWIDTH 660 0
DWIDTH 11 0
BBX 9 15 1 0
BITMAP
0200
0400
0000
0E00
3100
4000
8000
8000
8000
8000
8080
8080
4080
4080
3F80
ENDCHAR
STARTCHAR 01F5
ENCODING 501
SWIDTH 540 0
DWIDTH 9 0
BBX 7 16 1 -3
BITMAP
04
08
10
00
1C
62
82
82
82
82
82
42
3E
02
04
7C
ENDCHAR
STARTCHAR 01F6
ENCODING 502
SWIDTH 1020 0
DWIDTH 17 0
BBX 14 12 2 0
BITMAP
0100
8100
8100
8100
8104
8104
FF04
8104
8104
8104
8108
80F8
ENDCHAR
STARTCHAR 01F7
ENCODING 503
SWIDTH 600 0
DWIDTH 10 0
BBX 7 15 2 -3
BITMAP
30
CC
82
82
82
82
82
82
84
88
B0
C0
80
80
80
ENDCHAR
STARTCHAR 01F8
ENCODING 504
SWIDTH 720 0
DWIDTH 12 0
BBX 8 15 2 0
BITMAP
20
10
00
01
81
C1
A1
A1
91
89
89
85
83
81
81
ENDCHAR
STARTCHAR 01F9
ENCODING 505
SWIDTH 540 0
DWIDTH 9 0
BBX 7 12 1 1
BITMAP
20
18
00
38
C4
82
82
82
82
82
82
82
ENDCHAR
STARTCHAR 01FA
ENCODING 506
SWIDTH 600 0
DWIDTH 10 0
BBX 10 17 0 0
BITMAP
0200
0C00
0000
0C00
1200
0C00
0C00
0C00
1200
1200
2100
2100
2100
3F80
4080
8080
8040
ENDCHAR
STARTCHAR 01FB
ENCODING 507
SWIDTH 480 0
DWIDTH 8 0
BBX 6 15 1 0
BITMAP
08
30
10
28
28
10
70
0C
04
04
7C
84
84
84
7C
ENDCHAR
STARTCHAR 01FC
ENCODING 508
SWIDTH 900 0
DWIDTH 15 0
BBX 14 15 0 0
BITMAP
0020
0040
0000
01FC
0300
0300
0500
0900
0900
11F8
2100
3F00
4100
4100
80FC
ENDCHAR
STARTCHAR 01FD
ENCODING 509
SWIDTH 840 0
DWIDTH 14 0
BBX 12 12 1 1
BITMAP
0300
0400
0000
70C0
0B20
0410
0410
7FF0
8400
8400
8200
7DF0
ENDCHAR
STARTCHAR 01FE
ENCODING 510
SWIDTH 780 0
DWIDTH 13 0
BBX 11 16 1 -1
BITMAP
0200
0400
0000
0E40
3180
40C0
8140
8240
8420
8420
8840
9040
6040
6080
5300
0C00
ENDCHAR
STARTCHAR 01FF
ENCODING 511
SWIDTH 600 0
DWIDTH 10 0
BBX 8 14 1 -1
BITMAP
04
08
10
00
38
46
86
8A
91
91
A2
42
A4
18
ENDCHAR
STARTCHAR 0200
ENCODING 512
SWIDTH 600 0
DWIDTH 10 0
BBX 10 15 0 0
BITMAP
2800
1400
0000
0000
0C00
0C00
1200
1200
2100
2100
2100
3F80
4080
8080
8040
ENDCHAR
STARTCHAR 0201
ENCODING 513
SWIDTH 480 0
DWIDTH 8 0
BBX 6 13 1 0
BITMAP
A0
90
50
00
70
0C
04
04
7C
84
84
84
7C
ENDCHAR
STARTCHAR 0202
ENCODING 514
SWIDTH 600 0
DWIDTH 10 0
BBX 10 15 0 0
BITMAP
0C00
1200
0000
0000
0C00
0C00
1200
1200
2100
2100
2100
3F80
4080
8080
8040
ENDCHAR
STARTCHAR 0203
ENCODING 515
SWIDTH 480 0
DWIDTH 8 0
BBX 6 12 1 0
BITMAP
78
40
00
70
0C
04
04
7C
84
84
84
7C
ENDCHAR
STARTCHAR 0204
ENCODING 516
SWIDTH 540 0
DWIDTH 9 0
BBX 7 15 1 0
BITMAP
90
48
20
7E
80
80
80
80
80
FC
80
80
80
80
7E
ENDCHAR
STARTCHAR 0205
ENCODING 517
SWIDTH 540 0
DWIDTH 9 0
BBX 7 13 1 0
BITMAP
80
50
28
00
38
44
82
82
FE
80
80
80
7C
ENDCHAR
STARTCHAR 0206
ENCODING 518
SWIDTH 540 0
DWIDTH 9 0
BBX 6 15 2 0
BITMAP
30
48
00
FC
80
80
80
80
80
F8
80
80
80
80
FC
ENDCHAR
STARTCHAR 0207
ENCODING 519
SWIDTH 540 0
DWIDTH 9 0
BBX 7 12 1 0
BITMAP
38
00
00
38
44
82
82
FE
80
80
80
7C
ENDCHAR
STARTCHAR 0208
ENCODING 520
SWIDTH 240 0
DWIDTH 4 0
BBX 4 15 -1 0
BITMAP
A0
90
40
00
20
20
20
20
20
20
20
20
20
20
20
ENDCHAR
STARTCHAR 0209
ENCODING 521
SWIDTH 240 0
DWIDTH 4 0
BBX 4 12 -1 1
BITMAP
A0
50
00
00
20
20
20
20
20
20
20
20
ENDCHAR
STARTCHAR 020A
ENCODING 522
SWIDTH 240 0
DWIDTH 4 0
BBX 4 15 0 0
BITMAP
60
90
00
00
40
40
40
40
40
40
40
40
40
40
40
ENDCHAR
STARTCHAR 020B
ENCODING 523
SWIDTH 240 0
DWIDTH 4 0
BBX 4 12 0 0
BITMAP
E0
10
00
00
40
40
40
40
40
40
40
40
ENDCHAR
STARTCHAR 020C
ENCODING 524
SWIDTH 780 0
DWIDTH 13 0
BBX 11 15 1 0
BITMAP
2800
1400
0200
0E00
3180
4040
8040
8040
8020
8020
8040
8040
4040
4080
3F00
ENDCHAR
STARTCHAR 020D
ENCODING 525
SWIDTH 600 0
DWIDTH 10 0
BBX 8 12 1 1
BITMAP
50
28
00
38
46
82
82
81
81
82
82
7C
ENDCHAR
STARTCHAR 020E
ENCODING 526
SWIDTH 780 0
DWIDTH 13 0
BBX 11 15 1 0
BITMAP
0E00
0000
0000
0E00
3180
4040
8040
8040
8020
8020
8040
8040
4040
4080
3F00
ENDCHAR
STARTCHAR 020F
ENCODING 527
SWIDTH 600 0
DWIDTH 10 0
BBX 8 12 1 0
BITMAP
38
04
00
38
46
82
82
81
81
82
82
7C
ENDCHAR
STARTCHAR 0210
ENCODING 528
SWIDTH 600 0
DWIDTH 10 0
BBX 8 15 1 0
BITMAP
90
48
20
78
86
81
81
81
82
84
FC
84
82
81
81
ENDCHAR
STARTCHAR 0211
ENCODING 529
SWIDTH 360 0
DWIDTH 6 0
BBX 6 13 0 0
BITMAP
80
50
28
00
3C
40
40
40
40
40
40
40
40
ENDCHAR
STARTCHAR 0212
ENCODING 530
SWIDTH 600 0
DWIDTH 10 0
BBX 7 15 2 0
BITMAP
70
08
00
F0
8C
82
82
82
84
88
F8
88
84
82
82
ENDCHAR
STARTCHAR 0213
ENCODING 531
SWIDTH 360 0
DWIDTH 6 0
BBX 5 12 1 0
BITMAP
F0
00
00
78
80
80
80
80
80
80
80
80
ENDCHAR
STARTCHAR 0214
ENCODING 532
SWIDTH 660 0
DWIDTH 11 0
BBX 8 15 2 0
BITMAP
90
50
28
01
81
81
81
81
81
81
81
81
82
82
7C
ENDCHAR
STARTCHAR 0215
ENCODING 533
SWIDTH 540 0
DWIDTH 9 0
BBX 7 13 1 0
BITMAP
80
50
28
00
82
82
82
82
82
82
82
82
7E
ENDCHAR
STARTCHAR 0216
ENCODING 534
SWIDTH 660 0
DWIDTH 11 0
BBX 8 15 2 0
BITMAP
38
00
00
01
81
81
81
81
81
81
81
81
82
82
7C
ENDCHAR
STARTCHAR 0217
ENCODING 535
SWIDTH 540 0
DWIDTH 9 0
BBX 7 12 1 0
BITMAP
38
00
00
82
82
82
82
82
82
82
82
7E
ENDCHAR
STARTCHAR 0218
ENCODING 536
SWIDTH 480 0
DWIDTH 8 0
BBX 7 15 1 -3
BITMAP
38
C4
80
80
80
60
18
04
02
02
04
C8
30
10
20
ENDCHAR
STARTCHAR 0219
ENCODING 537
SWIDTH 420 0
DWIDTH 7 0
BBX 5 12 1 -3
BITMAP
70
80
80
80
60
18
08
08
90
60
20
60
ENDCHAR
STARTCHAR 021A
ENCODING 538
SWIDTH 540 0
DWIDTH 9 0
BBX 9 15 0 -3
BITMAP
FF80
0800
0800
0800
0800
0800
0800
0800
0800
0800
0800
0800
0000
0800
1000
ENDCHAR
STARTCHAR 021B
ENCODING 539
SWIDTH 360 0
DWIDTH 6 0
BBX 5 14 1 -3
BITMAP
80
80
F8
80
80
80
80
80
80
80
48
30
20
20
ENDCHAR
STARTCHAR 021C
ENCODING 540
SWIDTH 540 0
DWIDTH 9 0
BBX 8 15 0 -3
BITMAP
38
C4
02
02
02
04
08
1C
02
02
01
02
02
04
78
ENDCHAR
STARTCHAR 021D
ENCODING 541
SWIDTH 420 0
DWIDTH 7 0
BBX 5 12 1 -3
BITMAP
E0
10
10
10
10
60
10
08
08
08
10
E0
ENDCHAR
STARTCHAR 021E
ENCODING 542
SWIDTH 660 0
DWIDTH 11 0
BBX 8 15 2 0
BITMAP
48
28
10
01
81
81
81
81
81
FF
81
81
81
81
81
ENDCHAR
STARTCHAR 021F
ENCODING 543
SWIDTH 540 0
DWIDTH 9 0
BBX 8 16 0 0
BITMAP
90
60
00
40
40
40
40
5C
62
41
41
41
41
41
41
41
ENDCHAR
STARTCHAR 0220
ENCODING 544
SWIDTH 660 0
DWIDTH 11 0
BBX 7 15 2 -3
BITMAP
78
84
82
82
82
82
82
82
82
82
82
82
02
02
02
ENDCHAR
STARTCHAR 0221
ENCODING 545
SWIDTH 660 0
DWIDTH 11 0
BBX 11 16 1 -3
BITMAP
0200
0200
0200
0200
3A00
4600
8200
8200
8200
8200
8200
8200
63C0
1E20
0620
01C0
ENDCHAR
STARTCHAR 0222
ENCODING 546
SWIDTH 660 0
DWIDTH 11 0
BBX 9 12 1 0
BITMAP
4100
8100
8100
8100
4100
3E00
4100
8080
8080
8080
8100
7E00
ENDCHAR
STARTCHAR 0223
ENCODING 547
SWIDTH 600 0
DWIDTH 10 0
BBX 8 13 1 0
BITMAP
02
82
82
82
44
3C
C2
82
81
81
82
82
7C
ENDCHAR
STARTCHAR 0224
ENCODING 548
SWIDTH 540 0
DWIDTH 9 0
BBX 7 15 1 -3
BITMAP
FE
02
04
08
08
10
20
20
40
80
80
FE
02
02
06
ENDCHAR
STARTCHAR 0225
ENCODING 549
SWIDTH 420 0
DWIDTH 7 0
BBX 6 12 1 -3
BITMAP
F8
08
10
20
20
40
80
80
FC
04
04
08
ENDCHAR
STARTCHAR 0226
ENCODING 550
SWIDTH 600 0
DWIDTH 10 0
BBX 10 14 0 0
BITMAP
0400
0000
0000
0C00
0C00
1200
1200
2100
2100
2100
3F80
4080
8080
8040
ENDCHAR
STARTCHAR 0227
ENCODING 551
SWIDTH 480 0
DWIDTH 8 0
BBX 6 12 1 0
BITMAP
10
00
00
70
0C
04
04
7C
84
84
84
7C
ENDCHAR
STARTCHAR 0228
ENCODING 552
SWIDTH 540 0
DWIDTH 9 0
BBX 6 15 2 -3
BITMAP
FC
80
80
80
80
80
F8
80
80
80
80
FC
20
10
30
ENDCHAR
STARTCHAR 0229
ENCODING 553
SWIDTH 540 0
DWIDTH 9 0
BBX 7 12 1 -3
BITMAP
38
44
82
82
FE
80
80
80
64
18
08
38
ENDCHAR
STARTCHAR 022A
ENCODING 554
SWIDTH 780 0
DWIDTH 13 0
BBX 11 16 1 0
BITMAP
1E00
0000
1200
0000
0E00
3180
4040
8040
8040
8020
8020
8040
8040
4040
4080
3F00
ENDCHAR
STARTCHAR 022B
ENCODING 555
SWIDTH 600 0
DWIDTH 10 0
BBX 8 13 1 0
BITMAP
38
00
24
00
38
46
82
82
81
81
82
82
7C
ENDCHAR
STARTCHAR 022C
ENCODING 556
SWIDTH 780 0
DWIDTH 13 0
BBX 11 16 1 0
BITMAP
1E00
0000
1D00
0200
0E00
3180
4040
8040
8040
8020
8020
8040
8040
4040
4080
3F00
ENDCHAR
STARTCHAR 022D
ENCODING 557
SWIDTH 600 0
DWIDTH 10 0
BBX 8 13 1 0
BITMAP
38
00
3C
00
38
46
82
82
81
81
82
82
7C
ENDCHAR
STARTCHAR 022E
ENCODING 558
SWIDTH 780 0
DWIDTH 13 0
BBX 11 14 1 0
BITMAP
0400
0000
0E00
3180
4040
8040
8040
8020
8020
8040
8040
4040
4080
3F00
ENDCHAR
STARTCHAR 022F
ENCODING 559
SWIDTH 600 0
DWIDTH 10 0
BBX 8 12 1 0
BITMAP
10
00
00
38
46
82
82
81
81
82
82
7C
ENDCHAR
STARTCHAR 0230
ENCODING 560
SWIDTH 780 0
DWIDTH 13 0
BBX 11 16 1 0
BITMAP
1E00
0000
0400
0000
0E00
3180
4040
8040
8040
8020
8020
8040
8040
4040
4080
3F00
ENDCHAR
STARTCHAR 0231
ENCODING 561
SWIDTH 600 0
DWIDTH 10 0
BBX 8 13 1 0
BITMAP
38
00
10
00
38
46
82
82
81
81
82
82
7C
ENDCHAR
STARTCHAR 0232
ENCODING 562
SWIDTH 540 0
DWIDTH 9 0
BBX 9 14 0 0
BITMAP
1C00
0000
8080
8100
4100
4200
2200
1400
1800
0800
0800
0800
0800
0800
ENDCHAR
STARTCHAR 0233
ENCODING 563
SWIDTH 420 0
DWIDTH 7 0
BBX 7 15 0 -3
BITMAP
3C
00
00
82
82
42
44
44
24
28
28
18
10
10
60
ENDCHAR
STARTCHAR 0234
ENCODING 564
SWIDTH 300 0
DWIDTH 5 0
BBX 6 16 0 -3
BITMAP
40
40
40
40
40
40
40
40
40
40
40
40
78
44
C4
38
ENDCHAR
STARTCHAR 0235
ENCODING 565
SWIDTH 660 0
DWIDTH 11 0
BBX 10 12 1 -3
BITMAP
3800
C400
8200
8200
8200
8200
8200
8200
83C0
0240
0640
01C0
ENDCHAR
STARTCHAR 0236
ENCODING 566
SWIDTH 300 0
DWIDTH 5 0
BBX 6 14 0 -3
BITMAP
40
40
7C
40
40
40
40
40
40
40
78
44
C4
38
ENDCHAR
STARTCHAR 0237
ENCODING 567
SWIDTH 240 0
DWIDTH 4 0
BBX 3 11 -1 -2
BITMAP
20
20
20
20
20
20
20
20
20
20
C0
ENDCHAR
STARTCHAR 0238
ENCODING 568
SWIDTH 900 0
DWIDTH 15 0
BBX 13 13 1 0
BITMAP
0200
0200
0200
0200
3AE0
4710
8208
8208
8208
8208
8208
8208
7FF0
ENDCHAR
STARTCHAR 0239
ENCODING 569
SWIDTH 900 0
DWIDTH 15 0
BBX 13 12 1 -3
BITMAP
1DE0
6210
8208
8208
8208
8208
8208
8208
67B0
1A40
0200
0200
ENDCHAR
STARTCHAR 023A
ENCODING 570
SWIDTH 600 0
DWIDTH 10 0
BBX 10 13 0 -1
BITMAP
0100
0D00
0E00
1200
1200
2500
2500
2900
3F80
4880
9080
9040
2000
ENDCHAR
STARTCHAR 023B
ENCODING 571
SWIDTH 600 0
DWIDTH 10 0
BBX 8 14 1 -2
BITMAP
01
0E
33
42
84
84
88
88
88
90
50
60
31
4E
ENDCHAR
STARTCHAR 023C
ENCODING 572
SWIDTH 480 0
DWIDTH 8 0
BBX 6 11 1 -1
BITMAP
08
38
48
90
90
90
A0
A0
A0
64
58
ENDCHAR
STARTCHAR 023D
ENCODING 573
SWIDTH 480 0
DWIDTH 8 0
BBX 7 11 1 1
BITMAP
80
80
80
80
80
F0
80
80
80
80
7E
ENDCHAR
STARTCHAR 023E
ENCODING 574
SWIDTH 540 0
DWIDTH 9 0
BBX 10 12 0 0
BITMAP
FFC0
0880
0900
0A00
0A00
0C00
0800
0800
1800
2800
4800
4800
ENDCHAR
STARTCHAR 023F
ENCODING 575
SWIDTH 420 0
DWIDTH 7 0
BBX 5 12 1 -3
BITMAP
70
80
80
80
60
18
08
08
90
E0
40
30
ENDCHAR
STARTCHAR 0240
ENCODING 576
SWIDTH 420 0
DWIDTH 7 0
BBX 6 12 1 -3
BITMAP
F8
08
10
20
20
40
80
80
80
60
10
0C
ENDCHAR
STARTCHAR 0241
ENCODING 577
SWIDTH 480 0
DWIDTH 8 0
BBX 6 12 1 0
BITMAP
70
8C
04
04
04
08
30
40
40
40
40
40
ENDCHAR
STARTCHAR 0242
ENCODING 578
SWIDTH 420 0
DWIDTH 7 0
BBX 5 9 1 0
BITMAP
F0
08
08
08
10
60
40
40
40
ENDCHAR
STARTCHAR 0243
ENCODING 579
SWIDTH 660 0
DWIDTH 11 0
BBX 10 12 0 0
BITMAP
1C00
6300
4080
4080
4080
4100
7F00
4080
F840
4080
4080
3F00
ENDCHAR
STARTCHAR 0244
ENCODING 580
SWIDTH 660 0
DWIDTH 11 0
BBX 11 12 0 0
BITMAP
0040
4040
4040
4040
4040
FFE0
4040
4040
4040
4080
2080
1F00
ENDCHAR
STARTCHAR 0245
ENCODING 581
SWIDTH 600 0
DWIDTH 10 0
BBX 10 11 0 1
BITMAP
0C00
1400
1200
1200
2100
2100
4100
4080
4080
8080
8040
ENDCHAR
STARTCHAR 0246
ENCODING 582
SWIDTH 540 0
DWIDTH 9 0
BBX 7 15 2 -2
BITMAP
02
FC
84
88
88
88
90
F8
A0
A0
A0
C0
FC
80
80
ENDCHAR
STARTCHAR 0247
ENCODING 583
SWIDTH 540 0
DWIDTH 9 0
BBX 7 11 1 -1
BITMAP
08
38
4C
92
92
FE
A0
A0
A0
64
58
ENDCHAR
STARTCHAR 0248
ENCODING 584
SWIDTH 480 0
DWIDTH 8 0
BBX 7 11 0 1
BITMAP
04
04
04
04
04
0E
04
04
04
04
F8
ENDCHAR
STARTCHAR 0249
ENCODING 585
SWIDTH 240 0
DWIDTH 4 0
BBX 5 15 -1 -3
BITMAP
20
00
00
00
20
20
20
78
20
20
20
20
20
20
C0
ENDCHAR
STARTCHAR 024A
ENCODING 586
SWIDTH 780 0
DWIDTH 13 0
BBX 12 15 1 -3
BITMAP
0E00
3180
4040
8040
8040
8020
8020
8020
8020
4060
40A0
3320
0C20
0020
0030
ENDCHAR
STARTCHAR 024B
ENCODING 587
SWIDTH 540 0
DWIDTH 9 0
BBX 8 12 1 -3
BITMAP
1C
62
82
82
82
82
82
82
66
1A
02
01
ENDCHAR
STARTCHAR 024C
ENCODING 588
SWIDTH 600 0
DWIDTH 10 0
BBX 8 12 1 0
BITMAP
38
C6
81
81
81
81
86
FC
82
82
81
81
ENDCHAR
STARTCHAR 024D
ENCODING 589
SWIDTH 360 0
DWIDTH 6 0
BBX 5 9 1 0
BITMAP
38
C0
80
80
80
E0
80
80
80
ENDCHAR
STARTCHAR 024E
ENCODING 590
SWIDTH 540 0
DWIDTH 9 0
BBX 9 12 0 0
BITMAP
8080
4100
4100
FF80
2200
1400
0800
0800
0800
0800
0800
0800
ENDCHAR
STARTCHAR 024F
ENCODING 591
SWIDTH 480 0
DWIDTH 8 0
BBX 7 11 1 -2
BITMAP
84
84
84
FE
48
48
28
30
10
20
C0
ENDCHAR
STARTCHAR 0292
ENCODING 658
SWIDTH 420 0
DWIDTH 7 0
BBX 7 12 0 -3
BITMAP
FC
04
08
08
10
20
1C
02
02
02
04
F8
ENDCHAR
STARTCHAR 02BC
ENCODING 700
SWIDTH 360 0
DWIDTH 6 0
BBX 2 3 2 10
BITMAP
40
80
80
ENDCHAR
STARTCHAR 02C6
ENCODING 710
SWIDTH 360 0
DWIDTH 6 0
BBX 4 2 1 11
BITMAP
60
90
ENDCHAR
STARTCHAR 02C7
ENCODING 711
SWIDTH 360 0
DWIDTH 6 0
BBX 4 2 1 11
BITMAP
90
60
ENDCHAR
STARTCHAR 02C9
ENCODING 713
SWIDTH 360 0
DWIDTH 6 0
BBX 4 1 1 11
BITMAP
F0
ENDCHAR
STARTCHAR 02D8
ENCODING 728
SWIDTH 360 0
DWIDTH 6 0
BBX 4 2 1 10
BITMAP
90
60
ENDCHAR
STARTCHAR 02D9
ENCODING 729
SWIDTH 360 0
DWIDTH 6 0
BBX 1 1 3 11
BITMAP
80
ENDCHAR
STARTCHAR 02DA
ENCODING 730
SWIDTH 360 0
DWIDTH 6 0
BBX 3 3 2 10
BITMAP
C0
A0
C0
ENDCHAR
STARTCHAR 02DB
ENCODING 731
SWIDTH 360 0
DWIDTH 6 0
BBX 2 3 1 -3
BITMAP
40
80
C0
ENDCHAR
STARTCHAR 02DC
ENCODING 732
SWIDTH 360 0
DWIDTH 6 0
BBX 4 2 1 10
BITMAP
C0
30
ENDCHAR
STARTCHAR 02DD
ENCODING 733
SWIDTH 360 0
DWIDTH 6 0
BBX 5 3 0 10
BITMAP
20
48
90
ENDCHAR
STARTCHAR 0311
ENCODING 785
SWIDTH 0 0
DWIDTH 0 0
BBX 4 2 -2 10
BITMAP
F0
90
ENDCHAR
STARTCHAR 0384
ENCODING 900
SWIDTH 360 0
DWIDTH 6 0
BBX 2 3 3 10
BITMAP
40
80
80
ENDCHAR
STARTCHAR 0385
ENCODING 901
SWIDTH 300 0
DWIDTH 5 0
BBX 5 1 0 11
BITMAP
A8
ENDCHAR
STARTCHAR 0386
ENCODING 902
SWIDTH 600 0
DWIDTH 10 0
BBX 10 12 0 0
BITMAP
2000
4C00
4C00
5200
1200
2100
2100
2100
3F80
4080
8080
8040
ENDCHAR
STARTCHAR 0388
ENCODING 904
SWIDTH 600 0
DWIDTH 10 0
BBX 9 12 0 0
BITMAP
1F80
A000
A000
2000
2000
2000
3F00
2000
2000
2000
2000
1F80
ENDCHAR
STARTCHAR 0389
ENCODING 905
SWIDTH 720 0
DWIDTH 12 0
BBX 11 12 0 0
BITMAP
0020
A020
A020
2020
2020
2020
3FE0
2020
2020
2020
2020
2020
ENDCHAR
STARTCHAR 038A
ENCODING 906
SWIDTH 300 0
DWIDTH 5 0
BBX 3 11 0 1
BITMAP
A0
A0
20
20
20
20
20
20
20
20
20
ENDCHAR
STARTCHAR 038C
ENCODING 908
SWIDTH 780 0
DWIDTH 13 0
BBX 12 12 0 0
BITMAP
0700
98C0
A020
2010
4010
4010
4010
4010
2010
2020
1020
0FC0
ENDCHAR
STARTCHAR 038E
ENCODING 910
SWIDTH 660 0
DWIDTH 11 0
BBX 11 12 0 0
BITMAP
2020
9040
9040
0880
0880
0500
0600
0200
0200
0200
0200
0200
ENDCHAR
STARTCHAR 038F
ENCODING 911
SWIDTH 780 0
DWIDTH 13 0
BBX 12 12 0 0
BITMAP
0780
9840
A020
2010
2010
4010
4010
2010
2010
2020
1040
7870
ENDCHAR
STARTCHAR 0390
ENCODING 912
SWIDTH 240 0
DWIDTH 4 0
BBX 5 12 -1 1
BITMAP
A8
20
00
20
20
20
20
20
20
20
20
10
ENDCHAR
STARTCHAR 0391
ENCODING 913
SWIDTH 600 0
DWIDTH 10 0
BBX 10 11 0 1
BITMAP
0C00
0C00
1200
1200
2100
2100
2100
3F80
4080
8080
8040
ENDCHAR
STARTCHAR 0392
ENCODING 914
SWIDTH 600 0
DWIDTH 10 0
BBX 7 12 2 0
BITMAP
F0
8C
82
82
82
84
FC
82
82
82
82
FC
ENDCHAR
STARTCHAR 0393
ENCODING 915
SWIDTH 480 0
DWIDTH 8 0
BBX 5 12 2 0
BITMAP
F8
80
80
80
80
80
80
80
80
80
80
80
ENDCHAR
STARTCHAR 0394
ENCODING 916
SWIDTH 600 0
DWIDTH 10 0
BBX 10 11 0 1
BITMAP
0C00
0C00
1200
1200
2100
2100
2100
4080
4080
8080
FFC0
ENDCHAR
STARTCHAR 0395
ENCODING 917
SWIDTH 540 0
DWIDTH 9 0
BBX 6 12 2 0
BITMAP
FC
80
80
80
80
80
F8
80
80
80
80
FC
ENDCHAR
STARTCHAR 0396
ENCODING 918
SWIDTH 540 0
DWIDTH 9 0
BBX 7 12 1 0
BITMAP
FE
02
04
08
08
10
20
20
40
80
80
FE
ENDCHAR
STARTCHAR 0397
ENCODING 919
SWIDTH 660 0
DWIDTH 11 0
BBX 8 12 2 0
BITMAP
01
81
81
81
81
81
FF
81
81
81
81
81
ENDCHAR
STARTCHAR 0398
ENCODING 920
SWIDTH 780 0
DWIDTH 13 0
BBX 11 12 1 0
BITMAP
0E00
3180
4040
8040
8040
8020
9F20
8040
8040
4040
4080
3F00
ENDCHAR
STARTCHAR 0399
ENCODING 921
SWIDTH 240 0
DWIDTH 4 0
BBX 1 11 1 1
BITMAP
80
80
80
80
80
80
80
80
80
80
80
ENDCHAR
STARTCHAR 039A
ENCODING 922
SWIDTH 540 0
DWIDTH 9 0
BBX 7 12 2 0
BITMAP
02
84
88
90
A0
C0
C0
A0
90
88
84
82
ENDCHAR
STARTCHAR 039B
ENCODING 923
SWIDTH 600 0
DWIDTH 10 0
BBX 10 11 0 1
BITMAP
0C00
1400
1200
1200
2100
2100
4100
4080
4080
8080
8040
ENDCHAR
STARTCHAR 039C
ENCODING 924
SWIDTH 840 0
DWIDTH 14 0
BBX 12 12 1 0
BITMAP
4000
4020
A060
A060
9090
9090
8910
8910
8610
8610
8010
8010
ENDCHAR
STARTCHAR 039D
ENCODING 925
SWIDTH 720 0
DWIDTH 12 0
BBX 8 12 2 0
BITMAP
01
81
C1
A1
A1
91
89
89
85
83
81
81
ENDCHAR
STARTCHAR 039E
ENCODING 926
SWIDTH 540 0
DWIDTH 9 0
BBX 7 12 1 0
BITMAP
FE
00
00
00
00
00
7C
00
00
00
00
FE
ENDCHAR
STARTCHAR 039F
ENCODING 927
SWIDTH 780 0
DWIDTH 13 0
BBX 11 12 1 0
BITMAP
0E00
3180
4040
8040
8040
8020
8020
8040
8040
4040
4080
3F00
ENDCHAR
STARTCHAR 03A0
ENCODING 928
SWIDTH 660 0
DWIDTH 11 0
BBX 8 12 2 0
BITMAP
FF
81
81
81
81
81
81
81
81
81
81
81
ENDCHAR
STARTCHAR 03A1
ENCODING 929
SWIDTH 600 0
DWIDTH 10 0
BBX 7 12 2 0
BITMAP
F0
8C
82
82
82
82
8C
F0
80
80
80
80
ENDCHAR
STARTCHAR 03A3
ENCODING 931
SWIDTH 540 0
DWIDTH 9 0
BBX 7 12 1 0
BITMAP
FE
80
40
20
20
10
10
20
40
40
80
FE
ENDCHAR
STARTCHAR 03A4
ENCODING 932
SWIDTH 540 0
DWIDTH 9 0
BBX 9 12 0 0
BITMAP
FF80
0800
0800
0800
0800
0800
0800
0800
0800
0800
0800
0800
ENDCHAR
STARTCHAR 03A5
ENCODING 933
SWIDTH 540 0
DWIDTH 9 0
BBX 9 12 0 0
BITMAP
8080
8100
4100
4200
2200
1400
1800
0800
0800
0800
0800
0800
ENDCHAR
STARTCHAR 03A6
ENCODING 934
SWIDTH 840 0
DWIDTH 14 0
BBX 12 12 1 0
BITMAP
0400
1F80
6460
8410
8410
8410
8410
8410
4420
2440
1F80
0400
ENDCHAR
STARTCHAR 03A7
ENCODING 935
SWIDTH 600 0
DWIDTH 10 0
BBX 9 12 0 0
BITMAP
0080
4100
2200
2200
1400
0800
0800
1400
2200
2100
4100
8080
ENDCHAR
STARTCHAR 03A8
ENCODING 936
SWIDTH 780 0
DWIDTH 13 0
BBX 11 12 1 0
BITMAP
8420
8420
8420
8420
8420
8420
8420
4440
3F80
0400
0400
0400
ENDCHAR
STARTCHAR 03A9
ENCODING 937
SWIDTH 780 0
DWIDTH 13 0
BBX 11 12 1 0
BITMAP
0E00
3180
4040
8040
8020
8020
8020
8040
8040
4040
2080
F1E0
ENDCHAR
STARTCHAR 03AA
ENCODING 938
SWIDTH 240 0
DWIDTH 4 0
BBX 4 14 0 0
BITMAP
90
00
00
40
40
40
40
40
40
40
40
40
40
40
ENDCHAR
STARTCHAR 03AB
ENCODING 939
SWIDTH 540 0
DWIDTH 9 0
BBX 9 14 0 0
BITMAP
1400
0000
8080
8100
4100
4200
2200
1400
1800
0800
0800
0800
0800
0800
ENDCHAR
STARTCHAR 03AC
ENCODING 940
SWIDTH 600 0
DWIDTH 10 0
BBX 8 13 1 0
BITMAP
08
10
10
00
1C
62
82
82
82
82
82
82
7D
ENDCHAR
STARTCHAR 03AD
ENCODING 941
SWIDTH 480 0
DWIDTH 8 0
BBX 6 12 1 1
BITMAP
10
20
00
38
C0
80
80
70
C0
80
80
7C
ENDCHAR
STARTCHAR 03AE
ENCODING 942
SWIDTH 540 0
DWIDTH 9 0
BBX 6 16 2 -3
BITMAP
10
20
40
00
70
88
84
84
84
84
84
84
84
04
04
04
ENDCHAR
STARTCHAR 03AF
ENCODING 943
SWIDTH 240 0
DWIDTH 4 0
BBX 2 12 1 1
BITMAP
C0
80
00
80
80
80
80
80
80
80
80
40
ENDCHAR
STARTCHAR 03B0
ENCODING 944
SWIDTH 540 0
DWIDTH 9 0
BBX 7 12 1 1
BITMAP
54
00
00
82
82
82
82
82
82
82
82
7C
ENDCHAR
STARTCHAR 03B1
ENCODING 945
SWIDTH 600 0
DWIDTH 10 0
BBX 8 9 1 0
BITMAP
1C
62
82
82
82
82
82
82
7D
ENDCHAR
STARTCHAR 03B2
ENCODING 946
SWIDTH 600 0
DWIDTH 10 0
BBX 8 16 1 -3
BITMAP
38
46
82
82
82
84
8C
82
81
81
81
82
E4
98
80
80
ENDCHAR
STARTCHAR 03B3
ENCODING 947
SWIDTH 420 0
DWIDTH 7 0
BBX 7 12 0 -3
BITMAP
82
82
44
44
44
28
28
30
10
20
10
10
ENDCHAR
STARTCHAR 03B4
ENCODING 948
SWIDTH 600 0
DWIDTH 10 0
BBX 8 13 1 0
BITMAP
3C
40
40
20
10
2C
42
82
81
81
82
82
7C
ENDCHAR
STARTCHAR 03B5
ENCODING 949
SWIDTH 480 0
DWIDTH 8 0
BBX 6 9 1 0
BITMAP
38
C0
80
80
70
C0
80
80
7C
ENDCHAR
STARTCHAR 03B6
ENCODING 950
SWIDTH 420 0
DWIDTH 7 0
BBX 6 16 1 -3
BITMAP
7C
08
10
20
40
40
80
80
80
80
80
40
38
04
04
04
ENDCHAR
STARTCHAR 03B7
ENCODING 951
SWIDTH 540 0
DWIDTH 9 0
BBX 6 12 2 -3
BITMAP
70
88
84
84
84
84
84
84
84
04
04
04
ENDCHAR
STARTCHAR 03B8
ENCODING 952
SWIDTH 600 0
DWIDTH 10 0
BBX 8 13 1 0
BITMAP
3C
42
82
82
81
81
FF
81
81
81
82
42
3C
ENDCHAR
STARTCHAR 03B9
ENCODING 953
SWIDTH 240 0
DWIDTH 4 0
BBX 2 9 1 0
BITMAP
80
80
80
80
80
80
80
80
40
ENDCHAR
STARTCHAR 03BA
ENCODING 954
SWIDTH 480 0
DWIDTH 8 0
BBX 5 9 2 0
BITMAP
08
90
A0
C0
80
C0
A0
90
88
ENDCHAR
STARTCHAR 03BB
ENCODING 955
SWIDTH 480 0
DWIDTH 8 0
BBX 7 13 0 0
BITMAP
60
10
10
10
08
18
28
24
44
44
42
82
82
ENDCHAR
STARTCHAR 03BC
ENCODING 956
SWIDTH 540 0
DWIDTH 9 0
BBX 6 12 2 -3
BITMAP
04
84
84
84
84
84
84
84
CC
B0
80
80
ENDCHAR
STARTCHAR 03BD
ENCODING 957
SWIDTH 480 0
DWIDTH 8 0
BBX 6 8 1 1
BITMAP
84
84
88
48
48
50
50
20
ENDCHAR
STARTCHAR 03BE
ENCODING 958
SWIDTH 420 0
DWIDTH 7 0
BBX 6 16 1 -3
BITMAP
3C
40
80
80
40
20
38
C0
80
80
80
40
38
04
04
04
ENDCHAR
STARTCHAR 03BF
ENCODING 959
SWIDTH 600 0
DWIDTH 10 0
BBX 8 9 1 0
BITMAP
38
46
82
82
81
81
82
82
7C
ENDCHAR
STARTCHAR 03C0
ENCODING 960
SWIDTH 540 0
DWIDTH 9 0
BBX 8 9 1 0
BITMAP
FF
44
44
44
44
44
44
44
42
ENDCHAR
STARTCHAR 03C1
ENCODING 961
SWIDTH 600 0
DWIDTH 10 0
BBX 8 12 1 -3
BITMAP
18
66
82
81
81
81
82
82
C4
B8
80
80
ENDCHAR
STARTCHAR 03C2
ENCODING 962
SWIDTH 480 0
DWIDTH 8 0
BBX 6 12 1 -3
BITMAP
3C
40
80
80
80
80
80
40
38
04
04
04
ENDCHAR
STARTCHAR 03C3
ENCODING 963
SWIDTH 600 0
DWIDTH 10 0
BBX 9 9 1 0
BITMAP
0F80
7400
8200
8200
8200
8200
8200
8200
7C00
ENDCHAR
STARTCHAR 03C4
ENCODING 964
SWIDTH 420 0
DWIDTH 7 0
BBX 6 9 0 0
BITMAP
FC
20
20
20
20
20
20
20
1C
ENDCHAR
STARTCHAR 03C5
ENCODING 965
SWIDTH 540 0
DWIDTH 9 0
BBX 7 9 1 0
BITMAP
82
82
82
82
82
82
82
82
7C
ENDCHAR
STARTCHAR 03C6
ENCODING 966
SWIDTH 720 0
DWIDTH 12 0
BBX 10 12 1 -3
BITMAP
1E00
6580
8440
8440
8440
8440
8440
4440
3580
0E00
0400
0400
ENDCHAR
STARTCHAR 03C7
ENCODING 967
SWIDTH 420 0
DWIDTH 7 0
BBX 7 12 0 -3
BITMAP
02
44
44
28
28
10
10
28
28
44
44
82
ENDCHAR
STARTCHAR 03C8
ENCODING 968
SWIDTH 720 0
DWIDTH 12 0
BBX 10 12 1 -3
BITMAP
8040
8840
8840
8840
8840
8840
8840
4880
3900
0E00
0800
0800
ENDCHAR
STARTCHAR 03C9
ENCODING 969
SWIDTH 840 0
DWIDTH 14 0
BBX 12 9 1 0
BITMAP
4000
4020
8420
8410
8410
8410
8410
8620
79E0
ENDCHAR
STARTCHAR 03CA
ENCODING 970
SWIDTH 240 0
DWIDTH 4 0
BBX 3 12 0 0
BITMAP
80
00
00
40
40
40
40
40
40
40
40
20
ENDCHAR
STARTCHAR 03CB
ENCODING 971
SWIDTH 540 0
DWIDTH 9 0
BBX 7 12 1 0
BITMAP
20
00
00
82
82
82
82
82
82
82
82
7C
ENDCHAR
STARTCHAR 03CC
ENCODING 972
SWIDTH 600 0
DWIDTH 10 0
BBX 8 13 1 0
BITMAP
08
10
10
00
38
46
82
82
81
81
82
82
7C
ENDCHAR
STARTCHAR 03CD
ENCODING 973
SWIDTH 540 0
DWIDTH 9 0
BBX 7 13 1 0
BITMAP
08
10
20
00
82
82
82
82
82
82
82
82
7C
ENDCHAR
STARTCHAR 03CE
ENCODING 974
SWIDTH 840 0
DWIDTH 14 0
BBX 12 13 1 0
BITMAP
0200
0400
0400
0000
4000
4020
8420
8410
8410
8410
8410
8620
79E0
ENDCHAR
STARTCHAR 0400
ENCODING 1024
SWIDTH 540 0
DWIDTH 9 0
BBX 6 15 2 0
BITMAP
40
20
00
FC
80
80
80
80
80
F8
80
80
80
80
FC
ENDCHAR
STARTCHAR 0401
ENCODING 1025
SWIDTH 540 0
DWIDTH 9 0
BBX 6 14 2 0
BITMAP
48
00
FC
80
80
80
80
80
F8
80
80
80
80
FC
ENDCHAR
STARTCHAR 0402
ENCODING 1026
SWIDTH 720 0
DWIDTH 12 0
BBX 11 12 0 0
BITMAP
FF80
0800
0800
0800
0800
0FC0
0820
0820
0820
0820
0820
08C0
ENDCHAR
STARTCHAR 0403
ENCODING 1027
SWIDTH 480 0
DWIDTH 8 0
BBX 5 15 2 0
BITMAP
10
20
00
F8
80
80
80
80
80
80
80
80
80
80
80
ENDCHAR
STARTCHAR 0404
ENCODING 1028
SWIDTH 600 0
DWIDTH 10 0
BBX 8 12 1 0
BITMAP
0E
31
40
80
80
80
FC
80
80
80
40
3F
ENDCHAR
STARTCHAR 0405
ENCODING 1029
SWIDTH 480 0
DWIDTH 8 0
BBX 7 12 1 0
BITMAP
38
C4
80
80
80
60
18
04
02
02
04
F8
ENDCHAR
STARTCHAR 0406
ENCODING 1030
SWIDTH 240 0
DWIDTH 4 0
BBX 1 11 1 1
BITMAP
80
80
80
80
80
80
80
80
80
80
80
ENDCHAR
STARTCHAR 0407
ENCODING 1031
SWIDTH 240 0
DWIDTH 4 0
BBX 4 14 0 0
BITMAP
90
00
00
40
40
40
40
40
40
40
40
40
40
40
ENDCHAR
STARTCHAR 0408
ENCODING 1032
SWIDTH 480 0
DWIDTH 8 0
BBX 6 11 0 1
BITMAP
04
04
04
04
04
04
04
04
04
04
F8
ENDCHAR
STARTCHAR 0409
ENCODING 1033
SWIDTH 1020 0
DWIDTH 17 0
BBX 15 12 1 0
BITMAP
1F00
2100
2100
2100
2100
20F0
210C
2102
2102
4102
4102
80FC
ENDCHAR
STARTCHAR 040A
ENCODING 1034
SWIDTH 1020 0
DWIDTH 17 0
BBX 15 12 2 0
BITMAP
0100
8100
8100
8100
8100
FFE0
811C
8102
8102
8102
8104
81F8
ENDCHAR
STARTCHAR 040B
ENCODING 1035
SWIDTH 720 0
DWIDTH 12 0
BBX 11 12 0 0
BITMAP
FF80
0800
0800
0800
0800
0FC0
0840
0820
0820
0820
0820
0820
ENDCHAR
STARTCHAR 040C
ENCODING 1036
SWIDTH 540 0
DWIDTH 9 0
BBX 7 15 2 0
BITMAP
18
20
00
02
84
88
90
A0
C0
C0
A0
90
88
84
82
ENDCHAR
STARTCHAR 040D
ENCODING 1037
SWIDTH 720 0
DWIDTH 12 0
BBX 8 15 2 0
BITMAP
20
10
00
00
81
83
85
89
91
91
A1
C1
C1
81
81
ENDCHAR
STARTCHAR 040E
ENCODING 1038
SWIDTH 540 0
DWIDTH 9 0
BBX 8 15 0 0
BITMAP
20
24
18
80
81
41
42
22
22
14
14
08
08
10
60
ENDCHAR
STARTCHAR 040F
ENCODING 1039
SWIDTH 660 0
DWIDTH 11 0
BBX 8 15 2 -3
BITMAP
01
81
81
81
81
81
81
81
81
81
81
FF
10
10
10
ENDCHAR
STARTCHAR 0410
ENCODING 1040
SWIDTH 600 0
DWIDTH 10 0
BBX 10 11 0 1
BITMAP
0C00
0C00
1200
1200
2100
2100
2100
3F80
4080
8080
8040
ENDCHAR
STARTCHAR 0411
ENCODING 1041
SWIDTH 600 0
DWIDTH 10 0
BBX 7 12 2 0
BITMAP
FC
80
80
80
80
F8
86
82
82
82
82
FC
ENDCHAR
STARTCHAR 0412
ENCODING 1042
SWIDTH 600 0
DWIDTH 10 0
BBX 7 12 2 0
BITMAP
F0
8C
82
82
82
84
FC
82
82
82
82
FC
ENDCHAR
STARTCHAR 0413
ENCODING 1043
SWIDTH 480 0
DWIDTH 8 0
BBX 5 12 2 0
BITMAP
F8
80
80
80
80
80
80
80
80
80
80
80
ENDCHAR
STARTCHAR 0414
ENCODING 1044
SWIDTH 660 0
DWIDTH 11 0
BBX 10 15 0 -3
BITMAP
0F80
1080
1080
1080
1080
1080
1080
1080
1080
2080
2080
FFC0
8040
8040
8040
ENDCHAR
STARTCHAR 0415
ENCODING 1045
SWIDTH 540 0
DWIDTH 9 0
BBX 6 12 2 0
BITMAP
FC
80
80
80
80
80
F8
80
80
80
80
FC
ENDCHAR
STARTCHAR 0416
ENCODING 1046
SWIDTH 780 0
DWIDTH 13 0
BBX 13 12 0 0
BITMAP
4208
4210
2220
1240
0A80
0700
0700
0A80
1240
2220
4210
8208
ENDCHAR
STARTCHAR 0417
ENCODING 1047
SWIDTH 540 0
DWIDTH 9 0
BBX 7 12 1 0
BITMAP
70
0C
04
04
04
18
24
02
02
02
04
FC
ENDCHAR
STARTCHAR 0418
ENCODING 1048
SWIDTH 720 0
DWIDTH 12 0
BBX 8 11 2 1
BITMAP
81
83
85
89
91
91
A1
C1
C1
81
81
ENDCHAR
STARTCHAR 0419
ENCODING 1049
SWIDTH 720 0
DWIDTH 12 0
BBX 8 15 2 0
BITMAP
04
28
10
00
81
83
85
89
91
91
A1
C1
C1
81
81
ENDCHAR
STARTCHAR 041A
ENCODING 1050
SWIDTH 540 0
DWIDTH 9 0
BBX 7 12 2 0
BITMAP
02
84
88
90
A0
C0
C0
A0
90
88
84
82
ENDCHAR
STARTCHAR 041B
ENCODING 1051
SWIDTH 660 0
DWIDTH 11 0
BBX 8 12 1 0
BITMAP
1F
21
21
21
21
21
21
21
21
41
41
81
ENDCHAR
STARTCHAR 041C
ENCODING 1052
SWIDTH 840 0
DWIDTH 14 0
BBX 12 12 1 0
BITMAP
4000
4020
A060
A060
9090
9090
8910
8910
8610
8610
8010
8010
ENDCHAR
STARTCHAR 041D
ENCODING 1053
SWIDTH 660 0
DWIDTH 11 0
BBX 8 12 2 0
BITMAP
01
81
81
81
81
81
FF
81
81
81
81
81
ENDCHAR
STARTCHAR 041E
ENCODING 1054
SWIDTH 780 0
DWIDTH 13 0
BBX 11 12 1 0
BITMAP
0E00
3180
4040
8040
8040
8020
8020
8040
8040
4040
4080
3F00
ENDCHAR
STARTCHAR 041F
ENCODING 1055
SWIDTH 660 0
DWIDTH 11 0
BBX 8 12 2 0
BITMAP
FF
81
81
81
81
81
81
81
81
81
81
81
ENDCHAR
STARTCHAR 0420
ENCODING 1056
SWIDTH 600 0
DWIDTH 10 0
BBX 7 12 2 0
BITMAP
F0
8C
82
82
82
82
8C
F0
80
80
80
80
ENDCHAR
STARTCHAR 0421
ENCODING 1057
SWIDTH 600 0
DWIDTH 10 0
BBX 8 12 1 0
BITMAP
0E
31
40
80
80
80
80
80
80
40
40
3F
ENDCHAR
STARTCHAR 0422
ENCODING 1058
SWIDTH 540 0
DWIDTH 9 0
BBX 9 12 0 0
BITMAP
FF80
0800
0800
0800
0800
0800
0800
0800
0800
0800
0800
0800
ENDCHAR
STARTCHAR 0423
ENCODING 1059
SWIDTH 540 0
DWIDTH 9 0
BBX 8 12 0 0
BITMAP
80
81
41
42
22
22
14
14
08
08
10
60
ENDCHAR
STARTCHAR 0424
ENCODING 1060
SWIDTH 840 0
DWIDTH 14 0
BBX 12 12 1 0
BITMAP
0400
1F80
6460
8410
8410
8410
8410
8410
4420
2440
1F80
0400
ENDCHAR
STARTCHAR 0425
ENCODING 1061
SWIDTH 600 0
DWIDTH 10 0
BBX 9 12 0 0
BITMAP
0080
4100
2200
2200
1400
0800
0800
1400
2200
2100
4100
8080
ENDCHAR
STARTCHAR 0426
ENCODING 1062
SWIDTH 660 0
DWIDTH 11 0
BBX 8 15 2 -3
BITMAP
01
81
81
81
81
81
81
81
81
81
81
FF
01
01
01
ENDCHAR
STARTCHAR 0427
ENCODING 1063
SWIDTH 600 0
DWIDTH 10 0
BBX 7 12 1 0
BITMAP
80
82
82
82
82
82
42
3E
02
02
02
02
ENDCHAR
STARTCHAR 0428
ENCODING 1064
SWIDTH 960 0
DWIDTH 16 0
BBX 12 11 2 1
BITMAP
8410
8410
8410
8410
8410
8410
8410
8410
8410
8410
FFF0
ENDCHAR
STARTCHAR 0429
ENCODING 1065
SWIDTH 960 0
DWIDTH 16 0
BBX 13 14 2 -2
BITMAP
8410
8410
8410
8410
8410
8410
8410
8410
8410
8410
FFF8
0008
0008
0008
ENDCHAR
STARTCHAR 042A
ENCODING 1066
SWIDTH 720 0
DWIDTH 12 0
BBX 11 12 0 0
BITMAP
F000
1000
1000
1000
1000
1F80
1040
1020
1020
1020
1040
1F80
ENDCHAR
STARTCHAR 042B
ENCODING 1067
SWIDTH 780 0
DWIDTH 13 0
BBX 10 12 2 0
BITMAP
0040
8040
8040
8040
8040
F840
8440
8240
8240
8240
8440
F840
ENDCHAR
STARTCHAR 042C
ENCODING 1068
SWIDTH 600 0
DWIDTH 10 0
BBX 7 11 2 1
BITMAP
80
80
80
80
F8
84
82
82
82
84
F8
ENDCHAR
STARTCHAR 042D
ENCODING 1069
SWIDTH 600 0
DWIDTH 10 0
BBX 8 12 1 0
BITMAP
70
8C
02
02
01
01
3F
01
02
02
04
F8
ENDCHAR
STARTCHAR 042E
ENCODING 1070
SWIDTH 1020 0
DWIDTH 17 0
BBX 13 12 2 0
BITMAP
01C0
8630
8810
9008
9008
9008
F008
9008
9008
8808
8810
87E0
ENDCHAR
STARTCHAR 042F
ENCODING 1071
SWIDTH 600 0
DWIDTH 10 0
BBX 7 12 1 0
BITMAP
1E
62
82
82
82
82
62
3E
42
42
82
82
ENDCHAR
STARTCHAR 0430
ENCODING 1072
SWIDTH 480 0
DWIDTH 8 0
BBX 6 9 1 0
BITMAP
70
0C
04
04
7C
84
84
84
7C
ENDCHAR
STARTCHAR 0431
ENCODING 1073
SWIDTH 600 0
DWIDTH 10 0
BBX 7 13 1 0
BITMAP
0E
30
40
80
80
FE
82
82
82
82
82
42
3C
ENDCHAR
STARTCHAR 0432
ENCODING 1074
SWIDTH 540 0
DWIDTH 9 0
BBX 6 9 2 0
BITMAP
F0
88
88
88
F0
8C
84
84
F8
ENDCHAR
STARTCHAR 0433
ENCODING 1075
SWIDTH 360 0
DWIDTH 6 0
BBX 4 9 2 0
BITMAP
F0
80
80
80
80
80
80
80
80
ENDCHAR
STARTCHAR 0434
ENCODING 1076
SWIDTH 540 0
DWIDTH 9 0
BBX 8 11 0 -2
BITMAP
1F
21
21
21
21
21
21
41
FF
81
81
ENDCHAR
STARTCHAR 0435
ENCODING 1077
SWIDTH 540 0
DWIDTH 9 0
BBX 7 9 1 0
BITMAP
38
44
82
82
FE
80
80
80
7C
ENDCHAR
STARTCHAR 0436
ENCODING 1078
SWIDTH 660 0
DWIDTH 11 0
BBX 11 9 0 0
BITMAP
4400
2440
1480
0D00
0600
1D00
2480
4440
8420
ENDCHAR
STARTCHAR 0437
ENCODING 1079
SWIDTH 480 0
DWIDTH 8 0
BBX 6 9 1 0
BITMAP
70
08
08
08
70
08
04
04
F8
ENDCHAR
STARTCHAR 0438
ENCODING 1080
SWIDTH 600 0
DWIDTH 10 0
BBX 6 9 2 0
BITMAP
04
84
9C
94
A4
C4
C4
84
84
ENDCHAR
STARTCHAR 0439
ENCODING 1081
SWIDTH 600 0
DWIDTH 10 0
BBX 6 12 2 0
BITMAP
88
70
00
04
84
9C
94
A4
C4
C4
84
84
ENDCHAR
STARTCHAR 043A
ENCODING 1082
SWIDTH 480 0
DWIDTH 8 0
BBX 5 9 2 0
BITMAP
08
90
A0
C0
80
C0
A0
90
88
ENDCHAR
STARTCHAR 043B
ENCODING 1083
SWIDTH 540 0
DWIDTH 9 0
BBX 7 9 1 0
BITMAP
3E
22
22
22
42
42
42
42
82
ENDCHAR
STARTCHAR 043C
ENCODING 1084
SWIDTH 720 0
DWIDTH 12 0
BBX 10 9 1 0
BITMAP
4080
C080
A180
A280
9280
9480
8C80
8880
8040
ENDCHAR
STARTCHAR 043D
ENCODING 1085
SWIDTH 600 0
DWIDTH 10 0
BBX 6 8 2 1
BITMAP
84
84
84
FC
84
84
84
84
ENDCHAR
STARTCHAR 043E
ENCODING 1086
SWIDTH 600 0
DWIDTH 10 0
BBX 8 9 1 0
BITMAP
38
46
82
82
81
81
82
82
7C
ENDCHAR
STARTCHAR 043F
ENCODING 1087
SWIDTH 540 0
DWIDTH 9 0
BBX 6 9 2 0
BITMAP
FC
84
84
84
84
84
84
84
84
ENDCHAR
STARTCHAR 0440
ENCODING 1088
SWIDTH 540 0
DWIDTH 9 0
BBX 7 12 1 -3
BITMAP
78
84
82
82
82
82
82
82
EC
90
80
80
ENDCHAR
STARTCHAR 0441
ENCODING 1089
SWIDTH 480 0
DWIDTH 8 0
BBX 6 9 1 0
BITMAP
38
40
80
80
80
80
80
80
7C
ENDCHAR
STARTCHAR 0442
ENCODING 1090
SWIDTH 420 0
DWIDTH 7 0
BBX 7 9 0 0
BITMAP
FE
10
10
10
10
10
10
10
10
ENDCHAR
STARTCHAR 0443
ENCODING 1091
SWIDTH 420 0
DWIDTH 7 0
BBX 7 12 0 -3
BITMAP
82
82
42
44
44
24
28
28
18
10
10
60
ENDCHAR
STARTCHAR 0444
ENCODING 1092
SWIDTH 720 0
DWIDTH 12 0
BBX 10 15 1 -2
BITMAP
0800
0800
0800
0C00
3B80
C840
8840
8840
8840
8840
4880
3900
0E00
0800
0800
ENDCHAR
STARTCHAR 0445
ENCODING 1093
SWIDTH 480 0
DWIDTH 8 0
BBX 6 9 1 0
BITMAP
04
88
48
30
20
50
48
88
84
ENDCHAR
STARTCHAR 0446
ENCODING 1094
SWIDTH 540 0
DWIDTH 9 0
BBX 7 11 2 -2
BITMAP
04
84
84
84
84
84
84
84
FE
02
02
ENDCHAR
STARTCHAR 0447
ENCODING 1095
SWIDTH 480 0
DWIDTH 8 0
BBX 6 9 1 0
BITMAP
04
84
84
84
84
7C
04
04
04
ENDCHAR
STARTCHAR 0448
ENCODING 1096
SWIDTH 780 0
DWIDTH 13 0
BBX 10 9 2 0
BITMAP
0840
8840
8840
8840
8840
8840
8840
8840
FFC0
ENDCHAR
STARTCHAR 0449
ENCODING 1097
SWIDTH 780 0
DWIDTH 13 0
BBX 10 11 2 -2
BITMAP
0840
8840
8840
8840
8840
8840
8840
8840
FFC0
0040
0040
ENDCHAR
STARTCHAR 044A
ENCODING 1098
SWIDTH 540 0
DWIDTH 9 0
BBX 9 9 0 0
BITMAP
E000
2000
2000
2000
1F00
2080
2080
2080
1F00
ENDCHAR
STARTCHAR 044B
ENCODING 1099
SWIDTH 720 0
DWIDTH 12 0
BBX 8 8 2 1
BITMAP
81
81
81
F9
85
85
85
F9
ENDCHAR
STARTCHAR 044C
ENCODING 1100
SWIDTH 480 0
DWIDTH 8 0
BBX 6 8 2 1
BITMAP
80
80
80
F8
84
84
84
F8
ENDCHAR
STARTCHAR 044D
ENCODING 1101
SWIDTH 480 0
DWIDTH 8 0
BBX 7 9 0 0
BITMAP
70
0C
04
04
3E
02
04
04
F8
ENDCHAR
STARTCHAR 044E
ENCODING 1102
SWIDTH 720 0
DWIDTH 12 0
BBX 9 9 2 0
BITMAP
0E00
9100
A080
A080
E080
A080
A080
9080
8F00
ENDCHAR
STARTCHAR 044F
ENCODING 1103
SWIDTH 540 0
DWIDTH 9 0
BBX 7 9 0 0
BITMAP
1E
62
42
42
42
3E
22
42
82
ENDCHAR
STARTCHAR 0450
ENCODING 1104
SWIDTH 540 0
DWIDTH 9 0
BBX 7 12 1 1
BITMAP
20
10
00
38
44
82
82
FE
80
80
80
7C
ENDCHAR
STARTCHAR 0451
ENCODING 1105
SWIDTH 540 0
DWIDTH 9 0
BBX 7 12 1 0
BITMAP
28
00
00
38
44
82
82
FE
80
80
80
7C
ENDCHAR
STARTCHAR 0452
ENCODING 1106
SWIDTH 540 0
DWIDTH 9 0
BBX 7 15 1 -2
BITMAP
80
80
F0
80
80
7C
84
82
82
82
82
82
04
04
08
ENDCHAR
STARTCHAR 0453
ENCODING 1107
SWIDTH 360 0
DWIDTH 6 0
BBX 4 13 2 0
BITMAP
10
20
C0
00
F0
80
80
80
80
80
80
80
80
ENDCHAR
STARTCHAR 0454
ENCODING 1108
SWIDTH 480 0
DWIDTH 8 0
BBX 6 9 1 0
BITMAP
3C
40
80
80
F0
80
80
80
7C
ENDCHAR
STARTCHAR 0455
ENCODING 1109
SWIDTH 420 0
DWIDTH 7 0
BBX 5 9 1 0
BITMAP
70
80
80
80
60
18
08
08
F0
ENDCHAR
STARTCHAR 0456
ENCODING 1110
SWIDTH 240 0
DWIDTH 4 0
BBX 1 12 1 0
BITMAP
80
00
00
00
80
80
80
80
80
80
80
80
ENDCHAR
STARTCHAR 0457
ENCODING 1111
SWIDTH 240 0
DWIDTH 4 0
BBX 4 12 0 0
BITMAP
90
00
00
00
40
40
40
40
40
40
40
40
ENDCHAR
STARTCHAR 0458
ENCODING 1112
SWIDTH 240 0
DWIDTH 4 0
BBX 3 15 -1 -3
BITMAP
20
00
00
00
20
20
20
20
20
20
20
20
20
20
C0
ENDCHAR
STARTCHAR 0459
ENCODING 1113
SWIDTH 840 0
DWIDTH 14 0
BBX 12 9 1 0
BITMAP
3E00
2200
2200
2200
43E0
4210
4210
4210
83F0
ENDCHAR
STARTCHAR 045A
ENCODING 1114
SWIDTH 840 0
DWIDTH 14 0
BBX 12 8 2 1
BITMAP
8400
8400
8400
FFC0
8420
8410
8410
83E0
ENDCHAR
STARTCHAR 045B
ENCODING 1115
SWIDTH 540 0
DWIDTH 9 0
BBX 7 12 1 1
BITMAP
80
80
F0
80
80
7C
84
82
82
82
82
82
ENDCHAR
STARTCHAR 045C
ENCODING 1116
SWIDTH 480 0
DWIDTH 8 0
BBX 5 12 2 1
BITMAP
30
40
00
08
90
A0
C0
80
C0
A0
90
88
ENDCHAR
STARTCHAR 045D
ENCODING 1117
SWIDTH 600 0
DWIDTH 10 0
BBX 6 12 2 1
BITMAP
60
10
00
04
84
9C
94
A4
C4
C4
84
84
ENDCHAR
STARTCHAR 045E
ENCODING 1118
SWIDTH 420 0
DWIDTH 7 0
BBX 7 15 0 -3
BITMAP
24
18
00
82
82
42
44
44
24
28
28
18
10
10
60
ENDCHAR
STARTCHAR 045F
ENCODING 1119
SWIDTH 540 0
DWIDTH 9 0
BBX 6 11 2 -2
BITMAP
04
84
84
84
84
84
84
84
FC
20
20
ENDCHAR
STARTCHAR 0462
ENCODING 1122
SWIDTH 720 0
DWIDTH 12 0
BBX 11 12 0 0
BITMAP
1000
FF00
1000
1000
1000
0F80
1060
1020
1020
1020
1020
0FC0
ENDCHAR
STARTCHAR 0463
ENCODING 1123
SWIDTH 540 0
DWIDTH 9 0
BBX 9 12 0 1
BITMAP
2000
2000
2000
FC00
2000
2000
2000
1F00
2080
2080
2080
1F00
ENDCHAR
STARTCHAR 0472
ENCODING 1138
SWIDTH 780 0
DWIDTH 13 0
BBX 11 12 1 0
BITMAP
0E00
3180
4040
8040
8040
B020
CE60
81C0
8040
4040
4080
3F00
ENDCHAR
STARTCHAR 0473
ENCODING 1139
SWIDTH 600 0
DWIDTH 10 0
BBX 8 9 1 0
BITMAP
38
46
82
82
F3
8D
82
82
7C
ENDCHAR
STARTCHAR 0474
ENCODING 1140
SWIDTH 720 0
DWIDTH 12 0
BBX 11 12 0 0
BITMAP
8020
80C0
4080
4080
4100
2100
2200
2200
1200
1400
0C00
0800
ENDCHAR
STARTCHAR 0475
ENCODING 1141
SWIDTH 540 0
DWIDTH 9 0
BBX 9 9 0 0
BITMAP
8180
8200
8400
4400
4400
4800
2800
2800
1000
ENDCHAR
STARTCHAR 048A
ENCODING 1162
SWIDTH 720 0
DWIDTH 12 0
BBX 9 18 2 -3
BITMAP
0400
2800
1000
0000
8100
8300
8500
8900
9100
9100
A100
C100
C100
8100
8180
0080
0100
0100
ENDCHAR
STARTCHAR 048B
ENCODING 1163
SWIDTH 600 0
DWIDTH 10 0
BBX 7 15 2 -3
BITMAP
88
70
00
04
84
9C
94
A4
C4
C4
84
86
02
04
04
ENDCHAR
STARTCHAR 048C
ENCODING 1164
SWIDTH 600 0
DWIDTH 10 0
BBX 9 11 0 1
BITMAP
4000
F800
4000
4000
3F00
4080
4080
4080
4080
4080
3F00
ENDCHAR
STARTCHAR 048D
ENCODING 1165
SWIDTH 480 0
DWIDTH 8 0
BBX 8 9 0 0
BITMAP
40
F8
40
40
3E
41
41
41
3E
ENDCHAR
STARTCHAR 048E
ENCODING 1166
SWIDTH 600 0
DWIDTH 10 0
BBX 7 12 2 0
BITMAP
F0
8C
82
82
82
A2
9C
E8
88
80
80
80
ENDCHAR
STARTCHAR 048F
ENCODING 1167
SWIDTH 540 0
DWIDTH 9 0
BBX 7 12 1 -3
BITMAP
78
84
82
82
82
82
8A
8A
EC
94
80
80
ENDCHAR
STARTCHAR 0490
ENCODING 1168
SWIDTH 480 0
DWIDTH 8 0
BBX 5 13 2 1
BITMAP
08
F8
80
80
80
80
80
80
80
80
80
80
80
ENDCHAR
STARTCHAR 0491
ENCODING 1169
SWIDTH 360 0
DWIDTH 6 0
BBX 4 11 2 0
BITMAP
10
10
F0
80
80
80
80
80
80
80
80
ENDCHAR
STARTCHAR 0492
ENCODING 1170
SWIDTH 480 0
DWIDTH 8 0
BBX 6 12 1 0
BITMAP
7C
80
80
80
80
80
E0
80
80
80
80
80
ENDCHAR
STARTCHAR 0493
ENCODING 1171
SWIDTH 360 0
DWIDTH 6 0
BBX 5 9 1 0
BITMAP
F8
80
80
80
80
E0
80
80
80
ENDCHAR
STARTCHAR 0494
ENCODING 1172
SWIDTH 600 0
DWIDTH 10 0
BBX 7 15 2 -3
BITMAP
FC
80
80
80
80
F8
84
82
82
82
82
82
02
04
38
ENDCHAR
STARTCHAR 0495
ENCODING 1173
SWIDTH 540 0
DWIDTH 9 0
BBX 6 12 2 -3
BITMAP
F8
80
80
80
F8
84
84
84
84
04
08
18
ENDCHAR
STARTCHAR 0496
ENCODING 1174
SWIDTH 840 0
DWIDTH 14 0
BBX 14 15 0 -3
BITMAP
4208
4210
2220
1240
0A80
0700
0700
0A80
1240
2220
4210
820C
0004
0004
0004
ENDCHAR
STARTCHAR 0497
ENCODING 1175
SWIDTH 720 0
DWIDTH 12 0
BBX 12 11 0 -2
BITMAP
4420
2440
1480
0D00
0600
1D00
2480
4440
8430
0010
0010
ENDCHAR
STARTCHAR 0498
ENCODING 1176
SWIDTH 540 0
DWIDTH 9 0
BBX 7 15 1 -3
BITMAP
70
0C
04
04
04
18
24
02
02
02
02
CC
30
10
10
ENDCHAR
STARTCHAR 0499
ENCODING 1177
SWIDTH 480 0
DWIDTH 8 0
BBX 6 12 1 -3
BITMAP
70
08
08
08
70
08
04
04
88
70
10
20
ENDCHAR
STARTCHAR 049A
ENCODING 1178
SWIDTH 600 0
DWIDTH 10 0
BBX 8 15 2 -3
BITMAP
02
84
88
90
A0
C0
C0
A0
90
88
84
83
01
01
01
ENDCHAR
STARTCHAR 049B
ENCODING 1179
SWIDTH 480 0
DWIDTH 8 0
BBX 6 11 2 -2
BITMAP
08
90
A0
C0
80
C0
A0
90
8C
04
04
ENDCHAR
STARTCHAR 049C
ENCODING 1180
SWIDTH 600 0
DWIDTH 10 0
BBX 8 12 2 0
BITMAP
01
82
84
C8
D0
E0
E0
D0
C8
84
82
81
ENDCHAR
STARTCHAR 049D
ENCODING 1181
SWIDTH 540 0
DWIDTH 9 0
BBX 6 9 2 0
BITMAP
04
88
90
D0
E0
D0
88
84
84
ENDCHAR
STARTCHAR 049E
ENCODING 1182
SWIDTH 600 0
DWIDTH 10 0
BBX 8 12 1 0
BITMAP
01
82
E4
88
90
A0
E0
90
88
84
82
81
ENDCHAR
STARTCHAR 049F
ENCODING 1183
SWIDTH 480 0
DWIDTH 8 0
BBX 7 12 0 1
BITMAP
F0
40
40
42
44
48
50
20
58
44
42
42
ENDCHAR
STARTCHAR 04A0
ENCODING 1184
SWIDTH 660 0
DWIDTH 11 0
BBX 11 12 0 0
BITMAP
F020
1040
1080
1100
1600
1800
1400
1200
1100
1080
1040
1020
ENDCHAR
STARTCHAR 04A1
ENCODING 1185
SWIDTH 540 0
DWIDTH 9 0
BBX 8 9 0 0
BITMAP
E1
22
24
28
10
28
24
22
21
ENDCHAR
STARTCHAR 04A2
ENCODING 1186
SWIDTH 660 0
DWIDTH 11 0
BBX 8 15 2 -3
BITMAP
01
81
81
81
81
81
FF
81
81
81
81
81
01
01
01
ENDCHAR
STARTCHAR 04A3
ENCODING 1187
SWIDTH 600 0
DWIDTH 10 0
BBX 7 10 2 -1
BITMAP
84
84
84
FC
84
84
84
86
02
02
ENDCHAR
STARTCHAR 04A4
ENCODING 1188
SWIDTH 780 0
DWIDTH 13 0
BBX 11 12 2 0
BITMAP
01E0
8100
8100
8100
8100
8100
FF00
8100
8100
8100
8100
8100
ENDCHAR
STARTCHAR 04A5
ENCODING 1189
SWIDTH 660 0
DWIDTH 11 0
BBX 8 9 2 0
BITMAP
03
84
84
84
FC
84
84
84
84
ENDCHAR
STARTCHAR 04A6
ENCODING 1190
SWIDTH 1020 0
DWIDTH 17 0
BBX 14 15 2 -3
BITMAP
FE00
8200
8200
8200
8200
81F0
8208
8204
8204
8204
8204
8204
0004
0008
0070
ENDCHAR
STARTCHAR 04A7
ENCODING 1191
SWIDTH 840 0
DWIDTH 14 0
BBX 12 12 2 -3
BITMAP
FC00
8400
8400
8400
87E0
8420
8410
8410
8410
0010
0020
00C0
ENDCHAR
STARTCHAR 04A8
ENCODING 1192
SWIDTH 780 0
DWIDTH 13 0
BBX 11 12 1 0
BITMAP
0E00
3000
4000
8100
86C0
8440
8840
8840
8440
8440
4280
3FE0
ENDCHAR
STARTCHAR 04A9
ENCODING 1193
SWIDTH 600 0
DWIDTH 10 0
BBX 8 9 1 0
BITMAP
38
40
84
9A
91
91
92
8A
7E
ENDCHAR
STARTCHAR 04AA
ENCODING 1194
SWIDTH 600 0
DWIDTH 10 0
BBX 8 15 1 -3
BITMAP
0E
31
40
80
80
80
80
80
80
40
40
31
0E
04
1C
ENDCHAR
STARTCHAR 04AB
ENCODING 1195
SWIDTH 480 0
DWIDTH 8 0
BBX 6 12 1 -3
BITMAP
38
40
80
80
80
80
80
80
64
18
08
10
ENDCHAR
STARTCHAR 04AC
ENCODING 1196
SWIDTH 540 0
DWIDTH 9 0
BBX 9 15 0 -3
BITMAP
FF80
0800
0800
0800
0800
0800
0800
0800
0800
0800
0800
0800
0800
0800
0800
ENDCHAR
STARTCHAR 04AD
ENCODING 1197
SWIDTH 420 0
DWIDTH 7 0
BBX 6 11 0 -2
BITMAP
FC
10
10
10
10
10
10
10
10
10
10
ENDCHAR
STARTCHAR 04AE
ENCODING 1198
SWIDTH 540 0
DWIDTH 9 0
BBX 9 12 0 0
BITMAP
8080
8100
4100
4200
2200
1400
1800
0800
0800
0800
0800
0800
ENDCHAR
STARTCHAR 04AF
ENCODING 1199
SWIDTH 480 0
DWIDTH 8 0
BBX 7 12 0 -3
BITMAP
80
82
42
44
44
24
28
28
18
10
10
10
ENDCHAR
STARTCHAR 04B0
ENCODING 1200
SWIDTH 540 0
DWIDTH 9 0
BBX 9 12 0 0
BITMAP
8080
8100
4100
4200
2200
1400
1800
0800
3E00
0800
0800
0800
ENDCHAR
STARTCHAR 04B1
ENCODING 1201
SWIDTH 480 0
DWIDTH 8 0
BBX 7 12 0 -3
BITMAP
80
82
42
44
44
24
28
28
7E
10
10
10
ENDCHAR
STARTCHAR 04B2
ENCODING 1202
SWIDTH 600 0
DWIDTH 10 0
BBX 10 15 0 -3
BITMAP
0080
4100
2200
2200
1400
0800
0800
1400
2200
2100
4100
80C0
0040
0040
0040
ENDCHAR
STARTCHAR 04B3
ENCODING 1203
SWIDTH 480 0
DWIDTH 8 0
BBX 7 11 1 -2
BITMAP
04
88
48
30
20
50
48
88
86
02
02
ENDCHAR
STARTCHAR 04B4
ENCODING 1204
SWIDTH 840 0
DWIDTH 14 0
BBX 13 15 0 -3
BITMAP
FF10
1010
1010
1010
1010
1010
1010
1010
1010
1010
1010
0FF8
0008
0008
0008
ENDCHAR
STARTCHAR 04B5
ENCODING 1205
SWIDTH 660 0
DWIDTH 11 0
BBX 9 11 1 -2
BITMAP
FC80
2080
2080
2080
2080
2080
2080
2080
3F80
0080
0080
ENDCHAR
STARTCHAR 04B6
ENCODING 1206
SWIDTH 600 0
DWIDTH 10 0
BBX 8 15 1 -3
BITMAP
80
82
82
82
82
82
42
3E
02
02
02
01
01
01
01
ENDCHAR
STARTCHAR 04B7
ENCODING 1207
SWIDTH 480 0
DWIDTH 8 0
BBX 7 11 1 -2
BITMAP
04
84
84
84
84
7C
04
04
06
02
02
ENDCHAR
STARTCHAR 04B8
ENCODING 1208
SWIDTH 600 0
DWIDTH 10 0
BBX 8 12 1 0
BITMAP
81
81
81
81
81
91
51
3F
11
01
01
01
ENDCHAR
STARTCHAR 04B9
ENCODING 1209
SWIDTH 480 0
DWIDTH 8 0
BBX 6 9 1 0
BITMAP
04
84
84
84
A4
7C
24
04
04
ENDCHAR
STARTCHAR 04BA
ENCODING 1210
SWIDTH 600 0
DWIDTH 10 0
BBX 7 11 2 1
BITMAP
80
80
80
80
FC
84
82
82
82
82
82
ENDCHAR
STARTCHAR 04BB
ENCODING 1211
SWIDTH 540 0
DWIDTH 9 0
BBX 7 13 1 0
BITMAP
80
80
80
80
B8
C4
82
82
82
82
82
82
82
ENDCHAR
STARTCHAR 04BC
ENCODING 1212
SWIDTH 780 0
DWIDTH 13 0
BBX 12 12 0 0
BITMAP
0380
0460
0820
9010
9010
5010
3FE0
1000
1000
1000
0800
07E0
ENDCHAR
STARTCHAR 04BD
ENCODING 1213
SWIDTH 660 0
DWIDTH 11 0
BBX 9 9 1 0
BITMAP
0E00
3100
A100
C080
7F80
4000
2000
2000
1F00
ENDCHAR
STARTCHAR 04BE
ENCODING 1214
SWIDTH 780 0
DWIDTH 13 0
BBX 12 15 0 -3
BITMAP
0380
0460
0820
9010
9010
5010
3FE0
1000
1000
1000
0800
0620
01C0
0100
0100
ENDCHAR
STARTCHAR 04BF
ENCODING 1215
SWIDTH 660 0
DWIDTH 11 0
BBX 9 11 1 -2
BITMAP
0E00
3100
A100
C080
7F80
4000
2000
2000
1900
0600
0400
ENDCHAR
STARTCHAR 04C0
ENCODING 1216
SWIDTH 240 0
DWIDTH 4 0
BBX 1 11 1 1
BITMAP
80
80
80
80
80
80
80
80
80
80
80
ENDCHAR
STARTCHAR 04C1
ENCODING 1217
SWIDTH 780 0
DWIDTH 13 0
BBX 13 15 0 0
BITMAP
0080
0500
0200
4208
4210
2220
1240
0A80
0700
0700
0A80
1240
2220
4210
8208
ENDCHAR
STARTCHAR 04C2
ENCODING 1218
SWIDTH 660 0
DWIDTH 11 0
BBX 11 12 0 0
BITMAP
1100
0E00
0000
4400
2440
1480
0D00
0600
1D00
2480
4440
8420
ENDCHAR
STARTCHAR 04C3
ENCODING 1219
SWIDTH 600 0
DWIDTH 10 0
BBX 7 15 2 -3
BITMAP
02
84
88
90
A0
C0
B8
84
82
82
82
82
02
04
18
ENDCHAR
STARTCHAR 04C4
ENCODING 1220
SWIDTH 540 0
DWIDTH 9 0
BBX 6 11 2 -2
BITMAP
98
A0
C0
E0
98
84
84
84
04
08
18
ENDCHAR
STARTCHAR 04C5
ENCODING 1221
SWIDTH 660 0
DWIDTH 11 0
BBX 9 15 1 -3
BITMAP
1F00
2100
2100
2100
2100
2100
2100
2100
2100
4100
4100
8080
0080
0080
0100
ENDCHAR
STARTCHAR 04C6
ENCODING 1222
SWIDTH 540 0
DWIDTH 9 0
BBX 7 11 1 -3
BITMAP
3E
22
22
22
42
42
42
42
82
02
02
ENDCHAR
STARTCHAR 04C7
ENCODING 1223
SWIDTH 660 0
DWIDTH 11 0
BBX 8 15 2 -3
BITMAP
01
81
81
81
81
81
FF
81
81
81
81
81
01
01
02
ENDCHAR
STARTCHAR 04C8
ENCODING 1224
SWIDTH 600 0
DWIDTH 10 0
BBX 6 11 2 -2
BITMAP
84
84
84
FC
84
84
84
84
04
04
1C
ENDCHAR
STARTCHAR 04C9
ENCODING 1225
SWIDTH 660 0
DWIDTH 11 0
BBX 9 15 2 -3
BITMAP
0100
8100
8100
8100
8100
8100
FF00
8100
8100
8100
8100
8180
0100
0100
0100
ENDCHAR
STARTCHAR 04CA
ENCODING 1226
SWIDTH 600 0
DWIDTH 10 0
BBX 7 11 2 -2
BITMAP
84
84
84
FC
84
84
84
86
02
04
04
ENDCHAR
STARTCHAR 04CB
ENCODING 1227
SWIDTH 600 0
DWIDTH 10 0
BBX 7 15 1 -3
BITMAP
80
82
82
82
82
82
42
3E
02
02
02
02
04
04
04
ENDCHAR
STARTCHAR 04CC
ENCODING 1228
SWIDTH 480 0
DWIDTH 8 0
BBX 6 11 1 -2
BITMAP
04
84
84
84
84
7C
04
04
0C
08
08
ENDCHAR
STARTCHAR 04CD
ENCODING 1229
SWIDTH 840 0
DWIDTH 14 0
BBX 13 15 1 -3
BITMAP
4000
4020
A060
A060
9090
9090
8910
8910
8610
8610
8010
8018
0008
0010
0010
ENDCHAR
STARTCHAR 04CE
ENCODING 1230
SWIDTH 720 0
DWIDTH 12 0
BBX 10 11 1 -3
BITMAP
4080
C080
A180
A280
9280
9480
8C80
8880
8040
0040
0040
ENDCHAR
STARTCHAR 04CF
ENCODING 1231
SWIDTH 240 0
DWIDTH 4 0
BBX 1 11 1 1
BITMAP
80
80
80
80
80
80
80
80
80
80
80
ENDCHAR
STARTCHAR 04D0
ENCODING 1232
SWIDTH 600 0
DWIDTH 10 0
BBX 10 15 0 0
BITMAP
1000
1200
0C00
0000
0C00
0C00
1200
1200
2100
2100
2100
3F80
4080
8080
8040
ENDCHAR
STARTCHAR 04D1
ENCODING 1233
SWIDTH 480 0
DWIDTH 8 0
BBX 6 12 1 0
BITMAP
48
30
00
70
0C
04
04
7C
84
84
84
7C
ENDCHAR
STARTCHAR 04D2
ENCODING 1234
SWIDTH 600 0
DWIDTH 10 0
BBX 10 14 0 0
BITMAP
1200
0000
0000
0C00
0C00
1200
1200
2100
2100
2100
3F80
4080
8080
8040
ENDCHAR
STARTCHAR 04D3
ENCODING 1235
SWIDTH 480 0
DWIDTH 8 0
BBX 6 12 1 0
BITMAP
08
00
00
70
0C
04
04
7C
84
84
84
7C
ENDCHAR
STARTCHAR 04D4
ENCODING 1236
SWIDTH 900 0
DWIDTH 15 0
BBX 14 12 0 0
BITMAP
01FC
0300
0300
0500
0900
0900
11F8
2100
3F00
4100
4100
80FC
ENDCHAR
STARTCHAR 04D5
ENCODING 1237
SWIDTH 840 0
DWIDTH 14 0
BBX 12 9 1 0
BITMAP
70C0
0B20
0410
0410
7FF0
8400
8400
8200
7DF0
ENDCHAR
STARTCHAR 04D6
ENCODING 1238
SWIDTH 540 0
DWIDTH 9 0
BBX 6 15 2 0
BITMAP
08
50
20
FC
80
80
80
80
80
F8
80
80
80
80
FC
ENDCHAR
STARTCHAR 04D7
ENCODING 1239
SWIDTH 540 0
DWIDTH 9 0
BBX 7 12 1 0
BITMAP
44
38
00
38
44
82
82
FE
80
80
80
7C
ENDCHAR
STARTCHAR 04D8
ENCODING 1240
SWIDTH 660 0
DWIDTH 11 0
BBX 9 12 1 0
BITMAP
3C00
4300
0100
0080
0080
0080
FF80
8080
8080
8080
4100
3E00
ENDCHAR
STARTCHAR 04D9
ENCODING 1241
SWIDTH 540 0
DWIDTH 9 0
BBX 7 9 1 0
BITMAP
78
04
02
02
02
FE
82
84
78
ENDCHAR
STARTCHAR 04DA
ENCODING 1242
SWIDTH 660 0
DWIDTH 11 0
BBX 9 14 1 0
BITMAP
1400
0000
3C00
4300
0100
0080
0080
0080
FF80
8080
8080
8080
4100
3E00
ENDCHAR
STARTCHAR 04DB
ENCODING 1243
SWIDTH 540 0
DWIDTH 9 0
BBX 7 12 1 0
BITMAP
08
00
00
78
04
02
02
02
FE
82
84
78
ENDCHAR
STARTCHAR 04DC
ENCODING 1244
SWIDTH 780 0
DWIDTH 13 0
BBX 13 14 0 0
BITMAP
0400
0000
4208
4210
2220
1240
0A80
0700
0700
0A80
1240
2220
4210
8208
ENDCHAR
STARTCHAR 04DD
ENCODING 1245
SWIDTH 660 0
DWIDTH 11 0
BBX 11 12 0 0
BITMAP
0800
0000
0000
4400
2440
1480
0D00
0600
1D00
2480
4440
8420
ENDCHAR
STARTCHAR 04DE
ENCODING 1246
SWIDTH 540 0
DWIDTH 9 0
BBX 7 14 1 0
BITMAP
48
00
70
0C
04
04
04
18
24
02
02
02
04
FC
ENDCHAR
STARTCHAR 04DF
ENCODING 1247
SWIDTH 480 0
DWIDTH 8 0
BBX 6 12 1 0
BITMAP
40
00
00
70
08
08
08
70
08
04
04
F8
ENDCHAR
STARTCHAR 04E0
ENCODING 1248
SWIDTH 540 0
DWIDTH 9 0
BBX 7 12 1 0
BITMAP
FE
04
04
08
10
20
1C
02
02
02
02
FC
ENDCHAR
STARTCHAR 04E1
ENCODING 1249
SWIDTH 420 0
DWIDTH 7 0
BBX 7 12 0 -3
BITMAP
FC
04
08
08
10
20
1C
02
02
02
04
F8
ENDCHAR
STARTCHAR 04E2
ENCODING 1250
SWIDTH 720 0
DWIDTH 12 0
BBX 8 14 2 0
BITMAP
38
00
00
81
83
85
89
91
91
A1
C1
C1
81
81
ENDCHAR
STARTCHAR 04E3
ENCODING 1251
SWIDTH 600 0
DWIDTH 10 0
BBX 6 12 2 0
BITMAP
78
00
00
04
84
9C
94
A4
C4
C4
84
84
ENDCHAR
STARTCHAR 04E4
ENCODING 1252
SWIDTH 720 0
DWIDTH 12 0
BBX 8 14 2 0
BITMAP
24
00
00
81
83
85
89
91
91
A1
C1
C1
81
81
ENDCHAR
STARTCHAR 04E5
ENCODING 1253
SWIDTH 600 0
DWIDTH 10 0
BBX 6 12 2 0
BITMAP
40
00
00
04
84
9C
94
A4
C4
C4
84
84
ENDCHAR
STARTCHAR 04E6
ENCODING 1254
SWIDTH 780 0
DWIDTH 13 0
BBX 11 14 1 0
BITMAP
0A00
0000
0E00
3180
4040
8040
8040
8020
8020
8040
8040
4040
4080
3F00
ENDCHAR
STARTCHAR 04E7
ENCODING 1255
SWIDTH 600 0
DWIDTH 10 0
BBX 8 12 1 0
BITMAP
20
00
00
38
46
82
82
81
81
82
82
7C
ENDCHAR
STARTCHAR 04E8
ENCODING 1256
SWIDTH 780 0
DWIDTH 13 0
BBX 11 12 1 0
BITMAP
0E00
3180
4040
8040
8040
8020
FFE0
8040
8040
4040
4080
3F00
ENDCHAR
STARTCHAR 04E9
ENCODING 1257
SWIDTH 600 0
DWIDTH 10 0
BBX 8 9 1 0
BITMAP
38
46
82
82
FF
81
82
82
7C
ENDCHAR
STARTCHAR 04EA
ENCODING 1258
SWIDTH 780 0
DWIDTH 13 0
BBX 11 14 1 0
BITMAP
0A00
0000
0E00
3180
4040
8040
8040
8020
FFE0
8040
8040
4040
4080
3F00
ENDCHAR
STARTCHAR 04EB
ENCODING 1259
SWIDTH 600 0
DWIDTH 10 0
BBX 8 12 1 0
BITMAP
20
00
00
38
46
82
82
FF
81
82
82
7C
ENDCHAR
STARTCHAR 04EC
ENCODING 1260
SWIDTH 600 0
DWIDTH 10 0
BBX 8 14 1 0
BITMAP
48
00
70
8C
02
02
01
01
3F
01
02
02
04
F8
ENDCHAR
STARTCHAR 04ED
ENCODING 1261
SWIDTH 480 0
DWIDTH 8 0
BBX 7 12 0 0
BITMAP
48
00
00
70
0C
04
04
3E
02
04
04
F8
ENDCHAR
STARTCHAR 04EE
ENCODING 1262
SWIDTH 540 0
DWIDTH 9 0
BBX 8 14 0 0
BITMAP
1C
00
80
81
41
42
22
22
14
14
08
08
10
60
ENDCHAR
STARTCHAR 04EF
ENCODING 1263
SWIDTH 420 0
DWIDTH 7 0
BBX 7 15 0 -3
BITMAP
3C
00
00
82
82
42
44
44
24
28
28
18
10
10
60
ENDCHAR
STARTCHAR 04F0
ENCODING 1264
SWIDTH 540 0
DWIDTH 9 0
BBX 8 14 0 0
BITMAP
14
00
80
81
41
42
22
22
14
14
08
08
10
60
ENDCHAR
STARTCHAR 04F1
ENCODING 1265
SWIDTH 420 0
DWIDTH 7 0
BBX 7 15 0 -3
BITMAP
20
00
00
82
82
42
44
44
24
28
28
18
10
10
60
ENDCHAR
STARTCHAR 04F2
ENCODING 1266
SWIDTH 540 0
DWIDTH 9 0
BBX 8 15 0 0
BITMAP
0A
14
04
80
81
41
42
22
22
14
14
08
08
10
60
ENDCHAR
STARTCHAR 04F3
ENCODING 1267
SWIDTH 420 0
DWIDTH 7 0
BBX 7 16 0 -3
BITMAP
08
16
24
00
82
82
42
44
44
24
28
28
18
10
10
60
ENDCHAR
STARTCHAR 04F4
ENCODING 1268
SWIDTH 600 0
DWIDTH 10 0
BBX 7 14 1 0
BITMAP
20
00
80
82
82
82
82
82
42
3E
02
02
02
02
ENDCHAR
STARTCHAR 04F5
ENCODING 1269
SWIDTH 480 0
DWIDTH 8 0
BBX 6 12 1 0
BITMAP
48
00
00
04
84
84
84
84
7C
04
04
04
ENDCHAR
STARTCHAR 04F6
ENCODING 1270
SWIDTH 480 0
DWIDTH 8 0
BBX 5 15 2 -3
BITMAP
F8
80
80
80
80
80
80
80
80
80
80
80
80
80
80
ENDCHAR
STARTCHAR 04F7
ENCODING 1271
SWIDTH 360 0
DWIDTH 6 0
BBX 4 11 2 -2
BITMAP
F0
80
80
80
80
80
80
80
80
80
80
ENDCHAR
STARTCHAR 04F8
ENCODING 1272
SWIDTH 780 0
DWIDTH 13 0
BBX 10 14 2 0
BITMAP
1400
0000
0040
8040
8040
8040
8040
F840
8440
8240
8240
8240
8440
F840
ENDCHAR
STARTCHAR 04F9
ENCODING 1273
SWIDTH 720 0
DWIDTH 12 0
BBX 8 12 2 0
BITMAP
24
00
00
00
81
81
81
F9
85
85
85
F9
ENDCHAR
STARTCHAR 1E80
ENCODING 7808
SWIDTH 900 0
DWIDTH 15 0
BBX 13 15 1 0
BITMAP
0400
0300
0000
0000
8008
8208
8608
8508
8510
8910
4890
4890
50A0
3060
2020
ENDCHAR
STARTCHAR 1E81
ENCODING 7809
SWIDTH 780 0
DWIDTH 13 0
BBX 12 13 0 0
BITMAP
0800
0400
0200
0000
8200
8210
4610
4610
4520
4920
2920
28C0
1040
ENDCHAR
STARTCHAR 1E82
ENCODING 7810
SWIDTH 900 0
DWIDTH 15 0
BBX 13 15 1 0
BITMAP
0100
0600
0000
0000
8008
8208
8608
8508
8510
8910
4890
4890
50A0
3060
2020
ENDCHAR
STARTCHAR 1E83
ENCODING 7811
SWIDTH 780 0
DWIDTH 13 0
BBX 12 13 0 0
BITMAP
0080
0100
0200
0000
8200
8210
4610
4610
4520
4920
2920
28C0
1040
ENDCHAR
STARTCHAR 1E84
ENCODING 7812
SWIDTH 900 0
DWIDTH 15 0
BBX 13 14 1 0
BITMAP
0500
0000
0000
8008
8208
8608
8508
8510
8910
4890
4890
50A0
3060
2020
ENDCHAR
STARTCHAR 1E85
ENCODING 7813
SWIDTH 780 0
DWIDTH 13 0
BBX 12 12 0 0
BITMAP
0500
0000
0000
8200
8210
4610
4610
4520
4920
2920
28C0
1040
ENDCHAR
STARTCHAR 1EF2
ENCODING 7922
SWIDTH 540 0
DWIDTH 9 0
BBX 9 15 0 0
BITMAP
1000
0800
0000
8080
8100
4100
4200
2200
1400
1800
0800
0800
0800
0800
0800
ENDCHAR
STARTCHAR 1EF3
ENCODING 7923
SWIDTH 420 0
DWIDTH 7 0
BBX 7 16 0 -3
BITMAP
20
10
08
00
82
82
42
44
44
24
28
28
18
10
10
60
ENDCHAR
STARTCHAR 1F00
ENCODING 7936
SWIDTH 600 0
DWIDTH 10 0
BBX 8 13 1 0
BITMAP
08
08
10
00
1C
62
82
82
82
82
82
82
7D
ENDCHAR
STARTCHAR 1F01
ENCODING 7937
SWIDTH 600 0
DWIDTH 10 0
BBX 8 13 1 0
BITMAP
10
10
10
00
1C
62
82
82
82
82
82
82
7D
ENDCHAR
STARTCHAR 1F02
ENCODING 7938
SWIDTH 600 0
DWIDTH 10 0
BBX 8 13 1 0
BITMAP
28
28
24
00
1C
62
82
82
82
82
82
82
7D
ENDCHAR
STARTCHAR 1F03
ENCODING 7939
SWIDTH 600 0
DWIDTH 10 0
BBX 8 12 1 1
BITMAP
48
28
00
1C
62
82
82
82
82
82
82
7D
ENDCHAR
STARTCHAR 1F04
ENCODING 7940
SWIDTH 600 0
DWIDTH 10 0
BBX 8 13 1 0
BITMAP
10
14
28
00
1C
62
82
82
82
82
82
82
7D
ENDCHAR
STARTCHAR 1F05
ENCODING 7941
SWIDTH 600 0
DWIDTH 10 0
BBX 8 13 1 0
BITMAP
20
44
28
00
1C
62
82
82
82
82
82
82
7D
ENDCHAR
STARTCHAR 1F06
ENCODING 7942
SWIDTH 600 0
DWIDTH 10 0
BBX 8 15 1 0
BITMAP
18
24
00
18
10
00
1C
62
82
82
82
82
82
82
7D
ENDCHAR
STARTCHAR 1F07
ENCODING 7943
SWIDTH 600 0
DWIDTH 10 0
BBX 8 15 1 0
BITMAP
18
24
00
18
10
00
1C
62
82
82
82
82
82
82
7D
ENDCHAR
STARTCHAR 1F08
ENCODING 7944
SWIDTH 600 0
DWIDTH 10 0
BBX 10 11 0 1
BITMAP
2C00
4C00
1200
1200
2100
2100
2100
3F80
4080
8080
8040
ENDCHAR
STARTCHAR 1F09
ENCODING 7945
SWIDTH 600 0
DWIDTH 10 0
BBX 10 11 0 1
BITMAP
4C00
4C00
1200
1200
2100
2100
2100
3F80
4080
8080
8040
ENDCHAR
STARTCHAR 1F0A
ENCODING 7946
SWIDTH 720 0
DWIDTH 12 0
BBX 12 11 0 1
BITMAP
A300
9500
0500
0880
0880
0840
1040
1FC0
1020
2020
2010
ENDCHAR
STARTCHAR 1F0B
ENCODING 7947
SWIDTH 720 0
DWIDTH 12 0
BBX 11 12 0 0
BITMAP
0200
A600
9500
0500
0880
0880
1080
1040
1FC0
2020
2020
2020
ENDCHAR
STARTCHAR 1F0C
ENCODING 7948
SWIDTH 660 0
DWIDTH 11 0
BBX 11 11 0 1
BITMAP
9600
A600
0900
0900
1080
1080
1080
1FC0
2040
4020
4020
ENDCHAR
STARTCHAR 1F0D
ENCODING 7949
SWIDTH 720 0
DWIDTH 12 0
BBX 11 12 0 0
BITMAP
0200
9600
A500
0900
0900
0880
1080
1040
1FC0
2040
2020
4020
ENDCHAR
STARTCHAR 1F0E
ENCODING 7950
SWIDTH 600 0
DWIDTH 10 0
BBX 10 13 0 0
BITMAP
C000
2000
0C00
5400
9200
1200
2200
2100
4100
7F80
4080
8080
8040
ENDCHAR
STARTCHAR 1F0F
ENCODING 7951
SWIDTH 600 0
DWIDTH 10 0
BBX 10 13 0 0
BITMAP
C000
2000
0C00
4C00
5200
1200
2100
2100
2100
3F80
4080
8040
8040
ENDCHAR
STARTCHAR 1F10
ENCODING 7952
SWIDTH 480 0
DWIDTH 8 0
BBX 6 13 1 0
BITMAP
10
10
20
00
38
C0
80
80
70
C0
80
80
7C
ENDCHAR
STARTCHAR 1F11
ENCODING 7953
SWIDTH 480 0
DWIDTH 8 0
BBX 6 13 1 0
BITMAP
20
20
20
00
38
C0
80
80
70
C0
80
80
7C
ENDCHAR
STARTCHAR 1F12
ENCODING 7954
SWIDTH 480 0
DWIDTH 8 0
BBX 6 12 1 1
BITMAP
48
48
00
38
C0
80
80
70
C0
80
80
7C
ENDCHAR
STARTCHAR 1F13
ENCODING 7955
SWIDTH 480 0
DWIDTH 8 0
BBX 6 13 1 0
BITMAP
40
90
48
00
38
C0
80
80
70
C0
80
80
7C
ENDCHAR
STARTCHAR 1F14
ENCODING 7956
SWIDTH 480 0
DWIDTH 8 0
BBX 6 13 1 0
BITMAP
24
28
50
00
38
C0
80
80
70
C0
80
80
7C
ENDCHAR
STARTCHAR 1F15
ENCODING 7957
SWIDTH 480 0
DWIDTH 8 0
BBX 6 13 1 0
BITMAP
40
88
50
00
38
C0
80
80
70
C0
80
80
7C
ENDCHAR
STARTCHAR 1F18
ENCODING 7960
SWIDTH 600 0
DWIDTH 10 0
BBX 9 12 0 0
BITMAP
1F80
A000
A000
2000
2000
2000
3F00
2000
2000
2000
2000
1F80
ENDCHAR
STARTCHAR 1F19
ENCODING 7961
SWIDTH 600 0
DWIDTH 10 0
BBX 9 12 0 0
BITMAP
1F80
A000
A000
2000
2000
2000
3F00
2000
2000
2000
2000
1F80
ENDCHAR
STARTCHAR 1F1A
ENCODING 7962
SWIDTH 780 0
DWIDTH 13 0
BBX 12 12 0 0
BITMAP
07F0
A400
9400
0400
0400
0400
07E0
0400
0400
0400
0400
07F0
ENDCHAR
STARTCHAR 1F1B
ENCODING 7963
SWIDTH 780 0
DWIDTH 13 0
BBX 12 12 0 0
BITMAP
07F0
A400
9400
0400
0400
0400
07C0
0400
0400
0400
0400
07F0
ENDCHAR
STARTCHAR 1F1C
ENCODING 7964
SWIDTH 780 0
DWIDTH 13 0
BBX 12 12 0 0
BITMAP
07F0
9400
A400
0400
0400
0400
07C0
0400
0400
0400
0400
07F0
ENDCHAR
STARTCHAR 1F1D
ENCODING 7965
SWIDTH 780 0
DWIDTH 13 0
BBX 12 12 0 0
BITMAP
03F0
9400
A400
0400
0400
0400
07E0
0400
0400
0400
0400
03F0
ENDCHAR
STARTCHAR 1F20
ENCODING 7968
SWIDTH 540 0
DWIDTH 9 0
BBX 6 15 2 -2
BITMAP
20
20
00
70
88
84
84
84
84
84
84
84
04
04
04
ENDCHAR
STARTCHAR 1F21
ENCODING 7969
SWIDTH 540 0
DWIDTH 9 0
BBX 6 16 2 -3
BITMAP
20
40
20
00
70
88
84
84
84
84
84
84
84
04
04
04
ENDCHAR
STARTCHAR 1F22
ENCODING 7970
SWIDTH 540 0
DWIDTH 9 0
BBX 6 16 2 -3
BITMAP
50
50
88
00
70
88
84
84
84
84
84
84
84
04
04
04
ENDCHAR
STARTCHAR 1F23
ENCODING 7971
SWIDTH 540 0
DWIDTH 9 0
BBX 6 16 2 -3
BITMAP
80
90
90
00
70
88
84
84
84
84
84
84
84
04
04
04
ENDCHAR
STARTCHAR 1F24
ENCODING 7972
SWIDTH 540 0
DWIDTH 9 0
BBX 6 15 2 -2
BITMAP
28
50
00
70
88
84
84
84
84
84
84
84
04
04
04
ENDCHAR
STARTCHAR 1F25
ENCODING 7973
SWIDTH 540 0
DWIDTH 9 0
BBX 6 16 2 -3
BITMAP
08
90
50
00
70
88
84
84
84
84
84
84
84
04
04
04
ENDCHAR
STARTCHAR 1F26
ENCODING 7974
SWIDTH 540 0
DWIDTH 9 0
BBX 6 18 2 -3
BITMAP
20
50
00
20
20
00
70
88
84
84
84
84
84
84
84
04
04
04
ENDCHAR
STARTCHAR 1F27
ENCODING 7975
SWIDTH 540 0
DWIDTH 9 0
BBX 6 18 2 -3
BITMAP
20
50
00
20
20
00
70
88
84
84
84
84
84
84
84
04
04
04
ENDCHAR
STARTCHAR 1F28
ENCODING 7976
SWIDTH 720 0
DWIDTH 12 0
BBX 11 12 0 0
BITMAP
0020
A020
A020
2020
2020
2020
3FE0
2020
2020
2020
2020
2020
ENDCHAR
STARTCHAR 1F29
ENCODING 7977
SWIDTH 720 0
DWIDTH 12 0
BBX 11 12 0 0
BITMAP
0020
A020
A020
2020
2020
2020
3FE0
2020
2020
2020
2020
2020
ENDCHAR
STARTCHAR 1F2A
ENCODING 7978
SWIDTH 900 0
DWIDTH 15 0
BBX 14 12 0 0
BITMAP
0004
A404
9404
0404
0404
0404
07FC
0404
0404
0404
0404
0404
ENDCHAR
STARTCHAR 1F2B
ENCODING 7979
SWIDTH 900 0
DWIDTH 15 0
BBX 13 12 0 0
BITMAP
0400
A408
9408
0408
0408
0408
07F8
0408
0408
0408
0408
0408
ENDCHAR
STARTCHAR 1F2C
ENCODING 7980
SWIDTH 900 0
DWIDTH 15 0
BBX 14 12 0 0
BITMAP
0404
9404
A404
0404
0404
0404
07FC
0404
0404
0404
0404
0404
ENDCHAR
STARTCHAR 1F2D
ENCODING 7981
SWIDTH 900 0
DWIDTH 15 0
BBX 14 12 0 0
BITMAP
0004
9404
A404
0404
0404
0404
07FC
0404
0404
0404
0404
0404
ENDCHAR
STARTCHAR 1F2E
ENCODING 7982
SWIDTH 840 0
DWIDTH 14 0
BBX 13 13 0 0
BITMAP
C000
2008
0808
4808
8808
0808
0808
0FF8
0808
0808
0808
0808
0808
ENDCHAR
STARTCHAR 1F2F
ENCODING 7983
SWIDTH 840 0
DWIDTH 14 0
BBX 13 13 0 0
BITMAP
C000
2008
0808
4808
4808
0808
0808
0FF8
0808
0808
0808
0808
0808
ENDCHAR
STARTCHAR 1F30
ENCODING 7984
SWIDTH 240 0
DWIDTH 4 0
BBX 2 12 1 1
BITMAP
40
80
00
80
80
80
80
80
80
80
80
40
ENDCHAR
STARTCHAR 1F31
ENCODING 7985
SWIDTH 240 0
DWIDTH 4 0
BBX 2 13 1 0
BITMAP
80
80
80
00
80
80
80
80
80
80
80
80
40
ENDCHAR
STARTCHAR 1F32
ENCODING 7986
SWIDTH 240 0
DWIDTH 4 0
BBX 5 13 -1 0
BITMAP
50
50
88
00
20
20
20
20
20
20
20
20
10
ENDCHAR
STARTCHAR 1F33
ENCODING 7987
SWIDTH 240 0
DWIDTH 4 0
BBX 4 13 -1 0
BITMAP
80
90
90
00
20
20
20
20
20
20
20
20
10
ENDCHAR
STARTCHAR 1F34
ENCODING 7988
SWIDTH 240 0
DWIDTH 4 0
BBX 4 12 0 1
BITMAP
50
A0
00
40
40
40
40
40
40
40
40
20
ENDCHAR
STARTCHAR 1F35
ENCODING 7989
SWIDTH 240 0
DWIDTH 4 0
BBX 5 13 -1 0
BITMAP
08
90
50
00
20
20
20
20
20
20
20
20
10
ENDCHAR
STARTCHAR 1F36
ENCODING 7990
SWIDTH 240 0
DWIDTH 4 0
BBX 3 15 0 0
BITMAP
40
A0
00
40
40
00
40
40
40
40
40
40
40
40
20
ENDCHAR
STARTCHAR 1F37
ENCODING 7991
SWIDTH 240 0
DWIDTH 4 0
BBX 3 15 0 0
BITMAP
40
A0
00
40
40
00
40
40
40
40
40
40
40
40
20
ENDCHAR
STARTCHAR 1F38
ENCODING 7992
SWIDTH 300 0
DWIDTH 5 0
BBX 3 11 0 1
BITMAP
A0
A0
20
20
20
20
20
20
20
20
20
ENDCHAR
STARTCHAR 1F39
ENCODING 7993
SWIDTH 300 0
DWIDTH 5 0
BBX 3 11 0 1
BITMAP
A0
A0
20
20
20
20
20
20
20
20
20
ENDCHAR
STARTCHAR 1F3A
ENCODING 7994
SWIDTH 480 0
DWIDTH 8 0
BBX 6 12 0 0
BITMAP
04
A4
94
04
04
04
04
04
04
04
04
04
ENDCHAR
STARTCHAR 1F3B
ENCODING 7995
SWIDTH 420 0
DWIDTH 7 0
BBX 6 12 0 0
BITMAP
04
A4
94
04
04
04
04
04
04
04
04
04
ENDCHAR
STARTCHAR 1F3C
ENCODING 7996
SWIDTH 480 0
DWIDTH 8 0
BBX 6 12 0 0
BITMAP
04
94
A4
04
04
04
04
04
04
04
04
04
ENDCHAR
STARTCHAR 1F3D
ENCODING 7997
SWIDTH 480 0
DWIDTH 8 0
BBX 6 12 0 0
BITMAP
04
94
A4
04
04
04
04
04
04
04
04
04
ENDCHAR
STARTCHAR 1F3E
ENCODING 7998
SWIDTH 420 0
DWIDTH 7 0
BBX 5 13 0 0
BITMAP
C0
28
08
48
88
08
08
08
08
08
08
08
08
ENDCHAR
STARTCHAR 1F3F
ENCODING 7999
SWIDTH 420 0
DWIDTH 7 0
BBX 5 13 0 0
BITMAP
C0
28
08
48
48
08
08
08
08
08
08
08
08
ENDCHAR
STARTCHAR 1F40
ENCODING 8000
SWIDTH 600 0
DWIDTH 10 0
BBX 8 13 1 0
BITMAP
08
08
10
00
38
46
82
82
81
81
82
82
7C
ENDCHAR
STARTCHAR 1F41
ENCODING 8001
SWIDTH 600 0
DWIDTH 10 0
BBX 8 13 1 0
BITMAP
10
10
10
00
38
46
82
82
81
81
82
82
7C
ENDCHAR
STARTCHAR 1F42
ENCODING 8002
SWIDTH 600 0
DWIDTH 10 0
BBX 8 13 1 0
BITMAP
28
28
24
00
38
46
82
82
81
81
82
82
7C
ENDCHAR
STARTCHAR 1F43
ENCODING 8003
SWIDTH 600 0
DWIDTH 10 0
BBX 8 13 1 0
BITMAP
40
48
28
00
38
46
82
82
81
81
82
82
7C
ENDCHAR
STARTCHAR 1F44
ENCODING 8004
SWIDTH 600 0
DWIDTH 10 0
BBX 8 13 1 0
BITMAP
10
14
28
00
38
46
82
82
81
81
82
82
7C
ENDCHAR
STARTCHAR 1F45
ENCODING 8005
SWIDTH 600 0
DWIDTH 10 0
BBX 8 13 1 0
BITMAP
04
48
28
00
38
46
82
82
81
81
82
82
7C
ENDCHAR
STARTCHAR 1F48
ENCODING 8008
SWIDTH 780 0
DWIDTH 13 0
BBX 12 12 0 0
BITMAP
0700
98C0
A020
2020
4010
4010
4010
4010
4010
2020
1040
0F80
ENDCHAR
STARTCHAR 1F49
ENCODING 8009
SWIDTH 840 0
DWIDTH 14 0
BBX 12 12 0 0
BITMAP
0380
8C60
9020
2010
2010
2010
2010
2010
2010
2010
1020
0FC0
ENDCHAR
STARTCHAR 1F4A
ENCODING 8010
SWIDTH 1020 0
DWIDTH 17 0
BBX 15 12 0 0
BITMAP
0070
A18C
9204
0402
0402
0402
0402
0402
0402
0402
0204
01F8
ENDCHAR
STARTCHAR 1F4B
ENCODING 8011
SWIDTH 960 0
DWIDTH 16 0
BBX 15 12 0 0
BITMAP
00F0
A108
9604
0402
0402
0802
0802
0802
0402
0404
0204
01F8
ENDCHAR
STARTCHAR 1F4C
ENCODING 8012
SWIDTH 900 0
DWIDTH 15 0
BBX 14 12 0 0
BITMAP
01E0
9210
A408
0804
0804
1004
1004
0804
0804
0804
0408
03F0
ENDCHAR
STARTCHAR 1F4D
ENCODING 8013
SWIDTH 960 0
DWIDTH 16 0
BBX 15 12 0 0
BITMAP
00E0
9318
A404
0804
0804
0802
0802
0802
0804
0404
0408
03F0
ENDCHAR
STARTCHAR 1F50
ENCODING 8016
SWIDTH 540 0
DWIDTH 9 0
BBX 7 12 1 1
BITMAP
10
10
00
82
82
82
82
82
82
82
82
7C
ENDCHAR
STARTCHAR 1F51
ENCODING 8017
SWIDTH 540 0
DWIDTH 9 0
BBX 7 13 1 0
BITMAP
10
20
10
00
82
82
82
82
82
82
82
82
7C
ENDCHAR
STARTCHAR 1F52
ENCODING 8018
SWIDTH 540 0
DWIDTH 9 0
BBX 7 13 1 0
BITMAP
20
28
44
00
82
82
82
82
82
82
82
82
7C
ENDCHAR
STARTCHAR 1F53
ENCODING 8019
SWIDTH 540 0
DWIDTH 9 0
BBX 7 13 1 0
BITMAP
50
50
48
00
82
82
82
82
82
82
82
82
7C
ENDCHAR
STARTCHAR 1F54
ENCODING 8020
SWIDTH 540 0
DWIDTH 9 0
BBX 7 12 1 1
BITMAP
24
28
00
82
82
82
82
82
82
82
82
7C
ENDCHAR
STARTCHAR 1F55
ENCODING 8021
SWIDTH 540 0
DWIDTH 9 0
BBX 7 13 1 0
BITMAP
04
48
28
00
82
82
82
82
82
82
82
82
7C
ENDCHAR
STARTCHAR 1F56
ENCODING 8022
SWIDTH 540 0
DWIDTH 9 0
BBX 7 15 1 0
BITMAP
10
68
00
10
10
00
82
82
82
82
82
82
82
82
7C
ENDCHAR
STARTCHAR 1F57
ENCODING 8023
SWIDTH 540 0
DWIDTH 9 0
BBX 7 15 1 0
BITMAP
10
68
00
10
10
00
82
82
82
82
82
82
82
82
7C
ENDCHAR
STARTCHAR 1F59
ENCODING 8025
SWIDTH 660 0
DWIDTH 11 0
BBX 11 12 0 0
BITMAP
2020
A040
9040
1080
0900
0500
0200
0200
0200
0200
0200
0200
ENDCHAR
STARTCHAR 1F5B
ENCODING 8027
SWIDTH 780 0
DWIDTH 13 0
BBX 13 12 0 0
BITMAP
0808
A410
9410
0220
0220
0140
0080
0080
0080
0080
0080
0080
ENDCHAR
STARTCHAR 1F5D
ENCODING 8029
SWIDTH 840 0
DWIDTH 14 0
BBX 14 12 0 0
BITMAP
0404
9208
A208
0110
0110
00A0
0040
0040
0040
0040
0040
0040
ENDCHAR
STARTCHAR 1F5F
ENCODING 8031
SWIDTH 780 0
DWIDTH 13 0
BBX 13 13 0 0
BITMAP
C000
2808
0410
4410
4220
0220
0140
0180
0080
0080
0080
0080
0080
ENDCHAR
STARTCHAR 1F60
ENCODING 8032
SWIDTH 840 0
DWIDTH 14 0
BBX 12 13 1 0
BITMAP
0200
0200
0400
0000
4000
4020
8420
8410
8410
8410
8410
8620
79E0
ENDCHAR
STARTCHAR 1F61
ENCODING 8033
SWIDTH 840 0
DWIDTH 14 0
BBX 12 13 1 0
BITMAP
0400
0400
0400
0000
4000
4020
8420
8410
8410
8410
8410
8620
79E0
ENDCHAR
STARTCHAR 1F62
ENCODING 8034
SWIDTH 840 0
DWIDTH 14 0
BBX 12 13 1 0
BITMAP
0A00
0A00
0900
0000
4000
4020
8420
8410
8410
8410
8410
8620
79E0
ENDCHAR
STARTCHAR 1F63
ENCODING 8035
SWIDTH 840 0
DWIDTH 14 0
BBX 12 12 1 1
BITMAP
1200
0A00
0000
4000
4020
8420
8410
8410
8410
8410
8620
79E0
ENDCHAR
STARTCHAR 1F64
ENCODING 8036
SWIDTH 840 0
DWIDTH 14 0
BBX 12 13 1 0
BITMAP
0400
0500
0A00
0000
4000
4020
8420
8410
8410
8410
8410
8620
79E0
ENDCHAR
STARTCHAR 1F65
ENCODING 8037
SWIDTH 840 0
DWIDTH 14 0
BBX 12 13 1 0
BITMAP
0900
1100
0A00
0000
4000
4020
8420
8410
8410
8410
8410
8620
79E0
ENDCHAR
STARTCHAR 1F66
ENCODING 8038
SWIDTH 840 0
DWIDTH 14 0
BBX 12 15 1 0
BITMAP
0600
0900
0000
0400
0400
0000
4000
4020
8420
8410
8410
8410
8410
8620
79E0
ENDCHAR
STARTCHAR 1F67
ENCODING 8039
SWIDTH 840 0
DWIDTH 14 0
BBX 12 15 1 0
BITMAP
0600
0900
0000
0400
0400
0000
4000
4020
8420
8410
8410
8410
8410
8620
79E0
ENDCHAR
STARTCHAR 1F68
ENCODING 8040
SWIDTH 780 0
DWIDTH 13 0
BBX 12 12 0 0
BITMAP
0700
98C0
A020
2020
4010
4010
4010
4010
2020
2020
1040
78F0
ENDCHAR
STARTCHAR 1F69
ENCODING 8041
SWIDTH 840 0
DWIDTH 14 0
BBX 13 12 0 0
BITMAP
0380
8C60
9010
2010
2008
2008
2008
2008
2010
1010
0820
3C78
ENDCHAR
STARTCHAR 1F6A
ENCODING 8042
SWIDTH 1020 0
DWIDTH 17 0
BBX 16 12 0 0
BITMAP
0070
A18C
9202
0402
0402
0402
0402
0402
0402
0202
0204
078F
ENDCHAR
STARTCHAR 1F6B
ENCODING 8043
SWIDTH 960 0
DWIDTH 16 0
BBX 15 12 0 0
BITMAP
00F0
A108
9604
0402
0402
0802
0802
0402
0402
0404
0204
070E
ENDCHAR
STARTCHAR 1F6C
ENCODING 8044
SWIDTH 960 0
DWIDTH 16 0
BBX 15 12 0 0
BITMAP
00E0
9318
A408
0804
0804
0804
0804
0804
0804
0408
0408
0E1E
ENDCHAR
STARTCHAR 1F6D
ENCODING 8045
SWIDTH 960 0
DWIDTH 16 0
BBX 15 12 0 0
BITMAP
00E0
9318
A404
0804
0802
0802
0802
0804
0804
0404
0208
0F1E
ENDCHAR
STARTCHAR 1F6E
ENCODING 8046
SWIDTH 840 0
DWIDTH 14 0
BBX 13 13 0 0
BITMAP
C000
23C0
0420
5810
9008
1008
2008
2008
1008
1008
1010
0810
1C38
ENDCHAR
STARTCHAR 1F6F
ENCODING 8047
SWIDTH 900 0
DWIDTH 15 0
BBX 14 13 0 0
BITMAP
C000
21C0
0630
4808
5008
1004
1004
1004
1008
1008
0808
0410
1E3C
ENDCHAR
STARTCHAR 1F70
ENCODING 8048
SWIDTH 600 0
DWIDTH 10 0
BBX 8 12 1 1
BITMAP
20
10
00
1C
62
82
82
82
82
82
82
7D
ENDCHAR
STARTCHAR 1F71
ENCODING 8049
SWIDTH 600 0
DWIDTH 10 0
BBX 8 12 1 1
BITMAP
0C
10
00
1C
62
82
82
82
82
82
82
7D
ENDCHAR
STARTCHAR 1F72
ENCODING 8050
SWIDTH 480 0
DWIDTH 8 0
BBX 6 13 1 0
BITMAP
40
20
10
00
38
C0
80
80
70
C0
80
80
7C
ENDCHAR
STARTCHAR 1F73
ENCODING 8051
SWIDTH 480 0
DWIDTH 8 0
BBX 6 12 1 1
BITMAP
18
20
00
38
C0
80
80
70
C0
80
80
7C
ENDCHAR
STARTCHAR 1F74
ENCODING 8052
SWIDTH 540 0
DWIDTH 9 0
BBX 6 15 2 -2
BITMAP
40
20
00
70
88
84
84
84
84
84
84
84
04
04
04
ENDCHAR
STARTCHAR 1F75
ENCODING 8053
SWIDTH 540 0
DWIDTH 9 0
BBX 6 16 2 -3
BITMAP
08
10
20
00
70
88
84
84
84
84
84
84
84
04
04
04
ENDCHAR
STARTCHAR 1F76
ENCODING 8054
SWIDTH 240 0
DWIDTH 4 0
BBX 3 12 0 1
BITMAP
80
40
00
40
40
40
40
40
40
40
40
20
ENDCHAR
STARTCHAR 1F77
ENCODING 8055
SWIDTH 240 0
DWIDTH 4 0
BBX 3 13 1 0
BITMAP
20
40
80
00
80
80
80
80
80
80
80
80
40
ENDCHAR
STARTCHAR 1F78
ENCODING 8056
SWIDTH 600 0
DWIDTH 10 0
BBX 8 12 1 1
BITMAP
20
10
00
38
46
82
82
81
81
82
82
7C
ENDCHAR
STARTCHAR 1F79
ENCODING 8057
SWIDTH 600 0
DWIDTH 10 0
BBX 8 13 1 0
BITMAP
04
08
10
00
38
46
82
82
81
81
82
82
7C
ENDCHAR
STARTCHAR 1F7A
ENCODING 8058
SWIDTH 540 0
DWIDTH 9 0
BBX 7 12 1 1
BITMAP
20
10
00
82
82
82
82
82
82
82
82
7C
ENDCHAR
STARTCHAR 1F7B
ENCODING 8059
SWIDTH 540 0
DWIDTH 9 0
BBX 7 13 1 0
BITMAP
04
08
10
00
82
82
82
82
82
82
82
82
7C
ENDCHAR
STARTCHAR 1F7C
ENCODING 8060
SWIDTH 840 0
DWIDTH 14 0
BBX 12 12 1 1
BITMAP
0800
0400
0000
4000
4020
8420
8410
8410
8410
8410
8620
79E0
ENDCHAR
STARTCHAR 1F7D
ENCODING 8061
SWIDTH 840 0
DWIDTH 14 0
BBX 12 12 1 1
BITMAP
0300
0400
0000
4000
4020
8420
8410
8410
8410
8410
8620
79E0
ENDCHAR
STARTCHAR 1F80
ENCODING 8064
SWIDTH 600 0
DWIDTH 10 0
BBX 8 16 1 -3
BITMAP
08
08
10
00
1C
62
82
82
82
82
82
82
65
18
00
08
ENDCHAR
STARTCHAR 1F81
ENCODING 8065
SWIDTH 600 0
DWIDTH 10 0
BBX 8 16 1 -3
BITMAP
10
10
10
00
1C
62
82
82
82
82
82
82
65
18
00
08
ENDCHAR
STARTCHAR 1F82
ENCODING 8066
SWIDTH 600 0
DWIDTH 10 0
BBX 8 16 1 -3
BITMAP
28
28
24
00
1C
62
82
82
82
82
82
82
65
18
00
08
ENDCHAR
STARTCHAR 1F83
ENCODING 8067
SWIDTH 600 0
DWIDTH 10 0
BBX 8 15 1 -2
BITMAP
48
28
00
1C
62
82
82
82
82
82
82
65
18
00
08
ENDCHAR
STARTCHAR 1F84
ENCODING 8068
SWIDTH 600 0
DWIDTH 10 0
BBX 8 16 1 -3
BITMAP
10
14
28
00
1C
62
82
82
82
82
82
82
65
18
00
08
ENDCHAR
STARTCHAR 1F85
ENCODING 8069
SWIDTH 600 0
DWIDTH 10 0
BBX 8 16 1 -3
BITMAP
20
44
28
00
1C
62
82
82
82
82
82
82
65
18
00
08
ENDCHAR
STARTCHAR 1F86
ENCODING 8070
SWIDTH 600 0
DWIDTH 10 0
BBX 8 18 1 -3
BITMAP
18
24
00
18
10
00
1C
62
82
82
82
82
82
82
65
18
00
08
ENDCHAR
STARTCHAR 1F87
ENCODING 8071
SWIDTH 600 0
DWIDTH 10 0
BBX 8 18 1 -3
BITMAP
18
24
00
08
08
00
1C
62
82
82
82
82
82
82
65
18
00
08
ENDCHAR
STARTCHAR 1F88
ENCODING 8072
SWIDTH 840 0
DWIDTH 14 0
BBX 13 11 0 1
BITMAP
2C00
2C00
1200
1210
2110
2110
2110
3F90
4090
8090
8048
ENDCHAR
STARTCHAR 1F89
ENCODING 8073
SWIDTH 840 0
DWIDTH 14 0
BBX 13 11 0 1
BITMAP
4C00
4C00
1200
1210
2110
2110
2110
3F90
4090
8090
8048
ENDCHAR
STARTCHAR 1F8A
ENCODING 8074
SWIDTH 960 0
DWIDTH 16 0
BBX 15 11 0 1
BITMAP
A300
9500
0504
0884
0884
0844
1044
1FC4
1024
2024
2012
ENDCHAR
STARTCHAR 1F8B
ENCODING 8075
SWIDTH 960 0
DWIDTH 16 0
BBX 15 12 0 0
BITMAP
0200
A600
9500
0504
0884
0884
1084
1044
1FC4
2024
2024
2022
ENDCHAR
STARTCHAR 1F8C
ENCODING 8076
SWIDTH 900 0
DWIDTH 15 0
BBX 14 11 0 1
BITMAP
9600
A600
0900
0908
1088
1088
1088
1FC8
2048
4028
4024
ENDCHAR
STARTCHAR 1F8D
ENCODING 8077
SWIDTH 960 0
DWIDTH 16 0
BBX 14 12 0 0
BITMAP
0200
9600
A500
0904
0904
0884
1084
1044
1FC4
2044
2024
4024
ENDCHAR
STARTCHAR 1F8E
ENCODING 8078
SWIDTH 840 0
DWIDTH 14 0
BBX 13 13 0 0
BITMAP
C000
2000
0C00
5400
9200
1210
2210
2110
4110
7F90
4090
8090
8048
ENDCHAR
STARTCHAR 1F8F
ENCODING 8079
SWIDTH 840 0
DWIDTH 14 0
BBX 13 13 0 0
BITMAP
C000
2000
0C00
4C00
5200
1210
2110
2110
2110
3F90
4090
8050
8048
ENDCHAR
STARTCHAR 1F90
ENCODING 8080
SWIDTH 540 0
DWIDTH 9 0
BBX 6 15 2 -2
BITMAP
10
20
00
70
88
84
84
84
84
84
84
84
04
04
84
ENDCHAR
STARTCHAR 1F91
ENCODING 8081
SWIDTH 540 0
DWIDTH 9 0
BBX 6 16 2 -3
BITMAP
20
40
20
00
70
88
84
84
84
84
84
84
84
04
04
84
ENDCHAR
STARTCHAR 1F92
ENCODING 8082
SWIDTH 540 0
DWIDTH 9 0
BBX 6 16 2 -3
BITMAP
50
50
88
00
70
88
84
84
84
84
84
84
84
04
04
84
ENDCHAR
STARTCHAR 1F93
ENCODING 8083
SWIDTH 540 0
DWIDTH 9 0
BBX 6 16 2 -3
BITMAP
80
90
90
00
70
88
84
84
84
84
84
84
84
04
04
84
ENDCHAR
STARTCHAR 1F94
ENCODING 8084
SWIDTH 540 0
DWIDTH 9 0
BBX 6 15 2 -2
BITMAP
28
50
00
70
88
84
84
84
84
84
84
84
04
04
84
ENDCHAR
STARTCHAR 1F95
ENCODING 8085
SWIDTH 540 0
DWIDTH 9 0
BBX 6 16 2 -3
BITMAP
08
90
50
00
70
88
84
84
84
84
84
84
84
04
04
84
ENDCHAR
STARTCHAR 1F96
ENCODING 8086
SWIDTH 540 0
DWIDTH 9 0
BBX 6 18 2 -3
BITMAP
20
50
00
20
20
00
70
88
84
84
84
84
84
84
84
04
04
84
ENDCHAR
STARTCHAR 1F97
ENCODING 8087
SWIDTH 540 0
DWIDTH 9 0
BBX 6 18 2 -3
BITMAP
20
50
00
20
20
00
70
88
84
84
84
84
84
84
84
04
04
84
ENDCHAR
STARTCHAR 1F98
ENCODING 8088
SWIDTH 960 0
DWIDTH 16 0
BBX 15 12 0 0
BITMAP
0020
A020
A020
2020
2024
2024
3FE4
2024
2024
2024
2024
2022
ENDCHAR
STARTCHAR 1F99
ENCODING 8089
SWIDTH 960 0
DWIDTH 16 0
BBX 15 12 0 0
BITMAP
0020
A020
A020
2022
2022
2022
3FE2
2022
2022
2022
2022
2022
ENDCHAR
STARTCHAR 1F9A
ENCODING 8090
SWIDTH 1140 0
DWIDTH 19 0
BBX 18 12 0 0
BITMAP
000400
A40400
940400
040400
040480
040480
07FC80
040480
040480
040480
040480
040440
ENDCHAR
STARTCHAR 1F9B
ENCODING 8091
SWIDTH 1140 0
DWIDTH 19 0
BBX 18 12 0 0
BITMAP
040000
A40800
940800
040880
040880
040880
07F880
040880
040880
040880
040880
040840
ENDCHAR
STARTCHAR 1F9C
ENCODING 8092
SWIDTH 1140 0
DWIDTH 19 0
BBX 18 12 0 0
BITMAP
040400
940400
A40400
040400
040480
040480
07FC80
040480
040480
040480
040480
040440
ENDCHAR
STARTCHAR 1F9D
ENCODING 8093
SWIDTH 1140 0
DWIDTH 19 0
BBX 18 12 0 0
BITMAP
000400
940400
A40400
040400
040480
040480
07FC80
040480
040480
040480
040480
040440
ENDCHAR
STARTCHAR 1F9E
ENCODING 8094
SWIDTH 1080 0
DWIDTH 18 0
BBX 17 13 0 0
BITMAP
C00000
200800
080800
480800
880800
080900
080900
0FF900
080900
080900
080900
080900
080880
ENDCHAR
STARTCHAR 1F9F
ENCODING 8095
SWIDTH 1080 0
DWIDTH 18 0
BBX 17 13 0 0
BITMAP
C00000
200800
080800
480800
480800
080900
080900
0FF900
080900
080900
080900
080900
080880
ENDCHAR
STARTCHAR 1FA0
ENCODING 8096
SWIDTH 840 0
DWIDTH 14 0
BBX 12 16 1 -3
BITMAP
0200
0200
0400
0000
4000
4020
8420
8410
8410
8410
8410
8620
4960
3080
0000
0200
ENDCHAR
STARTCHAR 1FA1
ENCODING 8097
SWIDTH 840 0
DWIDTH 14 0
BBX 12 16 1 -3
BITMAP
0400
0400
0400
0000
4000
4020
8420
8410
8410
8410
8410
8620
4960
3080
0000
0200
ENDCHAR
STARTCHAR 1FA2
ENCODING 8098
SWIDTH 840 0
DWIDTH 14 0
BBX 12 16 1 -3
BITMAP
0A00
0A00
0900
0000
4000
4020
8420
8410
8410
8410
8410
8620
4960
3080
0000
0200
ENDCHAR
STARTCHAR 1FA3
ENCODING 8099
SWIDTH 840 0
DWIDTH 14 0
BBX 12 15 1 -2
BITMAP
1200
0A00
0000
4000
4020
8420
8410
8410
8410
8410
8620
4960
3080
0000
0200
ENDCHAR
STARTCHAR 1FA4
ENCODING 8100
SWIDTH 840 0
DWIDTH 14 0
BBX 12 16 1 -3
BITMAP
0400
0500
0A00
0000
4000
4020
8420
8410
8410
8410
8410
8620
4960
3080
0000
0200
ENDCHAR
STARTCHAR 1FA5
ENCODING 8101
SWIDTH 840 0
DWIDTH 14 0
BBX 12 16 1 -3
BITMAP
0900
1100
0A00
0000
4000
4020
8420
8410
8410
8410
8410
8620
4960
3080
0000
0200
ENDCHAR
STARTCHAR 1FA6
ENCODING 8102
SWIDTH 840 0
DWIDTH 14 0
BBX 12 18 1 -3
BITMAP
0600
0900
0000
0400
0400
0000
4000
4020
8420
8410
8410
8410
8410
8620
4960
3080
0000
0200
ENDCHAR
STARTCHAR 1FA7
ENCODING 8103
SWIDTH 840 0
DWIDTH 14 0
BBX 12 18 1 -3
BITMAP
0600
0900
0000
0400
0400
0000
4000
4020
8420
8410
8410
8410
8410
8620
4960
3080
0000
0200
ENDCHAR
STARTCHAR 1FA8
ENCODING 8104
SWIDTH 1020 0
DWIDTH 17 0
BBX 16 12 0 0
BITMAP
0700
98C0
A020
2020
4012
4012
4012
4012
2022
2022
1042
78F1
ENDCHAR
STARTCHAR 1FA9
ENCODING 8105
SWIDTH 1080 0
DWIDTH 18 0
BBX 17 12 0 0
BITMAP
038000
8C6000
901000
201000
200900
200900
200900
200900
201100
101100
082100
3C7880
ENDCHAR
STARTCHAR 1FAA
ENCODING 8106
SWIDTH 1260 0
DWIDTH 21 0
BBX 20 12 0 0
BITMAP
007000
A18C00
920200
040220
040220
040220
040220
040220
040220
020220
020420
078F10
ENDCHAR
STARTCHAR 1FAB
ENCODING 8107
SWIDTH 1200 0
DWIDTH 20 0
BBX 19 12 0 0
BITMAP
00F000
A10800
960400
040220
040220
080220
080220
040220
040220
040420
020420
070E20
ENDCHAR
STARTCHAR 1FAC
ENCODING 8108
SWIDTH 1200 0
DWIDTH 20 0
BBX 19 12 0 0
BITMAP
00E000
931800
A40400
080440
080440
080440
080440
080440
080440
040440
040840
0F1E20
ENDCHAR
STARTCHAR 1FAD
ENCODING 8109
SWIDTH 1200 0
DWIDTH 20 0
BBX 19 12 0 0
BITMAP
00E000
931800
A40400
080440
080240
080240
080240
080440
080440
040440
020840
0F1E20
ENDCHAR
STARTCHAR 1FAE
ENCODING 8110
SWIDTH 1080 0
DWIDTH 18 0
BBX 17 13 0 0
BITMAP
C00000
23C000
042000
581000
900880
100880
200880
200880
100880
100880
101080
081080
1C3880
ENDCHAR
STARTCHAR 1FAF
ENCODING 8111
SWIDTH 1140 0
DWIDTH 19 0
BBX 18 13 0 0
BITMAP
C00000
21C000
063000
480800
500880
100480
100480
100480
100880
100880
080880
041080
1E3C40
ENDCHAR
STARTCHAR 1FB0
ENCODING 8112
SWIDTH 600 0
DWIDTH 10 0
BBX 8 12 1 0
BITMAP
24
18
00
1C
62
82
82
82
82
82
82
7D
ENDCHAR
STARTCHAR 1FB1
ENCODING 8113
SWIDTH 600 0
DWIDTH 10 0
BBX 8 12 1 0
BITMAP
3C
00
00
1C
62
82
82
82
82
82
82
7D
ENDCHAR
STARTCHAR 1FB2
ENCODING 8114
SWIDTH 600 0
DWIDTH 10 0
BBX 8 15 1 -2
BITMAP
20
10
00
1C
62
82
82
82
82
82
82
65
18
00
08
ENDCHAR
STARTCHAR 1FB3
ENCODING 8115
SWIDTH 600 0
DWIDTH 10 0
BBX 8 12 1 -3
BITMAP
1C
62
82
82
82
82
82
82
65
18
00
08
ENDCHAR
STARTCHAR 1FB4
ENCODING 8116
SWIDTH 600 0
DWIDTH 10 0
BBX 8 15 1 -2
BITMAP
0C
10
00
1C
62
82
82
82
82
82
82
65
18
00
08
ENDCHAR
STARTCHAR 1FB6
ENCODING 8118
SWIDTH 600 0
DWIDTH 10 0
BBX 8 12 1 0
BITMAP
3C
24
00
1C
62
82
82
82
82
82
82
7D
ENDCHAR
STARTCHAR 1FB7
ENCODING 8119
SWIDTH 600 0
DWIDTH 10 0
BBX 8 15 1 -3
BITMAP
3C
24
00
1C
62
82
82
82
82
82
82
65
18
00
08
ENDCHAR
STARTCHAR 1FB8
ENCODING 8120
SWIDTH 600 0
DWIDTH 10 0
BBX 10 15 0 0
BITMAP
1200
0C00
0000
0000
0C00
0C00
1200
1200
2100
2100
2100
3F80
4080
8080
8040
ENDCHAR
STARTCHAR 1FB9
ENCODING 8121
SWIDTH 600 0
DWIDTH 10 0
BBX 10 14 0 0
BITMAP
0E00
0000
0000
0C00
0C00
1200
1200
2100
2100
2100
3F80
4080
8080
8040
ENDCHAR
STARTCHAR 1FBA
ENCODING 8122
SWIDTH 660 0
DWIDTH 11 0
BBX 10 12 0 0
BITMAP
8400
4400
2A00
0A00
1100
1100
2080
2080
3F80
4040
4040
4040
ENDCHAR
STARTCHAR 1FBB
ENCODING 8123
SWIDTH 600 0
DWIDTH 10 0
BBX 10 11 0 1
BITMAP
2C00
D400
1200
1200
2200
2100
4100
7F80
4080
8080
8040
ENDCHAR
STARTCHAR 1FBC
ENCODING 8124
SWIDTH 840 0
DWIDTH 14 0
BBX 13 11 0 1
BITMAP
0C00
0C00
1200
1210
2110
2110
2110
3F90
4090
8090
8048
ENDCHAR
STARTCHAR 1FBD
ENCODING 8125
SWIDTH 360 0
DWIDTH 6 0
BBX 2 3 2 10
BITMAP
40
40
80
ENDCHAR
STARTCHAR 1FBE
ENCODING 8126
SWIDTH 480 0
DWIDTH 8 0
BBX 2 2 3 -3
BITMAP
80
40
ENDCHAR
STARTCHAR 1FBF
ENCODING 8127
SWIDTH 360 0
DWIDTH 6 0
BBX 2 3 2 10
BITMAP
40
40
80
ENDCHAR
STARTCHAR 1FC0
ENCODING 8128
SWIDTH 360 0
DWIDTH 6 0
BBX 4 2 1 10
BITMAP
F0
80
ENDCHAR
STARTCHAR 1FC1
ENCODING 8129
SWIDTH 360 0
DWIDTH 6 0
BBX 4 4 1 10
BITMAP
F0
90
90
90
ENDCHAR
STARTCHAR 1FC2
ENCODING 8130
SWIDTH 540 0
DWIDTH 9 0
BBX 6 15 2 -2
BITMAP
40
20
00
70
88
84
84
84
84
84
84
84
04
04
84
ENDCHAR
STARTCHAR 1FC3
ENCODING 8131
SWIDTH 540 0
DWIDTH 9 0
BBX 6 12 2 -3
BITMAP
70
88
84
84
84
84
84
84
84
04
04
84
ENDCHAR
STARTCHAR 1FC4
ENCODING 8132
SWIDTH 540 0
DWIDTH 9 0
BBX 6 16 2 -3
BITMAP
08
10
20
00
70
88
84
84
84
84
84
84
84
04
04
84
ENDCHAR
STARTCHAR 1FC6
ENCODING 8134
SWIDTH 540 0
DWIDTH 9 0
BBX 6 15 2 -3
BITMAP
70
08
00
70
88
84
84
84
84
84
84
84
04
04
04
ENDCHAR
STARTCHAR 1FC7
ENCODING 8135
SWIDTH 540 0
DWIDTH 9 0
BBX 6 15 2 -3
BITMAP
70
08
00
70
88
84
84
84
84
84
84
84
04
04
84
ENDCHAR
STARTCHAR 1FC8
ENCODING 8136
SWIDTH 720 0
DWIDTH 12 0
BBX 11 12 0 0
BITMAP
0FC0
8800
6800
0800
0800
0800
0F80
0800
0800
0800
0800
0FE0
ENDCHAR
STARTCHAR 1FC9
ENCODING 8137
SWIDTH 660 0
DWIDTH 11 0
BBX 10 12 0 0
BITMAP
0FC0
5000
9000
1000
1000
1000
1F80
1000
1000
1000
1000
0FC0
ENDCHAR
STARTCHAR 1FCA
ENCODING 8138
SWIDTH 840 0
DWIDTH 14 0
BBX 12 12 0 0
BITMAP
0800
8810
6810
0810
0810
0810
0FF0
0810
0810
0810
0810
0810
ENDCHAR
STARTCHAR 1FCB
ENCODING 8139
SWIDTH 780 0
DWIDTH 13 0
BBX 12 12 0 0
BITMAP
0010
5010
9010
1010
1010
1010
1FF0
1010
1010
1010
1010
1010
ENDCHAR
STARTCHAR 1FCC
ENCODING 8140
SWIDTH 900 0
DWIDTH 15 0
BBX 12 12 2 0
BITMAP
0100
8100
8100
8100
8120
8120
FF20
8120
8120
8120
8120
8110
ENDCHAR
STARTCHAR 1FCD
ENCODING 8141
SWIDTH 360 0
DWIDTH 6 0
BBX 4 3 1 10
BITMAP
80
90
90
ENDCHAR
STARTCHAR 1FCE
ENCODING 8142
SWIDTH 360 0
DWIDTH 6 0
BBX 4 3 1 10
BITMAP
80
90
A0
ENDCHAR
STARTCHAR 1FCF
ENCODING 8143
SWIDTH 360 0
DWIDTH 6 0
BBX 4 5 1 10
BITMAP
60
90
00
20
40
ENDCHAR
STARTCHAR 1FD0
ENCODING 8144
SWIDTH 240 0
DWIDTH 4 0
BBX 3 12 0 0
BITMAP
A0
40
00
40
40
40
40
40
40
40
40
20
ENDCHAR
STARTCHAR 1FD1
ENCODING 8145
SWIDTH 240 0
DWIDTH 4 0
BBX 4 12 0 0
BITMAP
F0
00
00
40
40
40
40
40
40
40
40
20
ENDCHAR
STARTCHAR 1FD2
ENCODING 8146
SWIDTH 240 0
DWIDTH 4 0
BBX 5 12 -1 1
BITMAP
A8
20
00
20
20
20
20
20
20
20
20
10
ENDCHAR
STARTCHAR 1FD3
ENCODING 8147
SWIDTH 240 0
DWIDTH 4 0
BBX 5 12 -1 1
BITMAP
A8
20
00
20
20
20
20
20
20
20
20
10
ENDCHAR
STARTCHAR 1FD6
ENCODING 8150
SWIDTH 240 0
DWIDTH 4 0
BBX 4 12 0 0
BITMAP
E0
10
00
40
40
40
40
40
40
40
40
20
ENDCHAR
STARTCHAR 1FD7
ENCODING 8151
SWIDTH 240 0
DWIDTH 4 0
BBX 4 14 0 0
BITMAP
E0
10
00
00
00
40
40
40
40
40
40
40
40
20
ENDCHAR
STARTCHAR 1FD8
ENCODING 8152
SWIDTH 240 0
DWIDTH 4 0
BBX 4 15 0 0
BITMAP
90
60
00
00
40
40
40
40
40
40
40
40
40
40
40
ENDCHAR
STARTCHAR 1FD9
ENCODING 8153
SWIDTH 240 0
DWIDTH 4 0
BBX 3 14 0 0
BITMAP
E0
00
00
40
40
40
40
40
40
40
40
40
40
40
ENDCHAR
STARTCHAR 1FDA
ENCODING 8154
SWIDTH 360 0
DWIDTH 6 0
BBX 5 12 0 0
BITMAP
08
88
68
08
08
08
08
08
08
08
08
08
ENDCHAR
STARTCHAR 1FDB
ENCODING 8155
SWIDTH 360 0
DWIDTH 6 0
BBX 5 11 -1 1
BITMAP
28
C8
08
08
08
08
08
08
08
08
08
ENDCHAR
STARTCHAR 1FDD
ENCODING 8157
SWIDTH 360 0
DWIDTH 6 0
BBX 4 3 1 10
BITMAP
A0
A0
90
ENDCHAR
STARTCHAR 1FDE
ENCODING 8158
SWIDTH 360 0
DWIDTH 6 0
BBX 4 3 1 10
BITMAP
80
90
A0
ENDCHAR
STARTCHAR 1FDF
ENCODING 8159
SWIDTH 360 0
DWIDTH 6 0
BBX 4 5 1 10
BITMAP
60
90
00
20
20
ENDCHAR
STARTCHAR 1FE0
ENCODING 8160
SWIDTH 540 0
DWIDTH 9 0
BBX 7 12 1 0
BITMAP
48
30
00
82
82
82
82
82
82
82
82
7C
ENDCHAR
STARTCHAR 1FE1
ENCODING 8161
SWIDTH 540 0
DWIDTH 9 0
BBX 7 12 1 0
BITMAP
3C
00
00
82
82
82
82
82
82
82
82
7C
ENDCHAR
STARTCHAR 1FE2
ENCODING 8162
SWIDTH 540 0
DWIDTH 9 0
BBX 7 12 1 1
BITMAP
54
10
00
82
82
82
82
82
82
82
82
7C
ENDCHAR
STARTCHAR 1FE3
ENCODING 8163
SWIDTH 540 0
DWIDTH 9 0
BBX 7 12 1 1
BITMAP
54
00
00
82
82
82
82
82
82
82
82
7C
ENDCHAR
STARTCHAR 1FE4
ENCODING 8164
SWIDTH 600 0
DWIDTH 10 0
BBX 8 16 1 -3
BITMAP
08
08
10
00
18
66
82
81
81
81
82
82
C4
B8
80
80
ENDCHAR
STARTCHAR 1FE5
ENCODING 8165
SWIDTH 600 0
DWIDTH 10 0
BBX 8 16 1 -3
BITMAP
10
10
10
00
18
66
82
81
81
81
82
82
C4
B8
80
80
ENDCHAR
STARTCHAR 1FE6
ENCODING 8166
SWIDTH 540 0
DWIDTH 9 0
BBX 7 12 1 0
BITMAP
38
04
00
82
82
82
82
82
82
82
82
7C
ENDCHAR
STARTCHAR 1FE7
ENCODING 8167
SWIDTH 540 0
DWIDTH 9 0
BBX 7 14 1 0
BITMAP
38
04
00
00
00
82
82
82
82
82
82
82
82
7C
ENDCHAR
STARTCHAR 1FE8
ENCODING 8168
SWIDTH 540 0
DWIDTH 9 0
BBX 9 14 0 1
BITMAP
1C00
0000
8080
8100
4100
4200
2200
1400
1800
0800
0800
0800
0800
0800
ENDCHAR
STARTCHAR 1FE9
ENCODING 8169
SWIDTH 540 0
DWIDTH 9 0
BBX 9 14 0 0
BITMAP
1C00
0000
8080
8100
4100
4200
2200
1400
1800
0800
0800
0800
0800
0800
ENDCHAR
STARTCHAR 1FEA
ENCODING 8170
SWIDTH 720 0
DWIDTH 12 0
BBX 11 12 0 0
BITMAP
1000
9020
6840
0840
0480
0280
0100
0100
0100
0100
0100
0100
ENDCHAR
STARTCHAR 1FEB
ENCODING 8171
SWIDTH 720 0
DWIDTH 12 0
BBX 12 12 0 0
BITMAP
1010
5020
8820
0440
0440
0280
0300
0100
0100
0100
0100
0100
ENDCHAR
STARTCHAR 1FEC
ENCODING 8172
SWIDTH 660 0
DWIDTH 11 0
BBX 10 12 0 0
BITMAP
1E00
A180
A040
2040
2040
2040
2180
3E00
2000
2000
2000
2000
ENDCHAR
STARTCHAR 1FED
ENCODING 8173
SWIDTH 300 0
DWIDTH 5 0
BBX 5 2 0 11
BITMAP
A8
20
ENDCHAR
STARTCHAR 1FEE
ENCODING 8174
SWIDTH 300 0
DWIDTH 5 0
BBX 5 1 0 11
BITMAP
A8
ENDCHAR
STARTCHAR 1FEF
ENCODING 8175
SWIDTH 360 0
DWIDTH 6 0
BBX 2 2 2 11
BITMAP
80
40
ENDCHAR
STARTCHAR 1FF2
ENCODING 8178
SWIDTH 840 0
DWIDTH 14 0
BBX 12 15 1 -2
BITMAP
0800
0400
0000
4000
4020
8420
8410
8410
8410
8410
8620
4960
3080
0000
0200
ENDCHAR
STARTCHAR 1FF3
ENCODING 8179
SWIDTH 840 0
DWIDTH 14 0
BBX 12 12 1 -3
BITMAP
4000
4020
8420
8410
8410
8410
8410
8620
4960
3080
0000
0200
ENDCHAR
STARTCHAR 1FF4
ENCODING 8180
SWIDTH 840 0
DWIDTH 14 0
BBX 12 15 1 -2
BITMAP
0300
0400
0000
4000
4020
8420
8410
8410
8410
8410
8620
4960
3080
0000
0200
ENDCHAR
STARTCHAR 1FF6
ENCODING 8182
SWIDTH 840 0
DWIDTH 14 0
BBX 12 12 1 0
BITMAP
0E00
0100
0000
4000
4020
8420
8410
8410
8410
8410
8620
79E0
ENDCHAR
STARTCHAR 1FF7
ENCODING 8183
SWIDTH 840 0
DWIDTH 14 0
BBX 12 15 1 -3
BITMAP
0E00
0100
0000
4000
4020
8420
8410
8410
8410
8410
8620
4960
3080
0000
0200
ENDCHAR
STARTCHAR 1FF8
ENCODING 8184
SWIDTH 900 0
DWIDTH 15 0
BBX 14 12 0 0
BITMAP
01C0
8630
6808
0808
1004
1004
1004
1004
1004
0808
0410
03E0
ENDCHAR
STARTCHAR 1FF9
ENCODING 8185
SWIDTH 840 0
DWIDTH 14 0
BBX 13 12 0 0
BITMAP
0380
4C60
9010
2010
2010
2008
2008
2010
2010
1010
1020
0FC0
ENDCHAR
STARTCHAR 1FFA
ENCODING 8186
SWIDTH 900 0
DWIDTH 15 0
BBX 14 12 0 0
BITMAP
01C0
8630
6808
0808
1004
1004
1004
1004
0808
0808
0410
1E3C
ENDCHAR
STARTCHAR 1FFB
ENCODING 8187
SWIDTH 840 0
DWIDTH 14 0
BBX 13 12 0 0
BITMAP
0380
4C60
9010
2010
2008
2008
2008
2010
2010
1010
0820
3C78
ENDCHAR
STARTCHAR 1FFC
ENCODING 8188
SWIDTH 1020 0
DWIDTH 17 0
BBX 15 12 1 0
BITMAP
0E00
3180
4040
8044
8024
8024
8024
8044
8044
4044
2084
F1E2
ENDCHAR
STARTCHAR 1FFD
ENCODING 8189
SWIDTH 360 0
DWIDTH 6 0
BBX 3 3 2 10
BITMAP
20
40
80
ENDCHAR
STARTCHAR 1FFE
ENCODING 8190
SWIDTH 360 0
DWIDTH 6 0
BBX 2 3 2 10
BITMAP
80
80
40
ENDCHAR
STARTCHAR 2013
ENCODING 8211
SWIDTH 480 0
DWIDTH 8 0
BBX 8 1 0 4
BITMAP
FF
ENDCHAR
STARTCHAR 2014
ENCODING 8212
SWIDTH 1020 0
DWIDTH 17 0
BBX 17 1 0 4
BITMAP
FFFF80
ENDCHAR
STARTCHAR 2015
ENCODING 8213
SWIDTH 1020 0
DWIDTH 17 0
BBX 17 1 0 4
BITMAP
FFFF80
ENDCHAR
STARTCHAR 2018
ENCODING 8216
SWIDTH 240 0
DWIDTH 4 0
BBX 2 3 1 9
BITMAP
40
80
80
ENDCHAR
STARTCHAR 2019
ENCODING 8217
SWIDTH 240 0
DWIDTH 4 0
BBX 1 3 1 9
BITMAP
80
80
80
ENDCHAR
STARTCHAR 201A
ENCODING 8218
SWIDTH 240 0
DWIDTH 4 0
BBX 1 3 1 -2
BITMAP
80
80
80
ENDCHAR
STARTCHAR 201C
ENCODING 8220
SWIDTH 360 0
DWIDTH 6 0
BBX 4 3 1 9
BITMAP
50
90
90
ENDCHAR
STARTCHAR 201D
ENCODING 8221
SWIDTH 360 0
DWIDTH 6 0
BBX 4 3 1 9
BITMAP
90
90
A0
ENDCHAR
STARTCHAR 201E
ENCODING 8222
SWIDTH 360 0
DWIDTH 6 0
BBX 4 3 1 -2
BITMAP
90
90
80
ENDCHAR
STARTCHAR 2020
ENCODING 8224
SWIDTH 480 0
DWIDTH 8 0
BBX 6 12 1 -1
BITMAP
20
20
20
FC
20
20
20
20
20
20
20
20
ENDCHAR
STARTCHAR 2021
ENCODING 8225
SWIDTH 480 0
DWIDTH 8 0
BBX 6 12 1 -1
BITMAP
20
20
20
FC
20
20
20
20
F8
20
20
20
ENDCHAR
STARTCHAR 2022
ENCODING 8226
SWIDTH 360 0
DWIDTH 6 0
BBX 4 4 1 4
BITMAP
60
F0
F0
60
ENDCHAR
STARTCHAR 2026
ENCODING 8230
SWIDTH 900 0
DWIDTH 15 0
BBX 11 1 2 0
BITMAP
8420
ENDCHAR
STARTCHAR 2030
ENCODING 8240
SWIDTH 1200 0
DWIDTH 20 0
BBX 17 12 1 0
BITMAP
704000
888000
890000
890000
8A0000
720000
044000
09A780
091880
111880
112880
21E780
ENDCHAR
STARTCHAR 2039
ENCODING 8249
SWIDTH 240 0
DWIDTH 4 0
BBX 2 6 1 1
BITMAP
40
40
80
80
80
40
ENDCHAR
STARTCHAR 203A
ENCODING 8250
SWIDTH 240 0
DWIDTH 4 0
BBX 2 6 1 1
BITMAP
80
80
40
40
40
80
ENDCHAR
STARTCHAR 2044
ENCODING 8260
SWIDTH 120 0
DWIDTH 2 0
BBX 7 12 -2 0
BITMAP
02
04
04
08
08
10
20
20
40
40
80
80
ENDCHAR
STARTCHAR 2070
ENCODING 8304
SWIDTH 360 0
DWIDTH 6 0
BBX 4 7 1 5
BITMAP
60
90
90
90
90
90
60
ENDCHAR
STARTCHAR 2074
ENCODING 8308
SWIDTH 360 0
DWIDTH 6 0
BBX 3 5 1 6
BITMAP
60
60
A0
A0
60
ENDCHAR
STARTCHAR 2075
ENCODING 8309
SWIDTH 360 0
DWIDTH 6 0
BBX 4 7 1 5
BITMAP
70
80
80
60
10
10
E0
ENDCHAR
STARTCHAR 2076
ENCODING 8310
SWIDTH 360 0
DWIDTH 6 0
BBX 4 7 1 5
BITMAP
10
60
80
F0
90
90
60
ENDCHAR
STARTCHAR 2077
ENCODING 8311
SWIDTH 360 0
DWIDTH 6 0
BBX 4 6 1 5
BITMAP
F0
20
20
40
40
80
ENDCHAR
STARTCHAR 2078
ENCODING 8312
SWIDTH 360 0
DWIDTH 6 0
BBX 4 7 1 5
BITMAP
60
90
90
60
90
90
60
ENDCHAR
STARTCHAR 2079
ENCODING 8313
SWIDTH 360 0
DWIDTH 6 0
BBX 4 7 1 5
BITMAP
60
90
90
90
70
20
C0
ENDCHAR
STARTCHAR 2080
ENCODING 8320
SWIDTH 360 0
DWIDTH 6 0
BBX 4 6 1 0
BITMAP
F0
90
90
90
90
E0
ENDCHAR
STARTCHAR 2081
ENCODING 8321
SWIDTH 360 0
DWIDTH 6 0
BBX 2 6 2 0
BITMAP
C0
40
40
40
40
40
ENDCHAR
STARTCHAR 2082
ENCODING 8322
SWIDTH 360 0
DWIDTH 6 0
BBX 4 6 1 0
BITMAP
E0
10
20
40
80
E0
ENDCHAR
STARTCHAR 2083
ENCODING 8323
SWIDTH 360 0
DWIDTH 6 0
BBX 4 6 1 0
BITMAP
E0
20
60
10
10
E0
ENDCHAR
STARTCHAR 2084
ENCODING 8324
SWIDTH 360 0
DWIDTH 6 0
BBX 3 6 1 0
BITMAP
20
60
A0
A0
60
20
ENDCHAR
STARTCHAR 2085
ENCODING 8325
SWIDTH 360 0
DWIDTH 6 0
BBX 4 6 1 0
BITMAP
60
80
E0
10
10
F0
ENDCHAR
STARTCHAR 2086
ENCODING 8326
SWIDTH 360 0
DWIDTH 6 0
BBX 4 6 1 0
BITMAP
60
80
E0
90
90
F0
ENDCHAR
STARTCHAR 2087
ENCODING 8327
SWIDTH 360 0
DWIDTH 6 0
BBX 4 6 1 0
BITMAP
70
20
40
40
40
80
ENDCHAR
STARTCHAR 2088
ENCODING 8328
SWIDTH 360 0
DWIDTH 6 0
BBX 4 6 1 0
BITMAP
F0
90
60
90
90
F0
ENDCHAR
STARTCHAR 2089
ENCODING 8329
SWIDTH 360 0
DWIDTH 6 0
BBX 4 6 1 0
BITMAP
F0
90
90
70
20
40
ENDCHAR
STARTCHAR 20AC
ENCODING 8364
SWIDTH 540 0
DWIDTH 9 0
BBX 8 12 1 0
BITMAP
0E
10
20
40
FC
40
40
FC
40
20
20
1F
ENDCHAR
STARTCHAR 20AE
ENCODING 8366
SWIDTH 540 0
DWIDTH 9 0
BBX 7 12 1 0
BITMAP
FE
10
10
10
14
18
70
14
18
70
10
10
ENDCHAR
STARTCHAR 20B4
ENCODING 8372
SWIDTH 540 0
DWIDTH 9 0
BBX 7 12 1 0
BITMAP
38
46
02
02
04
FA
10
FE
80
80
80
7E
ENDCHAR
STARTCHAR 20B8
ENCODING 8376
SWIDTH 540 0
DWIDTH 9 0
BBX 7 12 1 0
BITMAP
FE
00
00
FE
10
10
10
10
10
10
10
10
ENDCHAR
STARTCHAR 20B9
ENCODING 8377
SWIDTH 540 0
DWIDTH 9 0
BBX 8 12 1 0
BITMAP
FF
08
04
FE
04
08
F0
40
20
10
08
08
ENDCHAR
STARTCHAR 2113
ENCODING 8467
SWIDTH 360 0
DWIDTH 6 0
BBX 6 13 0 0
BITMAP
18
24
24
44
44
44
48
50
20
40
C0
20
3C
ENDCHAR
STARTCHAR 2116
ENCODING 8470
SWIDTH 1080 0
DWIDTH 18 0
BBX 15 12 2 0
BITMAP
0018
8224
C242
C242
A242
9224
9218
8A00
8600
863C
8200
8200
ENDCHAR
STARTCHAR 2122
ENCODING 8482
SWIDTH 720 0
DWIDTH 12 0
BBX 11 6 0 6
BITMAP
F400
2460
26A0
2AA0
2920
2020
ENDCHAR
STARTCHAR 2126
ENCODING 8486
SWIDTH 780 0
DWIDTH 13 0
BBX 11 12 1 0
BITMAP
0E00
3180
4040
8040
8020
8020
8020
8040
8040
4040
2080
F1E0
ENDCHAR
STARTCHAR 212E
ENCODING 8494
SWIDTH 960 0
DWIDTH 16 0
BBX 13 12 1 0
BITMAP
0780
1860
2010
6018
E018
E018
FFE0
E000
6000
6000
2030
1FC0
ENDCHAR
STARTCHAR 2150
ENCODING 8528
SWIDTH 840 0
DWIDTH 14 0
BBX 11 12 2 0
BITMAP
4000
C100
4200
4200
4400
4800
48E0
1040
1040
2080
4080
4080
ENDCHAR
STARTCHAR 2151
ENCODING 8529
SWIDTH 840 0
DWIDTH 14 0
BBX 11 12 2 0
BITMAP
4000
C100
4200
4200
4400
4800
49E0
1120
1120
20E0
2020
40C0
ENDCHAR
STARTCHAR 2153
ENCODING 8531
SWIDTH 840 0
DWIDTH 14 0
BBX 11 12 2 0
BITMAP
4000
C100
4200
4200
4400
4800
48E0
1020
10C0
2020
2020
41E0
ENDCHAR
STARTCHAR 2154
ENCODING 8532
SWIDTH 840 0
DWIDTH 14 0
BBX 12 12 1 0
BITMAP
6040
9080
2080
2100
4200
8200
F470
0410
0860
0810
1010
20F0
ENDCHAR
STARTCHAR 2155
ENCODING 8533
SWIDTH 840 0
DWIDTH 14 0
BBX 11 12 2 0
BITMAP
4000
C100
4200
4200
4400
4400
48C0
1100
10C0
2020
2020
41E0
ENDCHAR
STARTCHAR 2156
ENCODING 8534
SWIDTH 840 0
DWIDTH 14 0
BBX 12 12 1 0
BITMAP
6000
9080
2100
2100
4200
8200
F460
0880
0860
1010
1010
20F0
ENDCHAR
STARTCHAR 2157
ENCODING 8535
SWIDTH 840 0
DWIDTH 14 0
BBX 12 12 1 0
BITMAP
E040
2080
2080
6100
1200
1200
E460
0480
0860
0810
1010
20F0
ENDCHAR
STARTCHAR 2158
ENCODING 8536
SWIDTH 840 0
DWIDTH 14 0
BBX 12 12 1 0
BITMAP
0040
6080
6100
A100
A200
6200
0460
0480
0860
1010
1010
20F0
ENDCHAR
STARTCHAR 2159
ENCODING 8537
SWIDTH 840 0
DWIDTH 14 0
BBX 11 12 2 0
BITMAP
4080
C100
4100
4200
4400
4400
48C0
0900
11E0
1120
2120
40E0
ENDCHAR
STARTCHAR 215A
ENCODING 8538
SWIDTH 840 0
DWIDTH 14 0
BBX 12 12 1 0
BITMAP
7040
8080
8100
6100
1200
1200
E420
04C0
08F0
1090
1090
2070
ENDCHAR
STARTCHAR 215B
ENCODING 8539
SWIDTH 840 0
DWIDTH 14 0
BBX 11 12 2 0
BITMAP
4000
C100
4200
4200
4400
4400
49E0
1120
10A0
2160
2120
41E0
ENDCHAR
STARTCHAR 215C
ENCODING 8540
SWIDTH 840 0
DWIDTH 14 0
BBX 12 12 1 0
BITMAP
E040
2080
2080
6100
1200
1200
E4F0
0490
0850
08B0
1090
20F0
ENDCHAR
STARTCHAR 215D
ENCODING 8541
SWIDTH 840 0
DWIDTH 14 0
BBX 12 12 1 0
BITMAP
7040
8080
8080
6100
1100
1200
E4F0
0490
0850
08B0
1090
10F0
ENDCHAR
STARTCHAR 215E
ENCODING 8542
SWIDTH 840 0
DWIDTH 14 0
BBX 12 12 1 0
BITMAP
F080
2100
2100
4200
4200
8400
08F0
0890
1050
10B0
2090
40F0
ENDCHAR
STARTCHAR 2202
ENCODING 8706
SWIDTH 600 0
DWIDTH 10 0
BBX 8 13 1 0
BITMAP
78
04
02
02
02
3D
43
81
82
82
82
84
78
ENDCHAR
STARTCHAR 2206
ENCODING 8710
SWIDTH 600 0
DWIDTH 10 0
BBX 10 11 0 1
BITMAP
0C00
0C00
1200
1200
2100
2100
2100
4080
4080
8080
FFC0
ENDCHAR
STARTCHAR 220F
ENCODING 8719
SWIDTH 660 0
DWIDTH 11 0
BBX 8 14 2 -2
BITMAP
FF
81
81
81
81
81
81
81
81
81
81
81
81
01
ENDCHAR
STARTCHAR 2211
ENCODING 8721
SWIDTH 540 0
DWIDTH 9 0
BBX 7 14 1 -2
BITMAP
FE
80
80
40
20
20
10
10
20
20
40
80
80
FE
ENDCHAR
STARTCHAR 2212
ENCODING 8722
SWIDTH 540 0
DWIDTH 9 0
BBX 7 1 1 4
BITMAP
FE
ENDCHAR
STARTCHAR 2215
ENCODING 8725
SWIDTH 120 0
DWIDTH 2 0
BBX 7 12 -2 0
BITMAP
02
04
04
08
08
10
20
20
40
40
80
80
ENDCHAR
STARTCHAR 2219
ENCODING 8729
SWIDTH 240 0
DWIDTH 4 0
BBX 1 1 1 4
BITMAP
80
ENDCHAR
STARTCHAR 221A
ENCODING 8730
SWIDTH 540 0
DWIDTH 9 0
BBX 9 13 0 0
BITMAP
0080
0100
0100
0100
0200
0200
0200
C200
2400
2400
1400
1400
0800
ENDCHAR
STARTCHAR 221E
ENCODING 8734
SWIDTH 540 0
DWIDTH 9 0
BBX 9 4 0 3
BITMAP
7700
8880
8880
7700
ENDCHAR
STARTCHAR 222B
ENCODING 8747
SWIDTH 360 0
DWIDTH 6 0
BBX 4 16 1 -3
BITMAP
10
60
40
40
40
40
40
40
40
40
40
40
40
40
40
80
ENDCHAR
STARTCHAR 2248
ENCODING 8776
SWIDTH 540 0
DWIDTH 9 0
BBX 7 5 1 2
BITMAP
F2
8C
00
F2
8C
ENDCHAR
STARTCHAR 2260
ENCODING 8800
SWIDTH 540 0
DWIDTH 9 0
BBX 7 8 1 1
BITMAP
04
08
FE
10
10
20
FE
40
ENDCHAR
STARTCHAR 2264
ENCODING 8804
SWIDTH 540 0
DWIDTH 9 0
BBX 7 9 1 0
BITMAP
06
18
E0
C0
30
0E
00
00
FE
ENDCHAR
STARTCHAR 2265
ENCODING 8805
SWIDTH 540 0
DWIDTH 9 0
BBX 7 9 1 0
BITMAP
C0
38
06
06
18
60
80
00
FE
ENDCHAR
STARTCHAR 25CA
ENCODING 9674
SWIDTH 540 0
DWIDTH 9 0
BBX 7 12 1 0
BITMAP
10
30
28
44
84
82
82
82
44
48
28
10
ENDCHAR
STARTCHAR E0FF
ENCODING 57599
SWIDTH 780 0
DWIDTH 13 0
BBX 13 12 0 0
BITMAP
0700
1FC0
3F60
78F0
6730
6FB8
DFF8
6730
7A70
79F0
3F60
0F80
ENDCHAR
STARTCHAR EFFD
ENCODING 61437
SWIDTH 1320 0
DWIDTH 22 0
BBX 19 6 1 0
BITMAP
F03820
904460
9028A0
905920
9044E0
E23820
ENDCHAR
STARTCHAR F000
ENCODING 61440
SWIDTH 960 0
DWIDTH 16 0
BBX 14 12 1 0
BITMAP
7CFC
8000
8504
8504
8504
8000
3878
8000
8504
8504
8000
3878
ENDCHAR
STARTCHAR F001
ENCODING 61441
SWIDTH 600 0
DWIDTH 10 0
BBX 7 13 1 0
BITMAP
38
C2
80
80
F8
82
82
82
82
82
82
82
82
ENDCHAR
STARTCHAR F002
ENCODING 61442
SWIDTH 600 0
DWIDTH 10 0
BBX 8 13 1 0
BITMAP
3A
C2
82
82
FA
82
82
82
82
82
82
82
81
ENDCHAR
STARTCHAR F0FF
ENCODING 61695
SWIDTH 480 0
DWIDTH 8 0
BBX 7 7 0 6
BITMAP
3C
7E
DA
BA
DE
6E
3C
ENDCHAR
STARTCHAR F507
ENCODING 62727
SWIDTH 840 0
DWIDTH 14 0
BBX 12 12 1 0
BITMAP
6040
9080
2100
2100
4200
8200
F470
0420
0820
1040
1040
2040
ENDCHAR
STARTCHAR F508
ENCODING 62728
SWIDTH 840 0
DWIDTH 14 0
BBX 12 12 1 0
BITMAP
E000
2080
2100
6100
1200
1200
E470
0820
0820
1040
1040
2040
ENDCHAR
STARTCHAR F509
ENCODING 62729
SWIDTH 840 0
DWIDTH 14 0
BBX 12 12 1 0
BITMAP
0040
6080
6080
A100
A100
6200
0470
0420
0820
0840
1040
1040
ENDCHAR
STARTCHAR F50A
ENCODING 62730
SWIDTH 840 0
DWIDTH 14 0
BBX 12 12 1 0
BITMAP
7000
8080
8100
6100
1200
1400
E470
0820
0820
1040
2040
2040
ENDCHAR
STARTCHAR F50B
ENCODING 62731
SWIDTH 840 0
DWIDTH 14 0
BBX 12 12 1 0
BITMAP
1000
6080
8100
F100
9200
9400
6470
0820
0820
1040
1040
2040
ENDCHAR
STARTCHAR F50D
ENCODING 62733
SWIDTH 840 0
DWIDTH 14 0
BBX 12 12 1 0
BITMAP
6040
9080
2100
2100
4200
8200
F4F0
0490
0890
1070
1010
2060
ENDCHAR
STARTCHAR F50E
ENCODING 62734
SWIDTH 840 0
DWIDTH 14 0
BBX 12 12 1 0
BITMAP
0040
6080
6100
A100
A200
6200
04F0
0490
0890
1070
1010
2060
ENDCHAR
STARTCHAR F50F
ENCODING 62735
SWIDTH 840 0
DWIDTH 14 0
BBX 12 12 1 0
BITMAP
7040
8080
8080
6100
1100
1200
E4F0
0490
0890
0870
1010
1060
ENDCHAR
STARTCHAR F510
ENCODING 62736
SWIDTH 840 0
DWIDTH 14 0
BBX 12 12 1 0
BITMAP
F080
2100
2100
4200
4400
8400
08F0
0890
1090
1070
2010
4060
ENDCHAR
STARTCHAR F511
ENCODING 62737
SWIDTH 840 0
DWIDTH 14 0
BBX 12 12 1 0
BITMAP
6040
9080
9080
6100
9200
9200
64F0
0490
0890
0870
1010
2060
ENDCHAR
STARTCHAR F6C3
ENCODING 63171
SWIDTH 540 0
DWIDTH 9 0
BBX 1 2 4 -3
BITMAP
80
80
ENDCHAR
STARTCHAR F800
ENCODING 63488
SWIDTH 540 0
DWIDTH 9 0
BBX 7 12 1 0
BITMAP
38
44
82
82
82
82
82
82
82
82
44
3C
ENDCHAR
STARTCHAR F801
ENCODING 63489
SWIDTH 360 0
DWIDTH 6 0
BBX 3 11 1 1
BITMAP
20
E0
20
20
20
20
20
20
20
20
20
ENDCHAR
STARTCHAR F802
ENCODING 63490
SWIDTH 480 0
DWIDTH 8 0
BBX 6 12 1 0
BITMAP
70
88
04
04
04
08
10
20
40
80
80
FC
ENDCHAR
STARTCHAR F803
ENCODING 63491
SWIDTH 480 0
DWIDTH 8 0
BBX 6 12 1 0
BITMAP
70
88
04
04
08
10
28
04
04
04
04
F8
ENDCHAR
STARTCHAR F804
ENCODING 63492
SWIDTH 540 0
DWIDTH 9 0
BBX 7 12 1 0
BITMAP
04
0C
14
24
44
44
84
84
FE
04
04
04
ENDCHAR
STARTCHAR F805
ENCODING 63493
SWIDTH 480 0
DWIDTH 8 0
BBX 6 12 1 0
BITMAP
7C
40
40
80
80
70
08
04
04
04
04
F8
ENDCHAR
STARTCHAR F806
ENCODING 63494
SWIDTH 540 0
DWIDTH 9 0
BBX 7 12 1 0
BITMAP
04
18
60
40
80
B8
C4
82
82
82
82
7C
ENDCHAR
STARTCHAR F807
ENCODING 63495
SWIDTH 480 0
DWIDTH 8 0
BBX 6 12 1 0
BITMAP
FC
04
08
08
10
10
20
20
20
40
40
40
ENDCHAR
STARTCHAR F808
ENCODING 63496
SWIDTH 540 0
DWIDTH 9 0
BBX 7 12 1 0
BITMAP
38
44
82
82
84
64
58
84
82
82
82
7C
ENDCHAR
STARTCHAR F809
ENCODING 63497
SWIDTH 540 0
DWIDTH 9 0
BBX 7 12 1 0
BITMAP
38
C4
84
82
82
82
46
3C
04
04
08
70
ENDCHAR
STARTCHAR F80A
ENCODING 63498
SWIDTH 360 0
DWIDTH 6 0
BBX 4 7 1 7
BITMAP
60
90
90
90
90
90
60
ENDCHAR
STARTCHAR F80B
ENCODING 63499
SWIDTH 360 0
DWIDTH 6 0
BBX 2 7 2 7
BITMAP
40
C0
40
40
40
40
40
ENDCHAR
STARTCHAR F80C
ENCODING 63500
SWIDTH 360 0
DWIDTH 6 0
BBX 4 7 1 7
BITMAP
60
90
20
20
40
80
F0
ENDCHAR
STARTCHAR F80D
ENCODING 63501
SWIDTH 360 0
DWIDTH 6 0
BBX 4 7 1 7
BITMAP
E0
20
20
60
10
10
E0
ENDCHAR
STARTCHAR F80E
ENCODING 63502
SWIDTH 360 0
DWIDTH 6 0
BBX 3 5 1 8
BITMAP
60
60
A0
A0
60
ENDCHAR
STARTCHAR F80F
ENCODING 63503
SWIDTH 360 0
DWIDTH 6 0
BBX 4 7 1 7
BITMAP
70
80
80
60
10
10
E0
ENDCHAR
STARTCHAR F810
ENCODING 63504
SWIDTH 360 0
DWIDTH 6 0
BBX 4 7 1 7
BITMAP
10
60
80
F0
90
90
60
ENDCHAR
STARTCHAR F811
ENCODING 63505
SWIDTH 360 0
DWIDTH 6 0
BBX 4 6 1 7
BITMAP
F0
20
20
40
40
80
ENDCHAR
STARTCHAR F812
ENCODING 63506
SWIDTH 360 0
DWIDTH 6 0
BBX 4 7 1 7
BITMAP
60
90
90
60
90
90
60
ENDCHAR
STARTCHAR F813
ENCODING 63507
SWIDTH 360 0
DWIDTH 6 0
BBX 4 7 1 7
BITMAP
60
90
90
90
70
20
C0
ENDCHAR
STARTCHAR F814
ENCODING 63508
SWIDTH 360 0
DWIDTH 6 0
BBX 4 6 1 -1
BITMAP
B0
90
90
90
90
60
ENDCHAR
STARTCHAR F815
ENCODING 63509
SWIDTH 360 0
DWIDTH 6 0
BBX 2 6 2 -2
BITMAP
C0
40
40
40
40
40
ENDCHAR
STARTCHAR F816
ENCODING 63510
SWIDTH 360 0
DWIDTH 6 0
BBX 4 7 1 -2
BITMAP
40
A0
10
20
40
80
F0
ENDCHAR
STARTCHAR F817
ENCODING 63511
SWIDTH 360 0
DWIDTH 6 0
BBX 4 7 1 -2
BITMAP
40
A0
20
40
30
10
E0
ENDCHAR
STARTCHAR F818
ENCODING 63512
SWIDTH 360 0
DWIDTH 6 0
BBX 3 5 1 -2
BITMAP
20
60
A0
A0
60
ENDCHAR
STARTCHAR F819
ENCODING 63513
SWIDTH 360 0
DWIDTH 6 0
BBX 4 6 1 -2
BITMAP
60
80
E0
10
10
E0
ENDCHAR
STARTCHAR F81A
ENCODING 63514
SWIDTH 360 0
DWIDTH 6 0
BBX 4 6 1 -2
BITMAP
60
80
E0
90
90
F0
ENDCHAR
STARTCHAR F81B
ENCODING 63515
SWIDTH 360 0
DWIDTH 6 0
BBX 3 5 2 -2
BITMAP
E0
40
80
80
80
ENDCHAR
STARTCHAR F81C
ENCODING 63516
SWIDTH 360 0
DWIDTH 6 0
BBX 4 7 1 -2
BITMAP
40
B0
90
60
90
90
F0
ENDCHAR
STARTCHAR F81D
ENCODING 63517
SWIDTH 360 0
DWIDTH 6 0
BBX 4 7 1 -2
BITMAP
40
B0
90
90
70
20
C0
ENDCHAR
STARTCHAR FB00
ENCODING 64256
SWIDTH 720 0
DWIDTH 12 0
BBX 11 13 1 0
BITMAP
39E0
C200
8200
8200
FBC0
8200
8200
8200
8200
8200
8200
8200
8200
ENDCHAR
STARTCHAR FB01
ENCODING 64257
SWIDTH 600 0
DWIDTH 10 0
BBX 7 13 1 0
BITMAP
38
C2
80
80
F8
82
82
82
82
82
82
82
82
ENDCHAR
STARTCHAR FB02
ENCODING 64258
SWIDTH 600 0
DWIDTH 10 0
BBX 8 13 1 0
BITMAP
3A
C2
82
82
FA
82
82
82
82
82
82
82
81
ENDCHAR
STARTCHAR FB03
ENCODING 64259
SWIDTH 960 0
DWIDTH 16 0
BBX 13 13 1 0
BITMAP
38E0
C308
8200
8200
F9E0
8208
8208
8208
8208
8208
8208
8208
8208
ENDCHAR
STARTCHAR FB04
ENCODING 64260
SWIDTH 960 0
DWIDTH 16 0
BBX 14 13 1 0
BITMAP
38E8
C308
8208
8208
F9E8
8208
8208
8208
8208
8208
8208
8208
8204
ENDCHAR
ENDFONT
